<svg width="17" height="16" viewBox="0 0 17 16" fill="none" xmlns="http://www.w3.org/2000/svg">
<path d="M8.66797 3.66699H14.3926C15.0937 3.66699 15.6678 4.24027 15.668 4.94141V12.3916C15.668 13.0929 15.0938 13.667 14.3926 13.667L2.94336 13.6162C2.24219 13.6162 1.66809 13.0429 1.66797 12.3418L1.6748 3.94141C1.67495 3.24027 2.2422 2.66699 2.94336 2.66699H6.66797L8.66797 3.66699ZM3.36816 5.16699C3.25792 5.16706 3.16821 5.25601 3.16797 5.36621V11.9668C3.16804 12.0772 3.25781 12.1669 3.36816 12.167H13.9688C14.079 12.1667 14.1679 12.077 14.168 11.9668V5.36621C14.1677 5.25612 14.0788 5.16724 13.9688 5.16699H3.36816Z" fill="#092540"/>
</svg>
