<svg width="16" height="16" viewBox="0 0 16 16" fill="none" xmlns="http://www.w3.org/2000/svg">
<path d="M14.272 7.72016L8.27203 1.72016C8.02204 1.47222 7.68413 1.33322 7.33203 1.3335H2.66537C2.31174 1.3335 1.9726 1.47397 1.72256 1.72402C1.47251 1.97407 1.33203 2.31321 1.33203 2.66683V7.3335C1.33189 7.50944 1.36658 7.68367 1.43408 7.84614C1.50159 8.00862 1.60059 8.15613 1.72536 8.28016L7.72537 14.2802C7.97535 14.5281 8.31327 14.6671 8.66537 14.6668C9.01842 14.6653 9.35647 14.5239 9.60537 14.2735L14.272 9.60683C14.5224 9.35793 14.6639 9.01988 14.6654 8.66683C14.6655 8.49089 14.6308 8.31666 14.5633 8.15419C14.4958 7.99171 14.3968 7.8442 14.272 7.72016ZM8.66537 13.3335L2.66537 7.3335V2.66683H7.33203L13.332 8.66683L8.66537 13.3335ZM4.33203 3.3335C4.52981 3.3335 4.72315 3.39215 4.8876 3.50203C5.05205 3.61191 5.18022 3.76809 5.25591 3.95081C5.3316 4.13354 5.3514 4.33461 5.31282 4.52859C5.27423 4.72257 5.17899 4.90075 5.03914 5.0406C4.89929 5.18046 4.7211 5.2757 4.52712 5.31428C4.33314 5.35287 4.13207 5.33306 3.94935 5.25738C3.76662 5.18169 3.61044 5.05352 3.50056 4.88907C3.39068 4.72462 3.33203 4.53128 3.33203 4.3335C3.33203 4.06828 3.43739 3.81393 3.62492 3.62639C3.81246 3.43885 4.06682 3.3335 4.33203 3.3335Z" fill="#092540"/>
</svg>


