<svg width="47" height="68" viewBox="0 0 47 68" fill="none" xmlns="http://www.w3.org/2000/svg">
<path d="M17.4181 43.1528H2.28992C1.02504 43.1528 0 42.1278 0 40.8629C0 39.598 1.02504 38.573 2.28992 38.573H17.4181C18.6829 38.573 19.708 39.598 19.708 40.8629C19.7054 42.1278 18.6804 43.1528 17.4181 43.1528Z" fill="url(#paint0_linear_84_43388)"/>
<path d="M39.2954 36.2341C39.2954 29.4225 34.2302 23.7898 27.6626 22.9052L33.8129 16.6929C41.5165 19.8366 46.9435 27.3993 46.9435 36.2341C46.9435 47.8869 37.4982 57.3323 25.8453 57.3323C17.0178 57.3323 9.46234 51.9109 6.31514 44.2298C6.17045 43.8766 6.08243 43.5144 6.04688 43.1531H14.3071C16.6616 47.07 20.9523 49.6841 25.8453 49.6841C33.2743 49.6841 39.2954 43.663 39.2954 36.2341Z" fill="url(#paint1_linear_84_43388)"/>
<path d="M36.9106 65.697L30.2309 54.1285C29.9874 53.7087 29.5397 53.4485 29.0527 53.4485H22.2835C21.7993 53.4485 21.3488 53.7087 21.1053 54.1285L14.4284 65.697C13.838 66.7212 14.5767 68.0001 15.7576 68.0001H35.5814C36.7623 67.9973 37.5011 66.7184 36.9106 65.697Z" fill="url(#paint2_linear_84_43388)"/>
<path d="M38.2252 6.62497L35.5585 3.98381C34.933 3.36403 34.9273 2.35476 35.5471 1.72929L36.7923 0.472674C37.4121 -0.152791 38.4214 -0.158477 39.0469 0.461302L41.7136 3.10247C42.3391 3.72225 42.3448 4.73152 41.725 5.35699L40.4797 6.6136C39.86 7.23907 38.8507 7.24475 38.2252 6.62497Z" fill="url(#paint3_linear_84_43388)"/>
<path d="M12.6907 33.5444L8.63088 29.5244C8.00541 28.9046 7.99973 27.8953 8.61951 27.2699L9.46957 26.4113C10.0893 25.7858 11.0986 25.7801 11.7241 26.3999L15.7839 30.42C16.4094 31.0397 16.4151 32.049 15.7953 32.6745L14.9452 33.5331C14.3226 34.1585 13.3162 34.1614 12.6907 33.5444Z" fill="url(#paint4_linear_84_43388)"/>
<path d="M18.7518 29.6463L12.6023 23.5565C11.9769 22.9368 11.9712 21.9275 12.591 21.302L30.3286 3.3853C30.9483 2.75983 31.9576 2.75415 32.5831 3.37393L38.7354 9.46368C39.3608 10.0835 39.3665 11.0927 38.7468 11.7182L21.0091 29.6349C20.3865 30.2604 19.3773 30.2661 18.7518 29.6463Z" fill="url(#paint5_linear_84_43388)"/>
<defs>
<linearGradient id="paint0_linear_84_43388" x1="1.32482e-07" y1="41.5734" x2="20.6389" y2="40.8629" gradientUnits="userSpaceOnUse">
<stop stop-color="#195AFE"/>
<stop offset="1" stop-color="#8FAFFF"/>
</linearGradient>
<linearGradient id="paint1_linear_84_43388" x1="10.9713" y1="51.1712" x2="31.0177" y2="19.956" gradientUnits="userSpaceOnUse">
<stop stop-color="#8DADFF"/>
<stop offset="1" stop-color="#E5ECFF"/>
</linearGradient>
<linearGradient id="paint2_linear_84_43388" x1="22.1178" y1="68.0001" x2="22.1178" y2="53.4485" gradientUnits="userSpaceOnUse">
<stop stop-color="#B1C6FD"/>
<stop offset="1" stop-color="#195AFE"/>
</linearGradient>
<linearGradient id="paint3_linear_84_43388" x1="15.1864" y1="26.8583" x2="41.4019" y2="0.642813" gradientUnits="userSpaceOnUse">
<stop stop-color="#195AFE"/>
<stop offset="1" stop-color="#C0D2FF"/>
</linearGradient>
<linearGradient id="paint4_linear_84_43388" x1="15.1864" y1="26.8583" x2="41.4019" y2="0.642813" gradientUnits="userSpaceOnUse">
<stop stop-color="#195AFE"/>
<stop offset="1" stop-color="#C0D2FF"/>
</linearGradient>
<linearGradient id="paint5_linear_84_43388" x1="15.1864" y1="26.8583" x2="41.4019" y2="0.642813" gradientUnits="userSpaceOnUse">
<stop stop-color="#195AFE"/>
<stop offset="1" stop-color="#C0D2FF"/>
</linearGradient>
</defs>
</svg>
