<svg width="17" height="16" viewBox="0 0 17 16" fill="none" xmlns="http://www.w3.org/2000/svg">
<path d="M13.502 1.3335C14.6064 1.3335 15.5018 2.22908 15.502 3.3335V12.6675C15.5016 13.7718 14.6063 14.6675 13.502 14.6675H2.83594C1.73173 14.6673 0.836289 13.7716 0.835938 12.6675V3.3335C0.836113 2.22918 1.73163 1.33367 2.83594 1.3335H13.502ZM2.16895 12.6675C2.1693 13.0353 2.46811 13.3333 2.83594 13.3335H13.502C13.8699 13.3335 14.1686 13.0354 14.1689 12.6675V5.3335H2.16895V12.6675ZM4.83594 12.0005H3.50195V8.66748H4.83594V12.0005ZM7.50195 12.0005H6.16895V6.66748H7.50195V12.0005ZM10.8359 8.00049C11.9404 8.00066 12.8359 8.89603 12.8359 10.0005C12.8358 11.1048 11.9402 12.0003 10.8359 12.0005C9.73163 12.0003 8.83611 11.1048 8.83594 10.0005C8.83594 8.89603 9.73152 8.00066 10.8359 8.00049ZM10.8359 9.3335C10.4677 9.3335 10.1689 9.6323 10.1689 10.0005C10.1691 10.3685 10.4679 10.6665 10.8359 10.6665C11.204 10.6665 11.5028 10.3685 11.5029 10.0005C11.5029 9.6323 11.2041 9.3335 10.8359 9.3335ZM2.83594 2.66748C2.46801 2.66766 2.16912 2.96556 2.16895 3.3335V4.00049H14.1689V3.3335C14.1688 2.96546 13.87 2.66748 13.502 2.66748H2.83594Z" fill="#092540"/>
</svg>


