<svg preserveAspectRatio="none" width="100%" height="100%" overflow="visible" style="display: block;" viewBox="0 0 4 18" fill="none" xmlns="http://www.w3.org/2000/svg">
<path id="IconShape" d="M2 14C3.10457 14 4 14.8954 4 16C4 17.1046 3.10457 18 2 18C0.89543 18 0 17.1046 0 16C3.22128e-08 14.8954 0.89543 14 2 14ZM2 7C3.10457 7 4 7.89543 4 9C4 10.1046 3.10457 11 2 11C0.89543 11 0 10.1046 0 9C3.22128e-08 7.89543 0.89543 7 2 7ZM2 0C3.10457 0 4 0.89543 4 2C4 3.10457 3.10457 4 2 4C0.89543 4 0 3.10457 0 2C3.22128e-08 0.89543 0.89543 3.22133e-08 2 0Z" fill="var(--fill-0, #6B7C8C)"/>
</svg>
