<svg preserveAspectRatio="none" width="100%" height="100%" overflow="visible" style="display: block;" viewBox="0 0 22 22" fill="none" xmlns="http://www.w3.org/2000/svg">
<path id="IconShape" fill-rule="evenodd" clip-rule="evenodd" d="M0 2L12 0V22L0 20V2ZM6.01 9.961L4.328 7H2.098L4.844 11.433L2 16H4.246L6.034 12.922L7.831 16H10.061L7.215 11.433L9.97 7H7.723L6.009 9.961H6.01ZM14 16V14H16V12H14V10H16V8H14V6H16V4H14V2H20C20.5304 2 21.0391 2.21071 21.4142 2.58579C21.7893 2.96086 22 3.46957 22 4V18C22 18.5304 21.7893 19.0391 21.4142 19.4142C21.0391 19.7893 20.5304 20 20 20H14V18H16V16H14ZM17 4V6H20V4H17ZM17 8V10H20V8H17ZM17 12V14H20V12H17ZM17 16V18H20V16H17Z" fill="var(--fill-0, #B6BEC6)"/>
</svg>
