<svg preserveAspectRatio="none" width="100%" height="100%" overflow="visible" style="display: block;" viewBox="0 0 16 20" fill="none" xmlns="http://www.w3.org/2000/svg">
<path id="Vector" d="M0 20V6C0 5.45 0.195833 4.97917 0.5875 4.5875C0.979167 4.19583 1.45 4 2 4H10C10.55 4 11.0208 4.19583 11.4125 4.5875C11.8042 4.97917 12 5.45 12 6V20L6 17L0 20ZM2 16.975L6 14.825L10 16.975V6H2V16.975ZM14 16V2H3V0H14C14.55 0 15.0208 0.195833 15.4125 0.5875C15.8042 0.979167 16 1.45 16 2V16H14Z" fill="var(--fill-0, #6B7C8C)"/>
</svg>
