<svg preserveAspectRatio="none" width="100%" height="100%" overflow="visible" style="display: block;" viewBox="0 0 12 15" fill="none" xmlns="http://www.w3.org/2000/svg">
<path id="IconShape" d="M7.05176 0.0673828C7.58981 -0.190651 8.16989 0.334259 7.9668 0.895508C7.7992 1.35866 7.74684 1.90487 7.80176 2.52051C7.87415 3.33161 8.12691 4.22011 8.50488 5.12207C8.5382 5.20157 8.57224 5.28008 8.60645 5.35742C8.77026 5.03519 8.9545 4.71713 9.15918 4.41113C9.53467 3.84983 9.95915 3.36125 10.4385 2.96777C10.9336 2.56135 11.6608 3.01934 11.5088 3.6416C11.2745 4.60046 11.2977 5.13389 11.5195 5.89648C11.5414 5.97172 11.6263 6.25001 11.6445 6.30957C11.8913 7.12657 12 7.724 12 8.59082C11.9999 11.8598 9.40154 14.6689 6 14.6689C2.59842 14.6689 5.69215e-05 11.8599 0 8.59082C0 7.44331 0.140194 6.47524 0.376953 5.68066C0.525641 5.18169 0.682453 4.84128 0.801758 4.65234C1.11269 4.16 1.86092 4.27491 2.00977 4.83789C2.02466 4.8942 2.07039 5.02135 2.1543 5.19531C2.29988 5.49706 2.49962 5.80078 2.75977 6.08398C2.85556 6.18827 2.95711 6.28809 3.06543 6.38184C2.66549 4.01842 3.5589 2.26613 5.3418 1.01855C5.86609 0.651688 6.16948 0.491081 7.05176 0.0673828ZM6.10645 2.11133C4.41694 3.29355 3.79892 4.9249 4.75098 7.51074C4.94561 8.03936 4.43706 8.55665 3.90527 8.37109C3.03744 8.06791 2.33151 7.5896 1.77734 6.98633C1.67952 6.87983 1.58925 6.77293 1.50586 6.66699C1.39624 7.21804 1.33301 7.85822 1.33301 8.59082C1.33306 11.1457 3.359 13.335 6 13.335C8.64096 13.335 10.6669 11.1457 10.667 8.59082C10.667 7.87316 10.5806 7.39883 10.3691 6.69824C10.3512 6.63969 10.2632 6.35096 10.2393 6.26855C10.1593 5.99378 10.0992 5.73533 10.0605 5.47949C9.85872 5.818 9.68303 6.1717 9.5332 6.52539C9.41475 6.80504 9.33871 7.01879 9.30469 7.13184C9.1387 7.68345 8.3984 7.7794 8.09766 7.28809C8.04229 7.19763 7.95078 7.03759 7.83496 6.81934C7.64408 6.45959 7.45339 6.06243 7.27539 5.6377C6.84877 4.61965 6.5599 3.60563 6.47363 2.63965C6.45055 2.38107 6.44245 2.12835 6.4502 1.88281C6.33895 1.95175 6.22971 2.02507 6.10645 2.11133Z" fill="var(--fill-0, #3E74FE)"/>
</svg>
