<svg preserveAspectRatio="none" width="100%" height="100%" overflow="visible" style="display: block;" viewBox="0 0 9 10" fill="none" xmlns="http://www.w3.org/2000/svg">
<path id="Vector" d="M4.73057 4.45045L1.31138 0.0816965C1.2712 0.0294644 1.20825 0 1.14263 0H0.10736C0.0176274 0 -0.0319262 0.103125 0.0229845 0.172768L3.57745 4.71429L0.0229845 9.2558C0.0106186 9.2716 0.00294576 9.29055 0.000843232 9.31049C-0.00125929 9.33044 0.00229347 9.35058 0.0110951 9.3686C0.0198967 9.38662 0.0335921 9.4018 0.0506154 9.41241C0.0676387 9.42301 0.0873028 9.42862 0.10736 9.42857H1.14263C1.20825 9.42857 1.2712 9.39777 1.31138 9.34688L4.73057 4.97946C4.85245 4.82277 4.85245 4.6058 4.73057 4.45045V4.45045ZM8.802 4.45045L5.38281 0.0816965C5.34263 0.0294644 5.27968 0 5.21406 0H4.17879C4.08906 0 4.0395 0.103125 4.09441 0.172768L7.64888 4.71429L4.09441 9.2558C4.08205 9.2716 4.07437 9.29055 4.07227 9.31049C4.07017 9.33044 4.07372 9.35058 4.08252 9.3686C4.09133 9.38662 4.10502 9.4018 4.12204 9.41241C4.13907 9.42301 4.15873 9.42862 4.17879 9.42857H5.21406C5.27968 9.42857 5.34263 9.39777 5.38281 9.34688L8.802 4.97946C8.92388 4.82277 8.92388 4.6058 8.802 4.45045V4.45045Z" fill="var(--fill-0, #1890FF)"/>
</svg>
