<svg preserveAspectRatio="none" width="100%" height="100%" overflow="visible" style="display: block;" viewBox="0 0 20 20" fill="none" xmlns="http://www.w3.org/2000/svg">
<path id="Vector" d="M6 4.63867C3.57122 5.8071 2 8.20021 2 11C2 14.8388 5.16146 18 9 18C11.7999 18 14.1929 16.4287 15.3613 14H17.4883C16.253 17.4956 12.9195 20 9 20C4.02944 20 0 15.9717 0 11C0 7.08118 2.50395 3.74711 6 2.51172V4.63867ZM9 0C15.0751 0 20 4.93723 20 11C20 11.3371 19.9848 11.6706 19.9551 12H8V0.0449219C8.32942 0.0151326 8.66297 0 9 0ZM10 10H17.9434C17.4811 5.8344 14.1677 2.51896 10 2.05664V10Z" fill="var(--fill-0, #6B7C8C)"/>
</svg>
