<svg preserveAspectRatio="none" width="100%" height="100%" overflow="visible" style="display: block;" viewBox="0 0 8 10" fill="none" xmlns="http://www.w3.org/2000/svg">
<path id="Vector" d="M0 10V3C0 2.725 0.0979167 2.48958 0.29375 2.29375C0.489583 2.09792 0.725 2 1 2H5C5.275 2 5.51042 2.09792 5.70625 2.29375C5.90208 2.48958 6 2.725 6 3V10L3 8.5L0 10ZM1 8.4875L3 7.4125L5 8.4875V3H1V8.4875ZM7 8V1H1.5V0H7C7.275 0 7.51042 0.0979167 7.70625 0.29375C7.90208 0.489583 8 0.725 8 1V8H7Z" fill="var(--fill-0, #092540)"/>
</svg>
