<svg preserveAspectRatio="none" width="100%" height="100%" overflow="visible" style="display: block;" viewBox="0 0 21 22" fill="none" xmlns="http://www.w3.org/2000/svg">
<path id="IconShape" d="M14.4004 6C15.0514 6.00019 15.614 6.47275 15.7402 7.15039L15.9258 8.46875C16.0602 8.5407 16.1917 8.61845 16.3203 8.7002L17.5791 8.19336C18.1906 7.96421 18.8791 8.20157 19.2256 8.7793L20.6182 11.1855C20.9631 11.7608 20.8258 12.4908 20.2969 12.9375L19.2451 13.7617C19.2487 13.8419 19.25 13.9212 19.25 14C19.25 14.0756 19.2485 14.1517 19.2451 14.2285L20.3262 15.0762C20.8261 15.4993 20.963 16.2294 20.626 16.791L19.2178 19.2246C18.8793 19.7886 18.1902 20.0259 17.5566 19.7881L16.3193 19.29C16.1918 19.3706 16.0599 19.4467 15.9258 19.5186L15.7354 20.874C15.6218 21.5173 15.06 21.9998 14.4004 22H11.6006C10.9494 22 10.386 21.5274 10.2598 20.8496L10.0742 19.5312C9.93982 19.4593 9.80824 19.3815 9.67969 19.2998L8.4209 19.8066C7.80948 20.0356 7.12092 19.7983 6.77441 19.2207L5.38281 16.8145C5.03758 16.2391 5.17403 15.5093 5.70312 15.0625L6.75586 14.2383C6.75224 14.1581 6.75 14.0788 6.75 14C6.75 13.9244 6.75154 13.8483 6.75488 13.7715L5.67383 12.9238C5.17384 12.5007 5.03787 11.7706 5.375 11.209L6.7832 8.77539C7.12173 8.2116 7.80988 7.97417 8.44336 8.21191L9.68164 8.70996C9.80908 8.62952 9.94019 8.55324 10.0742 8.48145L10.2656 7.12598C10.3793 6.48267 10.9408 6 11.6006 6H14.4004ZM11.9023 9.84766L11.3838 10.0693C11.0314 10.2204 10.7072 10.4085 10.4238 10.6289L9.9707 10.9824L9.4375 10.7676L8.22363 10.2793L7.38672 11.7256L8.86816 12.8867L8.79102 13.4551C8.76413 13.6522 8.75 13.8336 8.75 14C8.75 14.1661 8.76421 14.3476 8.79199 14.5605L8.86523 15.126L8.41699 15.4775L7.38672 16.2842L8.22266 17.7305L9.9707 17.0273L10.4238 17.3809C10.7181 17.6097 11.0324 17.7937 11.376 17.9375L11.9014 18.1572L11.9805 18.7207L12.1592 20H13.8389L14.0986 18.1523L14.6162 17.9307C14.9686 17.7796 15.2928 17.5914 15.5762 17.3711L16.0303 17.0176L16.5635 17.2324L17.7773 17.7207L18.6143 16.2744L17.1318 15.1133L17.209 14.5449C17.2359 14.3478 17.25 14.1664 17.25 14C17.25 13.834 17.2368 13.6524 17.209 13.4395L17.1348 12.874L17.583 12.5225L18.6143 11.7158L17.7773 10.2695L16.0303 10.9727L15.5762 10.6191C15.2818 10.3902 14.9676 10.2063 14.624 10.0625L14.0996 9.84277L14.0195 9.2793L13.8408 8H12.1621L11.9023 9.84766ZM13 12C14.1045 12.0001 15 12.8955 15 14C15 15.1045 14.1045 15.9999 13 16C11.8955 15.9999 11 15.1045 11 14C11 12.8955 11.8955 12.0001 13 12ZM17 0V4H15V2H12V4H10V2H7V6H5V2H2V14H0V0H17Z" fill="var(--fill-0, #6B7C8C)"/>
</svg>
