<svg preserveAspectRatio="none" width="100%" height="100%" overflow="visible" style="display: block;" viewBox="0 0 14 14" fill="none" xmlns="http://www.w3.org/2000/svg">
<g id="circle">
<mask id="path-1-outside-1_174_78326" maskUnits="userSpaceOnUse" x="0" y="0" width="14" height="14" fill="black">
<rect fill="white" width="14" height="14"/>
<path fill-rule="evenodd" clip-rule="evenodd" d="M1 7C1 10.3133 3.68667 13 7 13C10.3133 13 13 10.3133 13 7C13 3.686 10.3133 1 7 1C3.68667 1 1 3.686 1 7V7ZM4.21733 3.26C4.99533 2.68067 5.956 2.33333 7 2.33333C9.57733 2.33333 11.6667 4.42267 11.6667 7C11.6667 8.04467 11.32 9.00533 10.74 9.78267L4.21733 3.26ZM2.33333 7C2.33333 5.948 2.686 4.98067 3.27267 4.20067L9.79933 10.7273C9.01867 11.3147 8.05133 11.6667 7 11.6667C4.42267 11.6667 2.33333 9.57733 2.33333 7V7Z"/>
</mask>
<path fill-rule="evenodd" clip-rule="evenodd" d="M1 7C1 10.3133 3.68667 13 7 13C10.3133 13 13 10.3133 13 7C13 3.686 10.3133 1 7 1C3.68667 1 1 3.686 1 7V7ZM4.21733 3.26C4.99533 2.68067 5.956 2.33333 7 2.33333C9.57733 2.33333 11.6667 4.42267 11.6667 7C11.6667 8.04467 11.32 9.00533 10.74 9.78267L4.21733 3.26ZM2.33333 7C2.33333 5.948 2.686 4.98067 3.27267 4.20067L9.79933 10.7273C9.01867 11.3147 8.05133 11.6667 7 11.6667C4.42267 11.6667 2.33333 9.57733 2.33333 7V7Z" fill="url(#paint0_linear_174_78326)"/>
<path d="M4.21733 3.26L3.62009 2.45794L2.69209 3.14897L3.51023 3.96711L4.21733 3.26ZM10.74 9.78267L10.0329 10.4898L10.8502 11.3071L11.5415 10.3807L10.74 9.78267ZM3.27267 4.20067L3.97977 3.49356L3.1656 2.67938L2.47349 3.59957L3.27267 4.20067ZM9.79933 10.7273L10.4005 11.5264L11.3205 10.8343L10.5064 10.0202L9.79933 10.7273ZM1 7H0C0 10.8656 3.13438 14 7 14V13V12C4.23895 12 2 9.76105 2 7H1ZM7 13V14C10.8656 14 14 10.8656 14 7H13H12C12 9.76105 9.76105 12 7 12V13ZM13 7H14C14 3.13364 10.8655 0 7 0V1V2C9.76112 2 12 4.23836 12 7H13ZM7 1V0C3.13445 0 0 3.13364 0 7H1H2C2 4.23836 4.23888 2 7 2V1ZM4.21733 3.26L4.81458 4.06206C5.42911 3.60445 6.18231 3.33333 7 3.33333V2.33333V1.33333C5.72969 1.33333 4.56155 1.75689 3.62009 2.45794L4.21733 3.26ZM7 2.33333V3.33333C9.02505 3.33333 10.6667 4.97495 10.6667 7H11.6667H12.6667C12.6667 3.87038 10.1296 1.33333 7 1.33333V2.33333ZM11.6667 7H10.6667C10.6667 7.81891 10.3959 8.57166 9.93852 9.18465L10.74 9.78267L11.5415 10.3807C12.2441 9.439 12.6667 8.27043 12.6667 7H11.6667ZM10.74 9.78267L11.4471 9.07556L4.92444 2.55289L4.21733 3.26L3.51023 3.96711L10.0329 10.4898L10.74 9.78267ZM2.33333 7H3.33333C3.33333 6.17595 3.60868 5.41756 4.07185 4.80176L3.27267 4.20067L2.47349 3.59957C1.76332 4.54377 1.33333 5.72005 1.33333 7H2.33333ZM3.27267 4.20067L2.56556 4.90777L9.09223 11.4344L9.79933 10.7273L10.5064 10.0202L3.97977 3.49356L3.27267 4.20067ZM9.79933 10.7273L9.19813 9.92823C8.58194 10.3918 7.82365 10.6667 7 10.6667V11.6667V12.6667C8.27902 12.6667 9.45539 12.2375 10.4005 11.5264L9.79933 10.7273ZM7 11.6667V10.6667C4.97495 10.6667 3.33333 9.02505 3.33333 7H2.33333H1.33333C1.33333 10.1296 3.87038 12.6667 7 12.6667V11.6667Z" fill="var(--stroke-0, white)" mask="url(#path-1-outside-1_174_78326)"/>
</g>
<defs>
<linearGradient id="paint0_linear_174_78326" x1="1.17775" y1="1" x2="1.17775" y2="12.6445" gradientUnits="userSpaceOnUse">
<stop stop-color="#8D8D8D"/>
<stop offset="1" stop-color="#B2B2B2"/>
</linearGradient>
</defs>
</svg>
