<svg preserveAspectRatio="none" width="100%" height="100%" overflow="visible" style="display: block;" viewBox="0 0 22 22" fill="none" xmlns="http://www.w3.org/2000/svg">
<path id="IconShape" d="M20 7C21.1046 7 22 7.89543 22 9V20C22 21.1046 21.1046 22 20 22H14C12.8954 22 12 21.1046 12 20V9C12 7.89543 12.8954 7 14 7H20ZM14 18V20H20V18H14ZM16 0C17.1046 0 18 0.89543 18 2V5H16V2H2V7H10V9H2V11H10V18H5V16H8V13H2C0.89543 13 0 12.1046 0 11V2C0 0.89543 0.89543 0 2 0H16ZM14 16H20V9H14V16Z" fill="var(--fill-0, #B6BEC6)"/>
</svg>
