<svg preserveAspectRatio="none" width="100%" height="100%" overflow="visible" style="display: block;" viewBox="0 0 24 24" fill="none" xmlns="http://www.w3.org/2000/svg">
<g id="Pointer" filter="url(#filter0_d_174_79699)">
<mask id="path-1-outside-1_174_79699" maskUnits="userSpaceOnUse" x="4" y="3" width="16" height="16" fill="black">
<rect fill="white" x="4" y="3" width="16" height="16"/>
<path fill-rule="evenodd" clip-rule="evenodd" d="M10.0303 18C10.0303 18 7.81107 16.3013 7.03031 15C6.24955 13.6987 4.77006 12.041 5.03031 11C5.29056 9.95899 6.24955 9.63091 7.03031 10.4117C7.81107 11.1924 8.33701 12.8841 8.85751 12.6238C9.37802 12.3636 8.98764 9.89117 8.46713 8.45978C7.94663 7.02839 7.40396 4 8.46713 4C9.53031 4 9.53031 5 10.0303 6.5C10.5303 8 10.1399 10 10.5303 10C10.9207 10 11.0697 9.65063 11.0697 9C11.0697 8.82319 11.1043 8.67375 11.1747 8.54986C11.3633 8.21788 11.8084 8.0694 12.5303 8.0694C13.5216 8.0694 13.0303 10 13.5303 10C14.0303 10 14.0303 10.041 14.0303 9C14.0303 7.95899 14.4939 8.0694 15.4939 8.0694C16.4939 8.0694 16.0098 10 16.5303 10C17.0508 10 16.5303 9 17.0303 9C17.5303 9 18.0303 9.15773 18.0303 11.5C18.0303 13.8423 18.3111 13.959 17.5303 15C16.7496 16.041 16.0303 17 16.0303 17C16.0303 17 16.0303 18 15.4939 18C14.9576 18 14.6809 17 14.0303 17C13.3797 17 13.0303 18 13.0303 18H10.0303ZM16.0303 16V12H15.0303V16H16.0303ZM13.0303 15C13.0303 15.2709 13.2622 16 13.5303 16C13.8065 16 14.0303 15.2754 14.0303 15V13C14.0303 12.7291 13.7984 12 13.5303 12C13.2542 12 13.0303 12.7246 13.0303 13V15ZM11.0303 15C11.0303 15.2709 11.2622 16 11.5303 16C11.8065 16 12.0303 15.2754 12.0303 15V13C12.0303 12.7291 11.7984 12 11.5303 12C11.2542 12 11.0303 12.7246 11.0303 13V15Z"/>
</mask>
<path fill-rule="evenodd" clip-rule="evenodd" d="M10.0303 18C10.0303 18 7.81107 16.3013 7.03031 15C6.24955 13.6987 4.77006 12.041 5.03031 11C5.29056 9.95899 6.24955 9.63091 7.03031 10.4117C7.81107 11.1924 8.33701 12.8841 8.85751 12.6238C9.37802 12.3636 8.98764 9.89117 8.46713 8.45978C7.94663 7.02839 7.40396 4 8.46713 4C9.53031 4 9.53031 5 10.0303 6.5C10.5303 8 10.1399 10 10.5303 10C10.9207 10 11.0697 9.65063 11.0697 9C11.0697 8.82319 11.1043 8.67375 11.1747 8.54986C11.3633 8.21788 11.8084 8.0694 12.5303 8.0694C13.5216 8.0694 13.0303 10 13.5303 10C14.0303 10 14.0303 10.041 14.0303 9C14.0303 7.95899 14.4939 8.0694 15.4939 8.0694C16.4939 8.0694 16.0098 10 16.5303 10C17.0508 10 16.5303 9 17.0303 9C17.5303 9 18.0303 9.15773 18.0303 11.5C18.0303 13.8423 18.3111 13.959 17.5303 15C16.7496 16.041 16.0303 17 16.0303 17C16.0303 17 16.0303 18 15.4939 18C14.9576 18 14.6809 17 14.0303 17C13.3797 17 13.0303 18 13.0303 18H10.0303ZM16.0303 16V12H15.0303V16H16.0303ZM13.0303 15C13.0303 15.2709 13.2622 16 13.5303 16C13.8065 16 14.0303 15.2754 14.0303 15V13C14.0303 12.7291 13.7984 12 13.5303 12C13.2542 12 13.0303 12.7246 13.0303 13V15ZM11.0303 15C11.0303 15.2709 11.2622 16 11.5303 16C11.8065 16 12.0303 15.2754 12.0303 15V13C12.0303 12.7291 11.7984 12 11.5303 12C11.2542 12 11.0303 12.7246 11.0303 13V15Z" fill="var(--fill-0, white)"/>
<path d="M10.0303 18L9.42248 18.7941L9.69151 19H10.0303V18ZM7.03031 15L6.17282 15.5145L6.17282 15.5145L7.03031 15ZM5.03031 11L6.00045 11.2425L6.00045 11.2425L5.03031 11ZM7.03031 10.4117L6.3232 11.1188L6.3232 11.1188L7.03031 10.4117ZM8.85751 12.6238L8.4103 11.7294L8.4103 11.7294L8.85751 12.6238ZM8.46713 8.45978L9.40693 8.11804L9.40693 8.11804L8.46713 8.45978ZM8.46713 4L8.46713 3L8.46713 3L8.46713 4ZM10.5303 10L10.5303 11L10.5303 11L10.5303 10ZM11.0697 9L10.0697 9L11.0697 9ZM11.1747 8.54986L10.3052 8.05587L10.3052 8.05587L11.1747 8.54986ZM12.5303 8.0694L12.5303 7.0694L12.5303 7.0694L12.5303 8.0694ZM13.5303 10L13.5303 9L13.5303 9L13.5303 10ZM14.0303 9L13.0303 9L14.0303 9ZM15.4939 8.0694L15.4939 7.0694L15.4939 7.0694L15.4939 8.0694ZM16.5303 10L16.5303 11L16.5303 11L16.5303 10ZM17.0303 9L17.0303 8L17.0303 8L17.0303 9ZM18.0303 11.5L17.0303 11.5L17.0303 11.5L18.0303 11.5ZM16.0303 17L15.2303 16.4L15.0303 16.6667V17H16.0303ZM15.4939 18L15.4939 17L15.4939 17L15.4939 18ZM14.0303 17L14.0303 16L14.0303 17ZM13.0303 18V19H13.7402L13.9744 18.3298L13.0303 18ZM16.0303 16V17H17.0303V16H16.0303ZM16.0303 12H17.0303V11H16.0303V12ZM15.0303 12V11H14.0303V12H15.0303ZM15.0303 16H14.0303V17H15.0303V16ZM10.0303 18C10.6381 17.2059 10.6382 17.206 10.6383 17.206C10.6383 17.206 10.6383 17.2061 10.6383 17.2061C10.6384 17.2061 10.6384 17.2061 10.6384 17.2061C10.6383 17.2061 10.6381 17.2059 10.6378 17.2057C10.6371 17.2052 10.636 17.2043 10.6343 17.203C10.6309 17.2004 10.6255 17.1962 10.6182 17.1905C10.6036 17.1792 10.5813 17.1618 10.5521 17.1388C10.4939 17.093 10.4086 17.0251 10.3033 16.9392C10.0922 16.7671 9.80334 16.5249 9.49217 16.2448C8.8424 15.6598 8.1941 14.996 7.8878 14.4855L7.03031 15L6.17282 15.5145C6.64728 16.3053 7.49897 17.1415 8.15402 17.7312C8.49525 18.0384 8.80999 18.3022 9.03942 18.4893C9.15438 18.583 9.24856 18.658 9.31471 18.7101C9.3478 18.7361 9.37393 18.7565 9.39218 18.7707C9.4013 18.7778 9.40847 18.7833 9.41355 18.7872C9.4161 18.7892 9.41812 18.7907 9.41962 18.7919C9.42036 18.7924 9.42098 18.7929 9.42145 18.7933C9.42169 18.7935 9.4219 18.7936 9.42207 18.7938C9.42215 18.7938 9.42226 18.7939 9.4223 18.7939C9.4224 18.794 9.42248 18.7941 10.0303 18ZM7.03031 15L7.8878 14.4855C7.67349 14.1283 7.41598 13.7543 7.17522 13.405C6.927 13.0448 6.69291 12.7057 6.49174 12.3785C6.28866 12.0483 6.14555 11.772 6.06565 11.5468C5.98235 11.312 6.00327 11.2313 6.00045 11.2425L5.03031 11L4.06017 10.7575C3.92723 11.2892 4.03548 11.8061 4.18079 12.2156C4.3295 12.6347 4.55627 13.0493 4.78813 13.4263C5.02189 13.8064 5.2878 14.1907 5.52843 14.5399C5.77654 14.8999 5.99675 15.221 6.17282 15.5145L7.03031 15ZM5.03031 11L6.00045 11.2425C6.06865 10.9697 6.17603 10.964 6.13096 10.9779C6.11468 10.983 6.10996 10.9771 6.13062 10.9835C6.15502 10.991 6.22444 11.02 6.3232 11.1188L7.03031 10.4117L7.73742 9.70457C7.1495 9.11665 6.34341 8.8184 5.53928 9.06744C4.75446 9.3105 4.25222 9.98925 4.06017 10.7575L5.03031 11ZM7.03031 10.4117L6.3232 11.1188C6.60033 11.3959 6.8354 11.8443 7.18507 12.4244C7.32759 12.6608 7.5232 12.9738 7.75645 13.2062C7.87594 13.3252 8.06744 13.4876 8.33287 13.5799C8.63698 13.6858 8.98325 13.679 9.30473 13.5182L8.85751 12.6238L8.4103 11.7294C8.60165 11.6337 8.81762 11.631 8.99029 11.6911C9.12428 11.7377 9.18319 11.8045 9.16798 11.7893C9.13183 11.7533 9.04957 11.6434 8.89794 11.3919C8.65932 10.996 8.24104 10.2082 7.73742 9.70457L7.03031 10.4117ZM8.85751 12.6238L9.30473 13.5182C9.68038 13.3304 9.85791 13.0055 9.94001 12.8003C10.0269 12.5832 10.0655 12.3562 10.0845 12.1621C10.123 11.7692 10.0984 11.3106 10.0459 10.8641C9.93993 9.96384 9.6956 8.91188 9.40693 8.11804L8.46713 8.45978L7.52734 8.80152C7.75917 9.43907 7.97028 10.339 8.05955 11.0978C8.10462 11.4809 8.11252 11.7787 8.09406 11.9672C8.08459 12.0639 8.07245 12.084 8.08305 12.0575C8.0889 12.0429 8.16477 11.8522 8.4103 11.7294L8.85751 12.6238ZM8.46713 8.45978L9.40693 8.11804C9.17472 7.47947 8.9311 6.45514 8.87064 5.62084C8.83941 5.18996 8.86547 4.91074 8.90442 4.77893C8.92261 4.71738 8.9214 4.76652 8.84644 4.84123C8.74638 4.94095 8.60095 5 8.46713 5L8.46713 4L8.46713 3C8.06752 3 7.70648 3.15369 7.43463 3.42462C7.18788 3.67053 7.05872 3.96745 6.9864 4.21218C6.84435 4.69292 6.83926 5.26025 6.87587 5.7654C6.95107 6.80314 7.23904 8.0087 7.52734 8.80152L8.46713 8.45978ZM8.46713 4L8.46713 5C8.56714 5 8.54337 5.01975 8.49222 4.98165C8.45803 4.95618 8.48481 4.95642 8.54684 5.0953C8.6114 5.23984 8.67418 5.43958 8.763 5.75091C8.84621 6.04255 8.94777 6.41465 9.08163 6.81623L10.0303 6.5L10.979 6.18377C10.8629 5.83535 10.7769 5.51995 10.6863 5.20222C10.6012 4.90417 10.5038 4.57266 10.373 4.2797C10.2396 3.98108 10.0358 3.63757 9.68697 3.37773C9.32118 3.10525 8.89872 3 8.46713 3L8.46713 4ZM10.0303 6.5L9.08163 6.81623C9.27651 7.40087 9.30756 8.12723 9.32162 8.83243C9.32782 9.14378 9.33115 9.5104 9.36538 9.78691C9.38142 9.91652 9.41503 10.1341 9.51577 10.3439C9.62468 10.5708 9.93306 11 10.5303 11L10.5303 10L10.5303 9C11.03 9 11.2651 9.3667 11.3187 9.47832C11.3641 9.5729 11.3603 9.62254 11.3502 9.54121C11.3322 9.39585 11.3287 9.16872 11.3212 8.79257C11.3079 8.12277 11.2841 7.09913 10.979 6.18377L10.0303 6.5ZM10.5303 10L10.5303 11C10.7815 11 11.0545 10.942 11.3082 10.7839C11.5604 10.6267 11.7287 10.411 11.8372 10.1984C12.0347 9.81114 12.0697 9.36317 12.0697 9L11.0697 9L10.0697 9C10.0697 9.12778 10.0621 9.21536 10.0531 9.2713C10.0436 9.33012 10.0367 9.3265 10.0556 9.28959C10.078 9.24567 10.1359 9.15793 10.2503 9.08658C10.3663 9.0143 10.4743 9 10.5303 9L10.5303 10ZM11.0697 9L12.0697 9C12.0697 8.97647 12.072 8.97213 12.0697 8.98203C12.0671 8.99299 12.0602 9.01569 12.0442 9.04385L11.1747 8.54986L10.3052 8.05587C10.1304 8.36361 10.0697 8.69278 10.0697 9L11.0697 9ZM11.1747 8.54986L12.0442 9.04385C11.9899 9.13945 11.9231 9.14987 11.9823 9.12921C12.0583 9.10267 12.2244 9.0694 12.5303 9.0694L12.5303 8.0694L12.5303 7.0694C11.7898 7.0694 10.7925 7.19835 10.3052 8.05587L11.1747 8.54986ZM12.5303 8.0694V9.0694C12.4833 9.0694 12.3928 9.05518 12.298 8.9944C12.2098 8.93795 12.1705 8.87497 12.1615 8.85891C12.1613 8.8585 12.1921 8.93023 12.2231 9.16533C12.2413 9.30372 12.2747 9.68033 12.3258 9.91284C12.3537 10.0399 12.4126 10.269 12.5609 10.4842C12.7423 10.7477 13.0718 11 13.5303 11L13.5303 10L13.5303 9C13.8638 9 14.0993 9.19198 14.208 9.34986C14.2836 9.45953 14.2911 9.53773 14.2792 9.48385C14.2508 9.35437 14.2513 9.24833 14.206 8.90407C14.1733 8.65652 14.1099 8.2456 13.9074 7.8832C13.7972 7.68615 13.6297 7.47234 13.3768 7.31031C13.1171 7.14395 12.8251 7.0694 12.5303 7.0694V8.0694ZM13.5303 10V11C13.5865 11 13.8107 11.0072 13.9933 10.9749C14.1111 10.9541 14.2808 10.9088 14.4539 10.7961C14.6376 10.6765 14.7682 10.5182 14.8545 10.3527C14.9958 10.0816 15.0133 9.79061 15.021 9.65015C15.0307 9.47354 15.0303 9.24779 15.0303 9L14.0303 9L13.0303 9C13.0303 9.27272 13.0299 9.43222 13.024 9.5407C13.0212 9.59215 13.0183 9.60475 13.02 9.59531C13.0213 9.58839 13.0334 9.51948 13.0811 9.42806C13.1361 9.32251 13.2277 9.2079 13.3626 9.12006C13.4868 9.03919 13.5979 9.01377 13.6454 9.00539C13.6882 8.99783 13.7093 8.99928 13.6763 8.99991C13.6409 9.00058 13.6102 9 13.5303 9V10ZM14.0303 9L15.0303 9C15.0303 8.90471 15.0358 8.8448 15.0409 8.81087C15.0461 8.77673 15.0488 8.78345 15.0356 8.81382C15.0206 8.84823 14.9896 8.90294 14.9338 8.95822C14.8779 9.01368 14.8202 9.04681 14.7787 9.06446C14.7418 9.08017 14.7249 9.08063 14.7452 9.07746C14.7658 9.07425 14.8054 9.07015 14.8755 9.0679C14.9454 9.06565 15.0278 9.06567 15.1349 9.06665C15.236 9.06757 15.3629 9.0694 15.4939 9.0694L15.4939 8.0694L15.4939 7.0694C15.293 7.0694 15.0133 7.06244 14.8113 7.06893C14.6029 7.07563 14.2951 7.0967 13.9955 7.22418C13.6403 7.37534 13.3626 7.64542 13.2012 8.01702C13.0618 8.33798 13.0303 8.68674 13.0303 9L14.0303 9ZM15.4939 8.0694V9.0694C15.4497 9.0694 15.3623 9.05605 15.2698 8.99755C15.1837 8.94313 15.1449 8.88229 15.1362 8.86699C15.1298 8.85573 15.1403 8.87108 15.1567 8.93348C15.1725 8.99386 15.1871 9.07226 15.202 9.17628C15.2222 9.31775 15.2596 9.69258 15.317 9.93169C15.3483 10.0622 15.4132 10.2923 15.5696 10.5066C15.7601 10.7676 16.0889 11 16.5303 11L16.5303 10L16.5303 9C16.8416 9 17.0717 9.17212 17.1851 9.32751C17.2644 9.43617 17.2739 9.51553 17.2618 9.465C17.2323 9.34212 17.2307 9.2343 17.1819 8.89312C17.1466 8.64658 17.0791 8.23609 16.8729 7.87512C16.7608 7.67883 16.5917 7.46716 16.3387 7.30716C16.0792 7.14309 15.7882 7.0694 15.4939 7.0694V8.0694ZM16.5303 10L16.5303 11C16.7595 11 17.0329 10.9424 17.2797 10.7578C17.5216 10.5769 17.6429 10.3448 17.7034 10.1687C17.7612 10.0006 17.7772 9.84503 17.7834 9.74672C17.7898 9.64567 17.7885 9.54701 17.7879 9.48975C17.7872 9.41787 17.7872 9.38955 17.7883 9.36865C17.7895 9.34548 17.7902 9.38742 17.7679 9.45778C17.7438 9.53405 17.6766 9.69339 17.5063 9.82785C17.3272 9.96919 17.1402 10 17.0303 10L17.0303 9L17.0303 8C16.7954 8 16.5153 8.06206 16.267 8.25808C16.0274 8.44723 15.9148 8.6847 15.861 8.85472C15.8091 9.01883 15.7959 9.17015 15.791 9.26416C15.7859 9.36045 15.7875 9.45713 15.7881 9.51025C15.7887 9.57799 15.7884 9.60433 15.7874 9.62047C15.7862 9.63935 15.7864 9.59318 15.812 9.51881C15.8403 9.43649 15.913 9.28251 16.0818 9.15625C16.2555 9.02633 16.4313 9 16.5303 9L16.5303 10ZM17.0303 9V10C17.116 10 17.0722 10.0105 16.9959 9.97707C16.8915 9.9313 16.8463 9.86209 16.8469 9.86316C16.8602 9.88659 16.9121 9.99729 16.9568 10.2782C17.0004 10.5527 17.0303 10.9454 17.0303 11.5L18.0303 11.5L19.0303 11.5C19.0303 10.3192 18.9153 9.45887 18.5887 8.88014C18.4018 8.54899 18.1378 8.29395 17.7991 8.14542C17.4884 8.0092 17.1946 8 17.0303 8V9ZM18.0303 11.5L17.0303 11.5C17.0303 12.1065 17.0486 12.5694 17.0628 12.9282C17.0776 13.3035 17.0849 13.5128 17.0749 13.6775C17.0667 13.8132 17.0481 13.8811 17.0193 13.948C16.9822 14.0341 16.9084 14.1625 16.7303 14.4L17.5303 15L18.3303 15.6C18.5426 15.317 18.7265 15.0404 18.8563 14.7387C18.9945 14.4177 19.0521 14.1149 19.0713 13.7985C19.0887 13.5111 19.0746 13.187 19.0612 12.8491C19.0472 12.4946 19.0303 12.0647 19.0303 11.5L18.0303 11.5ZM17.5303 15L16.7303 14.4C16.3399 14.9205 15.9649 15.4205 15.6875 15.7904C15.5488 15.9753 15.4345 16.1277 15.3549 16.2339C15.3151 16.287 15.2839 16.3285 15.2627 16.3568C15.2521 16.3709 15.244 16.3817 15.2386 16.389C15.2358 16.3926 15.2338 16.3954 15.2324 16.3972C15.2317 16.3981 15.2312 16.3988 15.2308 16.3993C15.2307 16.3995 15.2305 16.3997 15.2304 16.3998C15.2304 16.3999 15.2304 16.3999 15.2303 16.4C15.2303 16.4 15.2303 16.4 15.2303 16.4C15.2303 16.4 15.2303 16.4 16.0303 17C16.8303 17.6 16.8303 17.6 16.8303 17.6C16.8303 17.6 16.8303 17.6 16.8303 17.6C16.8304 17.5999 16.8304 17.5999 16.8304 17.5998C16.8305 17.5997 16.8307 17.5995 16.8308 17.5993C16.8312 17.5988 16.8317 17.5981 16.8324 17.5972C16.8338 17.5954 16.8358 17.5926 16.8386 17.589C16.844 17.5817 16.8521 17.5709 16.8627 17.5568C16.8839 17.5285 16.9151 17.487 16.9549 17.4339C17.0345 17.3277 17.1488 17.1753 17.2875 16.9904C17.5649 16.6205 17.9399 16.1205 18.3303 15.6L17.5303 15ZM16.0303 17C15.0303 17 15.0303 16.9997 15.0303 16.9995C15.0303 16.9994 15.0303 16.9992 15.0303 16.999C15.0303 16.9987 15.0303 16.9984 15.0303 16.9981C15.0303 16.9975 15.0303 16.9969 15.0303 16.9965C15.0303 16.9955 15.0303 16.9948 15.0303 16.9942C15.0303 16.9931 15.0303 16.9929 15.0303 16.9934C15.0303 16.9943 15.0302 16.9983 15.03 17.0047C15.0295 17.0177 15.0284 17.0397 15.0259 17.0672C15.0206 17.1269 15.0109 17.1905 14.9974 17.241C14.9804 17.3044 14.9759 17.2778 15.0249 17.2169C15.0547 17.1798 15.111 17.1223 15.2008 17.0744C15.2955 17.024 15.3985 17 15.4939 17V18V19C15.9913 19 16.3594 18.7488 16.5832 18.4706C16.783 18.2222 16.8791 17.9456 16.9291 17.759C16.9826 17.5595 17.0065 17.3731 17.018 17.2453C17.0239 17.1791 17.0269 17.1229 17.0285 17.0813C17.0293 17.0603 17.0298 17.0428 17.03 17.0291C17.0301 17.0223 17.0302 17.0164 17.0303 17.0115C17.0303 17.0091 17.0303 17.0069 17.0303 17.005C17.0303 17.004 17.0303 17.0031 17.0303 17.0023C17.0303 17.0019 17.0303 17.0015 17.0303 17.0011C17.0303 17.0009 17.0303 17.0006 17.0303 17.0005C17.0303 17.0003 17.0303 17 16.0303 17ZM15.4939 18L15.4939 17C15.693 17 15.7977 17.0983 15.7739 17.0783C15.7372 17.0474 15.6932 16.9973 15.5594 16.8436C15.4554 16.7241 15.2789 16.5208 15.0556 16.3544C14.8151 16.1752 14.4708 16 14.0303 16L14.0303 17L14.0303 18C13.9152 18 13.8494 17.9498 13.8605 17.9581C13.8889 17.9792 13.937 18.0259 14.0506 18.1564C14.1343 18.2527 14.3007 18.4526 14.487 18.6092C14.6863 18.7767 15.0268 19 15.4939 19L15.4939 18ZM14.0303 17L14.0303 16C13.1706 16 12.6595 16.6411 12.4574 16.9407C12.3336 17.1242 12.2439 17.3007 12.1858 17.4275C12.1562 17.4923 12.1332 17.5476 12.1168 17.589C12.1086 17.6097 12.1019 17.6272 12.0969 17.6409C12.0943 17.6477 12.0922 17.6536 12.0904 17.6585C12.0895 17.661 12.0887 17.6632 12.088 17.6651C12.0877 17.6661 12.0874 17.667 12.0871 17.6678C12.0869 17.6683 12.0868 17.6687 12.0867 17.6691C12.0866 17.6693 12.0865 17.6695 12.0865 17.6696C12.0864 17.6699 12.0863 17.6702 13.0303 18C13.9744 18.3298 13.9743 18.3301 13.9742 18.3303C13.9741 18.3304 13.9741 18.3307 13.974 18.3308C13.9739 18.3312 13.9738 18.3315 13.9737 18.3318C13.9735 18.3324 13.9733 18.3329 13.9731 18.3334C13.9727 18.3344 13.9725 18.3352 13.9723 18.3357C13.9719 18.3369 13.9717 18.3371 13.9719 18.3366C13.9723 18.3357 13.9738 18.3317 13.9764 18.3251C13.9817 18.3118 13.991 18.289 14.0043 18.26C14.0321 18.1993 14.0704 18.1258 14.1153 18.0593C14.1372 18.0269 14.1572 18.0011 14.1744 17.9819C14.1828 17.9725 14.1895 17.9657 14.1946 17.961C14.1996 17.9562 14.2021 17.9543 14.2019 17.9545C14.2009 17.9552 14.1386 18 14.0303 18L14.0303 17ZM13.0303 18V17H10.0303V18V19H13.0303V18ZM16.0303 16H17.0303V12H16.0303H15.0303V16H16.0303ZM16.0303 12V11H15.0303V12V13H16.0303V12ZM15.0303 12H14.0303V16H15.0303H16.0303V12H15.0303ZM15.0303 16V17H16.0303V16V15H15.0303V16ZM13.0303 15H12.0303C12.0303 15.317 12.1377 15.7051 12.2589 15.9914C12.3235 16.1441 12.4217 16.3399 12.5654 16.5154C12.6808 16.6564 13.002 17 13.5303 17V16V15C13.7316 15 13.8832 15.0698 13.9707 15.1257C14.054 15.179 14.099 15.2315 14.1128 15.2483C14.1376 15.2786 14.1275 15.2752 14.1007 15.2118C14.0777 15.1576 14.0567 15.0927 14.0423 15.0338C14.0354 15.0054 14.0315 14.9845 14.0298 14.9727C14.0275 14.9576 14.0303 14.9687 14.0303 15H13.0303ZM13.5303 16V17C14.0502 17 14.3713 16.6699 14.4951 16.5203C14.6423 16.3426 14.7413 16.1443 14.8059 15.9903C14.9283 15.6987 15.0303 15.3132 15.0303 15H14.0303H13.0303C13.0303 14.9593 13.0346 14.9716 13.018 15.0416C13.0041 15.1004 12.9837 15.164 12.9618 15.2163C12.936 15.2778 12.9272 15.2779 12.9547 15.2447C12.9701 15.2261 13.0165 15.1732 13.1009 15.1204C13.1901 15.0647 13.3378 15 13.5303 15V16ZM14.0303 15H15.0303V13H14.0303H13.0303V15H14.0303ZM14.0303 13H15.0303C15.0303 12.683 14.9229 12.2949 14.8017 12.0086C14.7371 11.8559 14.639 11.6601 14.4952 11.4846C14.3798 11.3436 14.0586 11 13.5303 11V12V13C13.329 13 13.1774 12.9302 13.0899 12.8743C13.0067 12.821 12.9616 12.7685 12.9478 12.7517C12.923 12.7214 12.9331 12.7248 12.9599 12.7882C12.9829 12.8424 13.004 12.9073 13.0183 12.9662C13.0252 12.9946 13.0291 13.0155 13.0308 13.0273C13.0331 13.0424 13.0303 13.0313 13.0303 13H14.0303ZM13.5303 12V11C13.0104 11 12.6894 11.3301 12.5655 11.4797C12.4183 11.6574 12.3193 11.8557 12.2547 12.0097C12.1323 12.3013 12.0303 12.6868 12.0303 13H13.0303H14.0303C14.0303 13.0407 14.026 13.0284 14.0426 12.9584C14.0565 12.8996 14.0769 12.836 14.0988 12.7837C14.1247 12.7222 14.1334 12.7221 14.1059 12.7553C14.0905 12.7739 14.0441 12.8268 13.9597 12.8796C13.8705 12.9353 13.7228 13 13.5303 13V12ZM13.0303 13H12.0303V15H13.0303H14.0303V13H13.0303ZM11.0303 15H10.0303C10.0303 15.317 10.1377 15.7051 10.2589 15.9914C10.3235 16.1441 10.4217 16.3399 10.5654 16.5154C10.6808 16.6564 11.002 17 11.5303 17V16V15C11.7316 15 11.8832 15.0698 11.9707 15.1257C12.054 15.179 12.099 15.2315 12.1128 15.2483C12.1376 15.2786 12.1275 15.2752 12.1007 15.2118C12.0777 15.1576 12.0567 15.0927 12.0423 15.0338C12.0354 15.0054 12.0315 14.9845 12.0298 14.9727C12.0275 14.9576 12.0303 14.9687 12.0303 15H11.0303ZM11.5303 16V17C12.0502 17 12.3713 16.6699 12.4951 16.5203C12.6423 16.3426 12.7413 16.1443 12.8059 15.9903C12.9283 15.6987 13.0303 15.3132 13.0303 15H12.0303H11.0303C11.0303 14.9593 11.0346 14.9716 11.018 15.0416C11.0041 15.1004 10.9837 15.164 10.9618 15.2163C10.936 15.2778 10.9272 15.2779 10.9547 15.2447C10.9701 15.2261 11.0165 15.1732 11.1009 15.1204C11.1901 15.0647 11.3378 15 11.5303 15V16ZM12.0303 15H13.0303V13H12.0303H11.0303V15H12.0303ZM12.0303 13H13.0303C13.0303 12.683 12.9229 12.2949 12.8017 12.0086C12.7371 11.8559 12.639 11.6601 12.4952 11.4846C12.3798 11.3436 12.0586 11 11.5303 11V12V13C11.329 13 11.1774 12.9302 11.0899 12.8743C11.0067 12.821 10.9616 12.7685 10.9478 12.7517C10.923 12.7214 10.9331 12.7248 10.9599 12.7882C10.9829 12.8424 11.004 12.9073 11.0183 12.9662C11.0252 12.9946 11.0291 13.0155 11.0308 13.0273C11.0331 13.0424 11.0303 13.0313 11.0303 13H12.0303ZM11.5303 12V11C11.0104 11 10.6894 11.3301 10.5655 11.4797C10.4183 11.6574 10.3193 11.8557 10.2547 12.0097C10.1323 12.3013 10.0303 12.6868 10.0303 13H11.0303H12.0303C12.0303 13.0407 12.026 13.0284 12.0426 12.9584C12.0565 12.8996 12.0769 12.836 12.0988 12.7837C12.1247 12.7222 12.1334 12.7221 12.1059 12.7553C12.0905 12.7739 12.0441 12.8268 11.9597 12.8796C11.8705 12.9353 11.7228 13 11.5303 13V12ZM11.0303 13H10.0303V15H11.0303H12.0303V13H11.0303Z" fill="var(--stroke-0, black)" mask="url(#path-1-outside-1_174_79699)"/>
</g>
<defs>
<filter id="filter0_d_174_79699" x="-5.16176e-05" y="0" width="23.0794" height="24" filterUnits="userSpaceOnUse" color-interpolation-filters="sRGB">
<feFlood flood-opacity="0" result="BackgroundImageFix"/>
<feColorMatrix in="SourceAlpha" type="matrix" values="0 0 0 0 0 0 0 0 0 0 0 0 0 0 0 0 0 0 127 0" result="hardAlpha"/>
<feOffset dy="1"/>
<feGaussianBlur stdDeviation="2"/>
<feColorMatrix type="matrix" values="0 0 0 0 0 0 0 0 0 0 0 0 0 0 0 0 0 0 0.4 0"/>
<feBlend mode="normal" in2="BackgroundImageFix" result="effect1_dropShadow_174_79699"/>
<feBlend mode="normal" in="SourceGraphic" in2="effect1_dropShadow_174_79699" result="shape"/>
</filter>
</defs>
</svg>
