<svg preserveAspectRatio="none" width="100%" height="100%" overflow="visible" style="display: block;" viewBox="0 0 11 11" fill="none" xmlns="http://www.w3.org/2000/svg">
<path id="Vector" d="M9.67637 8.7C9.42373 8.10157 9.0571 7.558 8.59691 7.09955C8.13811 6.63979 7.59463 6.27322 6.99646 6.02009C6.99111 6.01741 6.98575 6.01607 6.98039 6.01339C7.81477 5.41072 8.35718 4.42902 8.35718 3.32143C8.35718 1.48661 6.87057 0 5.03575 0C3.20093 0 1.71432 1.48661 1.71432 3.32143C1.71432 4.42902 2.25673 5.41071 3.0911 6.01473C3.08575 6.01741 3.08039 6.01875 3.07503 6.02143C2.47503 6.27455 1.93664 6.6375 1.47459 7.10089C1.01482 7.55969 0.648254 8.10318 0.395123 8.70134C0.146447 9.28695 0.0123307 9.91479 3.34902e-05 10.5509C-0.000323972 10.5652 0.00218321 10.5794 0.00740737 10.5927C0.0126315 10.606 0.0204669 10.6182 0.0304519 10.6284C0.0404368 10.6386 0.0523693 10.6468 0.0655462 10.6523C0.0787231 10.6579 0.0928779 10.6607 0.107176 10.6607H0.910748C0.969676 10.6607 1.01655 10.6138 1.01789 10.5563C1.04468 9.52232 1.45985 8.55402 2.19378 7.82009C2.95316 7.06072 3.96164 6.64286 5.03575 6.64286C6.10985 6.64286 7.11834 7.06072 7.87771 7.82009C8.61164 8.55402 9.02682 9.52232 9.05361 10.5563C9.05494 10.6152 9.10182 10.6607 9.16075 10.6607H9.96432C9.97862 10.6607 9.99277 10.6579 10.0059 10.6523C10.0191 10.6468 10.0311 10.6386 10.041 10.6284C10.051 10.6182 10.0589 10.606 10.0641 10.5927C10.0693 10.5794 10.0718 10.5652 10.0715 10.5509C10.0581 9.91072 9.92548 9.28795 9.67637 8.7V8.7ZM5.03575 5.625C4.42102 5.625 3.84244 5.38527 3.40718 4.95C2.97191 4.51473 2.73218 3.93616 2.73218 3.32143C2.73218 2.7067 2.97191 2.12813 3.40718 1.69286C3.84244 1.25759 4.42102 1.01786 5.03575 1.01786C5.65048 1.01786 6.22905 1.25759 6.66432 1.69286C7.09959 2.12813 7.33932 2.7067 7.33932 3.32143C7.33932 3.93616 7.09959 4.51473 6.66432 4.95C6.22905 5.38527 5.65048 5.625 5.03575 5.625Z" fill="var(--fill-0, black)" fill-opacity="0.25"/>
</svg>
