<svg preserveAspectRatio="none" width="100%" height="100%" overflow="visible" style="display: block;" viewBox="0 0 20 21" fill="none" xmlns="http://www.w3.org/2000/svg">
<path id="IconShape" d="M16.5 0C18.433 0 20 1.567 20 3.5C20 5.433 18.433 7 16.5 7C15.5817 7 14.7464 6.64592 14.1221 6.06738L6.94629 9.89453C6.98062 10.0913 7 10.2934 7 10.5C7 10.7913 6.96356 11.0741 6.89648 11.3447L13.9482 15.1055C14.5867 14.4253 15.4935 14 16.5 14C18.433 14 20 15.567 20 17.5C20 19.433 18.433 21 16.5 21C14.567 21 13 19.433 13 17.5C13 17.2935 13.0184 17.0912 13.0527 16.8945L5.87695 13.0674C5.25268 13.6456 4.41804 14 3.5 14C1.567 14 0 12.433 0 10.5C0 8.567 1.567 7 3.5 7C4.50626 7 5.41231 7.4256 6.05078 8.10547L13.1025 4.34473C13.0355 4.0742 13 3.79125 13 3.5C13 1.567 14.567 0 16.5 0ZM16.5 16C15.6716 16 15 16.6716 15 17.5C15 18.3284 15.6716 19 16.5 19C17.3284 19 18 18.3284 18 17.5C18 16.6716 17.3284 16 16.5 16ZM3.5 9C2.67157 9 2 9.67157 2 10.5C2 11.3284 2.67157 12 3.5 12C4.32843 12 5 11.3284 5 10.5C5 9.67157 4.32843 9 3.5 9ZM16.5 2C15.6716 2 15 2.67157 15 3.5C15 4.32843 15.6716 5 16.5 5C17.3284 5 18 4.32843 18 3.5C18 2.67157 17.3284 2 16.5 2Z" fill="var(--fill-0, #6B7C8C)"/>
</svg>
