<svg preserveAspectRatio="none" width="100%" height="100%" overflow="visible" style="display: block;" viewBox="0 0 12 14" fill="none" xmlns="http://www.w3.org/2000/svg">
<path id="IconShape" d="M12 9.66667C12 9.92 11.86 10.14 11.6467 10.2533L6.38 13.2133C6.27333 13.2933 6.14 13.3333 6 13.3333C5.86 13.3333 5.72667 13.2933 5.62 13.2133L0.353333 10.2533C0.14 10.14 0 9.92 0 9.66667V3.66667C0 3.41333 0.14 3.19333 0.353333 3.08L5.62 0.12C5.72667 0.04 5.86 0 6 0C6.14 0 6.27333 0.04 6.38 0.12L11.6467 3.08C11.86 3.19333 12 3.41333 12 3.66667V9.66667ZM6 1.43333L4.74 2.14667L8.66667 4.40667L9.97333 3.66667L6 1.43333ZM2.02667 3.66667L6 5.9L7.30667 5.16667L3.38667 2.9L2.02667 3.66667ZM1.33333 9.27333L5.33333 11.5267V7.05333L1.33333 4.80667V9.27333ZM10.6667 9.27333V4.80667L6.66667 7.05333V11.5267L10.6667 9.27333Z" fill="var(--fill-0, #195AFE)"/>
</svg>
