<svg preserveAspectRatio="none" width="100%" height="100%" overflow="visible" style="display: block;" viewBox="0 0 7 8" fill="none" xmlns="http://www.w3.org/2000/svg">
<path id="IconShape" d="M0.827148 0C0.97273 0 1.11618 0.0390033 1.24219 0.112305L6.25293 3.0293C6.64856 3.25966 6.7838 3.76922 6.55469 4.16699C6.48224 4.2927 6.37798 4.39691 6.25293 4.46973L1.24219 7.3877C0.846697 7.61773 0.340472 7.48239 0.111328 7.08496C0.0384341 6.95836 7.08056e-05 6.81425 0 6.66797V0.832031C0.000143595 0.372717 0.370352 0.000370911 0.827148 0ZM1.22363 6.43555L3.86621 4.89746L3.31055 4.33887L1.22363 6.43555ZM0.827148 5.6582L2.72461 3.75L0.827148 1.84082V5.6582ZM3.89648 3.74902L4.6084 4.46484L5.83789 3.75L4.6084 3.03418L3.89648 3.74902ZM3.31055 3.16016L3.86719 2.60156L1.22363 1.0625L3.31055 3.16016Z" fill="var(--fill-0, #092540)"/>
</svg>
