<svg preserveAspectRatio="none" width="100%" height="100%" overflow="visible" style="display: block;" viewBox="0 0 15 15" fill="none" xmlns="http://www.w3.org/2000/svg">
<path id="Vector" d="M2.60179 11.4286C2.6375 11.4286 2.67321 11.425 2.70893 11.4196L5.7125 10.8929C5.74822 10.8857 5.78214 10.8696 5.80714 10.8429L13.3768 3.27321C13.3933 3.25669 13.4065 3.23707 13.4154 3.21547C13.4244 3.19387 13.429 3.17071 13.429 3.14732C13.429 3.12393 13.4244 3.10078 13.4154 3.07917C13.4065 3.05757 13.3933 3.03795 13.3768 3.02143L10.4089 0.0517857C10.375 0.0178572 10.3304 0 10.2821 0C10.2339 0 10.1893 0.0178572 10.1554 0.0517857L2.58571 7.62143C2.55893 7.64821 2.54286 7.68036 2.53571 7.71607L2.00893 10.7196C1.99156 10.8153 1.99776 10.9138 2.02701 11.0065C2.05626 11.0992 2.10767 11.1834 2.17679 11.2518C2.29464 11.3661 2.44286 11.4286 2.60179 11.4286V11.4286ZM3.80536 8.31429L10.2821 1.83929L11.5911 3.14821L5.11429 9.62322L3.52679 9.90357L3.80536 8.31429V8.31429ZM13.7143 12.9286H0.571429C0.255357 12.9286 0 13.1839 0 13.5V14.1429C0 14.2214 0.0642857 14.2857 0.142857 14.2857H14.1429C14.2214 14.2857 14.2857 14.2214 14.2857 14.1429V13.5C14.2857 13.1839 14.0304 12.9286 13.7143 12.9286Z" fill="var(--fill-0, #1890FF)"/>
</svg>
