<svg preserveAspectRatio="none" width="100%" height="100%" overflow="visible" style="display: block;" viewBox="0 0 10 12" fill="none" xmlns="http://www.w3.org/2000/svg">
<path id="IconShape" d="M4.66699 0C6.49809 0.000154749 8 1.30515 8 2.97461V4.11523C8.77666 4.38991 9.33398 5.12934 9.33398 6V10C9.33398 11.1044 8.43825 11.9996 7.33398 12H2C0.89558 11.9998 0 11.1045 0 10V6C2.53846e-08 5.12957 0.556657 4.39105 1.33301 4.11621V2.97461C1.33301 1.30505 2.83575 0 4.66699 0ZM2 5.33301C1.63196 5.33318 1.33398 5.63192 1.33398 6V10C1.33398 10.3681 1.63196 10.6668 2 10.667H7.33398C7.70187 10.6666 8 10.368 8 10V6C8 5.63203 7.70187 5.33336 7.33398 5.33301H2ZM4.66699 1.33301C3.53367 1.33301 2.66699 2.08643 2.66699 2.97461V4H6.66699V2.97461C6.66699 2.08652 5.80015 1.33315 4.66699 1.33301Z" fill="var(--fill-0, #FF7A1A)"/>
</svg>
