<svg preserveAspectRatio="none" width="100%" height="100%" overflow="visible" style="display: block;" viewBox="0 0 22 22" fill="none" xmlns="http://www.w3.org/2000/svg">
<path id="Vector" fill-rule="evenodd" clip-rule="evenodd" d="M7.33348 4.62627C8.32809 4.76832 9.1118 5.24405 9.68612 5.7074C13.7069 1.9399 16.2125 0.906859 19.4705 0.33941C20.2064 0.211234 20.9808 0.106814 21.8196 0C21.7128 0.838875 21.6084 1.61319 21.4801 2.3491C20.9125 5.60693 19.879 8.11198 16.1117 12.1328C16.575 12.7072 17.0508 13.4909 17.1929 14.4856C17.4329 16.1663 16.6942 18.0547 14.5462 20.2029L13.7381 21.011L12.93 20.2029L10.5056 17.7784L9.69746 18.5865C9.25115 19.0329 8.52753 19.0329 8.08122 18.5865L3.23248 13.7378C2.78618 13.2915 2.78617 12.5679 3.23248 12.1216L4.04058 11.3135L1.61625 8.88915L0.808121 8.08104L1.61625 7.27291C3.76429 5.12485 5.65281 4.38625 7.33348 4.62627ZM7.01034 6.88904C7.39194 6.94352 7.72412 7.10374 8.03226 7.32181L5.65682 9.69725L4.07552 8.11592C5.49217 6.9399 6.44044 6.80765 7.01034 6.88904ZM12.1218 16.1622L14.4973 13.7868C14.7153 14.0949 14.8756 14.4271 14.9301 14.8087C15.0115 15.3786 14.8792 16.3269 13.7032 17.7436L12.1218 16.1622ZM19.0767 2.7427C18.1093 2.94879 17.2582 3.21439 16.3873 3.62017C16.2449 3.68648 16.1009 3.75715 15.9546 3.83266L17.9864 5.86441C18.062 5.71819 18.1328 5.57408 18.1992 5.43169C18.6049 4.56092 18.8706 3.71002 19.0767 2.7427ZM16.7388 7.84926C15.9178 8.96977 14.7958 10.2558 13.2277 11.8239L8.88935 16.1622L5.65686 12.9297L9.9952 8.59136C11.5632 7.0232 12.8492 5.90108 13.9697 5.08016L16.7388 7.84926ZM4.84873 20.2029L6.46497 18.5867L3.2325 15.3541L1.61625 16.9704L4.84873 20.2029ZM1.61625 18.5867L3.23248 20.2029L1.61625 21.8191L0 20.2029L1.61625 18.5867Z" fill="var(--fill-0, #6B7C8C)"/>
</svg>
