<svg preserveAspectRatio="none" width="100%" height="100%" overflow="visible" style="display: block;" viewBox="0 0 20 22" fill="none" xmlns="http://www.w3.org/2000/svg">
<path id="IconShape" d="M10 0C11.4491 0 12.7474 0.787149 13.4521 2H17C18.6523 2 20 3.34772 20 5V19C20 20.6523 18.6523 22 17 22H3C1.34772 22 0 20.6523 0 19V5C0 3.34772 1.34772 2 3 2H6.54785C7.25264 0.787149 8.55094 0 10 0ZM10 2C9.15697 2 8.40938 2.54189 8.12012 3.34082L7.88184 4H3C2.45228 4 2 4.45228 2 5V19C2 19.5477 2.45228 20 3 20H17C17.5477 20 18 19.5477 18 19V5C18 4.45228 17.5477 4 17 4H12.1182L11.8799 3.34082C11.5906 2.54189 10.843 2 10 2ZM12 17H5V15H12V17ZM15 13H5V11H15V13ZM15 9H5V7H15V9Z" fill="var(--fill-0, #B6BEC6)"/>
</svg>
