<svg preserveAspectRatio="none" width="100%" height="100%" overflow="visible" style="display: block;" viewBox="0 0 9 11" fill="none" xmlns="http://www.w3.org/2000/svg">
<path id="IconShape" d="M5.49512 9.75488C5.49512 10.3049 5.05 10.75 4.5 10.75C3.95 10.75 3.50488 10.3049 3.50488 9.75488H5.49512ZM4.5 0C4.915 0 5.25 0.335 5.25 0.75V1.33496C6.82 1.67496 8 3.075 8 4.75V7.04297C8.00002 7.49569 8.17987 7.92987 8.5 8.25L8.89648 8.64648C8.96276 8.71278 9 8.80273 9 8.89648C8.99998 9.09172 8.84172 9.24998 8.64648 9.25H0.353516C0.158283 9.24998 2.04039e-05 9.09172 0 8.89648C0 8.80273 0.037235 8.71278 0.103516 8.64648L0.5 8.25C0.820127 7.92987 0.99998 7.49569 1 7.04297V4.75C1 3.075 2.18 1.67496 3.75 1.33496V0.75C3.75 0.335 4.085 0 4.5 0ZM4.5 2.25C3.12 2.25 2 3.37 2 4.75V8.25H7V4.75C7 3.37 5.88 2.25 4.5 2.25Z" fill="var(--fill-0, white)"/>
</svg>
