<svg preserveAspectRatio="none" width="100%" height="100%" overflow="visible" style="display: block;" viewBox="0 0 16 16" fill="none" xmlns="http://www.w3.org/2000/svg">
<g id="Icon/Flag/united-kingdom">
<circle id="Oval" cx="8" cy="8" r="8" fill="var(--fill-0, #F0F0F0)"/>
<g id="Group">
<path id="Shape" d="M1.65375 3.12944C1.02534 3.94703 0.5515 4.88938 0.275594 5.91309H4.43741L1.65375 3.12944Z" fill="var(--fill-0, #0052B4)"/>
<path id="Shape_2" d="M15.7244 5.91309C15.4485 4.88941 14.9746 3.94706 14.3463 3.12947L11.5627 5.91309H15.7244Z" fill="var(--fill-0, #0052B4)"/>
<path id="Shape_3" d="M0.275594 10.087C0.551531 11.1107 1.02537 12.053 1.65375 12.8706L4.43731 10.087H0.275594V10.087Z" fill="var(--fill-0, #0052B4)"/>
<path id="Shape_4" d="M12.8706 1.65378C12.053 1.02538 11.1107 0.551531 10.0869 0.275594V4.43738L12.8706 1.65378Z" fill="var(--fill-0, #0052B4)"/>
<path id="Shape_5" d="M3.12944 14.3462C3.94703 14.9746 4.88938 15.4485 5.91306 15.7244V11.5627L3.12944 14.3462Z" fill="var(--fill-0, #0052B4)"/>
<path id="Shape_6" d="M5.91303 0.275594C4.88934 0.551531 3.947 1.02537 3.12944 1.65375L5.91303 4.43734V0.275594Z" fill="var(--fill-0, #0052B4)"/>
<path id="Shape_7" d="M10.087 15.7244C11.1107 15.4485 12.053 14.9746 12.8706 14.3463L10.087 11.5627V15.7244Z" fill="var(--fill-0, #0052B4)"/>
<path id="Shape_8" d="M11.5627 10.087L14.3463 12.8706C14.9746 12.0531 15.4485 11.1107 15.7244 10.087H11.5627Z" fill="var(--fill-0, #0052B4)"/>
</g>
<g id="Group_2">
<path id="Shape_9" d="M15.9323 6.95653H9.04353H9.0435V0.0677188C8.70191 0.02325 8.35366 0 8 0C7.64628 0 7.29809 0.02325 6.95653 0.0677188V6.95647V6.9565H0.0677188C0.02325 7.29809 0 7.64634 0 8C0 8.35372 0.02325 8.70191 0.0677188 9.04347H6.95647H6.9565V15.9323C7.29809 15.9768 7.64628 16 8 16C8.35366 16 8.70191 15.9768 9.04347 15.9323V9.04353V9.0435H15.9323C15.9768 8.70191 16 8.35372 16 8C16 7.64634 15.9768 7.29809 15.9323 6.95653Z" fill="var(--fill-0, #D80027)"/>
<path id="Shape_10" d="M10.087 10.087V10.087L13.6568 13.6569C13.821 13.4928 13.9777 13.3212 14.1271 13.1433L11.0708 10.087H10.087V10.087Z" fill="var(--fill-0, #D80027)"/>
<path id="Shape_11" d="M5.91303 10.087H5.91297L2.34313 13.6568C2.50725 13.821 2.67884 13.9777 2.85672 14.1271L5.91303 11.0707V10.087Z" fill="var(--fill-0, #D80027)"/>
<path id="Shape_12" d="M5.91303 5.91309V5.91303L2.34316 2.34313C2.17897 2.50725 2.02234 2.67884 1.87291 2.85672L4.92925 5.91306H5.91303V5.91309Z" fill="var(--fill-0, #D80027)"/>
<path id="Shape_13" d="M10.087 5.91309V5.91309L13.6569 2.34316C13.4928 2.17897 13.3212 2.02234 13.1433 1.87294L10.087 4.92928V5.91309H10.087Z" fill="var(--fill-0, #D80027)"/>
</g>
</g>
</svg>
