<svg preserveAspectRatio="none" width="100%" height="100%" overflow="visible" style="display: block;" viewBox="0 0 26 26" fill="none" xmlns="http://www.w3.org/2000/svg">
<g id="Group 1166" filter="url(#filter0_d_174_79335)">
<circle id="Ellipse 1663" cx="13" cy="13" r="8" fill="var(--fill-0, white)"/>
<g id="Group 1165">
<path id="Vector" d="M18.0429 9.92683C17.3904 8.92858 16.4454 8.09523 15.362 7.67146L15.0411 7.56507C14.6386 7.44805 14.2733 7.3984 13.9471 7.40018C12.7733 7.4055 11.8229 8.35764 11.8229 9.5332C11.8229 10.0226 11.9878 10.4729 12.2644 10.8311L12.1314 10.6609C12.1953 10.7531 12.2644 10.8453 12.3442 10.9375C12.6811 11.3382 13.1598 11.7531 13.7804 12.2248C15.3053 13.3826 16.2946 14.4092 16.3762 15.6823C16.3957 15.8543 16.4081 16.0298 16.4081 16.2071C16.4081 16.8543 16.2645 17.5387 16.0198 18.021H16.0216C16.0216 18.021 15.917 18.2089 15.9826 18.2639C16.0163 18.2923 16.089 18.3135 16.2166 18.2373C16.894 17.8047 17.4844 17.2426 17.9472 16.5759C18.6227 15.6025 18.9915 14.45 19.0092 13.2656C19.027 12.0811 18.6901 10.9198 18.0429 9.92683Z" fill="var(--fill-0, #FF7A1A)"/>
<path id="Vector_2" d="M13.4151 14.276L12.4594 13.503C10.4576 12.0703 9.41679 10.526 9.98772 8.62166C10.0391 8.44789 10.103 8.27945 10.1757 8.11455V8.11278C10.1757 8.11278 10.3175 7.82199 10.009 7.96561C9.33877 8.32023 8.73947 8.79897 8.24477 9.37522C7.38483 10.3735 6.87949 11.627 6.80857 12.9427C6.73765 14.2583 7.10468 15.5598 7.85292 16.6449C8.15967 17.0669 8.53024 17.4304 8.94869 17.7265H8.94692C11.0569 19.2496 12.8672 18.4481 12.8672 18.4481H12.869C13.7538 18.0882 14.3761 17.2211 14.3761 16.2069C14.3779 15.4179 14.0002 14.7175 13.4151 14.276Z" fill="var(--fill-0, #092540)"/>
</g>
</g>
<defs>
<filter id="filter0_d_174_79335" x="0" y="0" width="26" height="26" filterUnits="userSpaceOnUse" color-interpolation-filters="sRGB">
<feFlood flood-opacity="0" result="BackgroundImageFix"/>
<feColorMatrix in="SourceAlpha" type="matrix" values="0 0 0 0 0 0 0 0 0 0 0 0 0 0 0 0 0 0 127 0" result="hardAlpha"/>
<feOffset/>
<feGaussianBlur stdDeviation="2.5"/>
<feColorMatrix type="matrix" values="0 0 0 0 0 0 0 0 0 0 0 0 0 0 0 0 0 0 0.11 0"/>
<feBlend mode="normal" in2="BackgroundImageFix" result="effect1_dropShadow_174_79335"/>
<feBlend mode="normal" in="SourceGraphic" in2="effect1_dropShadow_174_79335" result="shape"/>
</filter>
</defs>
</svg>
