<svg preserveAspectRatio="none" width="100%" height="100%" overflow="visible" style="display: block;" viewBox="0 0 25 23" fill="none" xmlns="http://www.w3.org/2000/svg">
<g id="Drag" filter="url(#filter0_d_174_78316)">
<mask id="path-1-outside-1_174_78316" maskUnits="userSpaceOnUse" x="4" y="2" width="17" height="16" fill="black">
<rect fill="white" x="4" y="2" width="17" height="16"/>
<path fill-rule="evenodd" clip-rule="evenodd" d="M10.0303 16.0556C10.0303 16.0556 7.81107 14.3568 7.03031 13.0556C6.24955 11.7543 4.77006 10.0966 5.03031 9.05556C5.29056 8.01455 6.24955 7.68647 7.03031 8.46723C7.81107 9.24799 8.0098 10.8158 8.53031 10.5556C9.05081 10.2953 9.05081 8.98694 8.53031 7.55556C8.0098 6.12417 7.43682 5.05556 8.5 5.05556C9.56318 5.05556 9.5 5.05554 10 6.55554C10.5 8.05554 10.1399 8.05556 10.5303 8.05556C10.9207 8.05556 10.5303 8.46723 11.0697 7.05556C11.1328 6.89023 10.9993 5.67944 11.0697 5.55556C11.2583 5.22357 10.7781 4.05556 11.5 4.05556C12.2219 4.05556 13.0303 3.55556 13.0303 5.55556C13.0303 7.55556 13.1474 8.05556 13.5303 8.05556C14.0303 8.05556 14.0303 8.09657 14.0303 7.05556C14.0303 6.61794 14.0303 5.05556 14.0303 4.55556C14.0303 4.05556 14.9143 4.05556 15.4939 4.05556C16.4939 4.05556 16.0098 8.05556 16.5303 8.05556C16.7553 8.05556 16.6716 6.33168 17.5 6.05554C17.8705 5.93205 18.2464 6.05556 18.5303 6.05556C19.5303 6.05556 19.0303 8.05556 18.5303 9.05556C18.0303 10.0556 18.3111 12.0145 17.5303 13.0556C16.7496 14.0966 16.0303 15.0556 16.0303 15.0556C16.0303 15.0556 16.0303 16.0556 15.4939 16.0556C14.9576 16.0556 14.6809 15.0556 14.0303 15.0556C13.3797 15.0556 13.0303 16.0556 13.0303 16.0556H10.0303ZM16.0303 14.0556V10.0556H15.0303V14.0556H16.0303ZM13.0303 13.0556C13.0303 13.3264 13.2622 14.0556 13.5303 14.0556C13.8065 14.0556 14.0303 13.331 14.0303 13.0556V11.0556C14.0303 10.7847 13.7984 10.0556 13.5303 10.0556C13.2542 10.0556 13.0303 10.7801 13.0303 11.0556V13.0556ZM11.0303 13.0556C11.0303 13.3264 11.2622 14.0556 11.5303 14.0556C11.8065 14.0556 12.0303 13.331 12.0303 13.0556V11.0556C12.0303 10.7847 11.7984 10.0556 11.5303 10.0556C11.2542 10.0556 11.0303 10.7801 11.0303 11.0556V13.0556Z"/>
</mask>
<path fill-rule="evenodd" clip-rule="evenodd" d="M10.0303 16.0556C10.0303 16.0556 7.81107 14.3568 7.03031 13.0556C6.24955 11.7543 4.77006 10.0966 5.03031 9.05556C5.29056 8.01455 6.24955 7.68647 7.03031 8.46723C7.81107 9.24799 8.0098 10.8158 8.53031 10.5556C9.05081 10.2953 9.05081 8.98694 8.53031 7.55556C8.0098 6.12417 7.43682 5.05556 8.5 5.05556C9.56318 5.05556 9.5 5.05554 10 6.55554C10.5 8.05554 10.1399 8.05556 10.5303 8.05556C10.9207 8.05556 10.5303 8.46723 11.0697 7.05556C11.1328 6.89023 10.9993 5.67944 11.0697 5.55556C11.2583 5.22357 10.7781 4.05556 11.5 4.05556C12.2219 4.05556 13.0303 3.55556 13.0303 5.55556C13.0303 7.55556 13.1474 8.05556 13.5303 8.05556C14.0303 8.05556 14.0303 8.09657 14.0303 7.05556C14.0303 6.61794 14.0303 5.05556 14.0303 4.55556C14.0303 4.05556 14.9143 4.05556 15.4939 4.05556C16.4939 4.05556 16.0098 8.05556 16.5303 8.05556C16.7553 8.05556 16.6716 6.33168 17.5 6.05554C17.8705 5.93205 18.2464 6.05556 18.5303 6.05556C19.5303 6.05556 19.0303 8.05556 18.5303 9.05556C18.0303 10.0556 18.3111 12.0145 17.5303 13.0556C16.7496 14.0966 16.0303 15.0556 16.0303 15.0556C16.0303 15.0556 16.0303 16.0556 15.4939 16.0556C14.9576 16.0556 14.6809 15.0556 14.0303 15.0556C13.3797 15.0556 13.0303 16.0556 13.0303 16.0556H10.0303ZM16.0303 14.0556V10.0556H15.0303V14.0556H16.0303ZM13.0303 13.0556C13.0303 13.3264 13.2622 14.0556 13.5303 14.0556C13.8065 14.0556 14.0303 13.331 14.0303 13.0556V11.0556C14.0303 10.7847 13.7984 10.0556 13.5303 10.0556C13.2542 10.0556 13.0303 10.7801 13.0303 11.0556V13.0556ZM11.0303 13.0556C11.0303 13.3264 11.2622 14.0556 11.5303 14.0556C11.8065 14.0556 12.0303 13.331 12.0303 13.0556V11.0556C12.0303 10.7847 11.7984 10.0556 11.5303 10.0556C11.2542 10.0556 11.0303 10.7801 11.0303 11.0556V13.0556Z" fill="var(--fill-0, white)"/>
<path d="M10.0303 16.0556L9.42248 16.8496L9.69151 17.0556H10.0303V16.0556ZM7.03031 13.0556L6.17282 13.5701L6.17282 13.5701L7.03031 13.0556ZM5.03031 9.05556L6.00045 9.29809L6.00045 9.29809L5.03031 9.05556ZM7.03031 8.46723L6.3232 9.17433L6.3232 9.17433L7.03031 8.46723ZM8.53031 10.5556L8.0831 9.66113L8.0831 9.66113L8.53031 10.5556ZM8.53031 7.55556L9.4701 7.21381L9.4701 7.21381L8.53031 7.55556ZM8.5 5.05556L8.5 4.05556L8.5 4.05556L8.5 5.05556ZM10.5303 8.05556L10.5303 9.05556L10.5303 9.05556L10.5303 8.05556ZM11.0697 7.05556L12.0038 7.41246L12.0038 7.41246L11.0697 7.05556ZM11.0697 5.55556L10.2002 5.06156L10.2002 5.06156L11.0697 5.55556ZM11.5 4.05556L11.5 3.05556L11.5 4.05556ZM13.0303 5.55556L14.0303 5.55556L14.0303 5.55556L13.0303 5.55556ZM13.5303 8.05556L13.5303 7.05556L13.5303 7.05556L13.5303 8.05556ZM14.0303 7.05556L13.0303 7.05556L14.0303 7.05556ZM14.0303 4.55556L15.0303 4.55556L15.0303 4.55556L14.0303 4.55556ZM15.4939 4.05556L15.4939 3.05556L15.4939 3.05556L15.4939 4.05556ZM16.5303 8.05556L16.5303 9.05556L16.5303 9.05556L16.5303 8.05556ZM17.5 6.05554L17.8162 7.00423L17.8162 7.00423L17.5 6.05554ZM18.5303 6.05556L18.5303 5.05556L18.5303 5.05556L18.5303 6.05556ZM18.5303 9.05556L17.6359 8.60834L17.6359 8.60834L18.5303 9.05556ZM16.0303 15.0556L15.2303 14.4556L15.0303 14.7222V15.0556H16.0303ZM15.4939 16.0556L15.4939 15.0556L15.4939 15.0556L15.4939 16.0556ZM14.0303 15.0556L14.0303 14.0556L14.0303 15.0556ZM13.0303 16.0556V17.0556H13.7402L13.9744 16.3854L13.0303 16.0556ZM16.0303 14.0556V15.0556H17.0303V14.0556H16.0303ZM16.0303 10.0556H17.0303V9.05556H16.0303V10.0556ZM15.0303 10.0556V9.05556H14.0303V10.0556H15.0303ZM15.0303 14.0556H14.0303V15.0556H15.0303V14.0556ZM10.0303 16.0556C10.6381 15.2615 10.6382 15.2615 10.6383 15.2616C10.6383 15.2616 10.6383 15.2616 10.6383 15.2616C10.6384 15.2617 10.6384 15.2617 10.6384 15.2617C10.6383 15.2616 10.6381 15.2615 10.6378 15.2612C10.6371 15.2607 10.636 15.2598 10.6343 15.2585C10.6309 15.2559 10.6255 15.2518 10.6182 15.2461C10.6036 15.2347 10.5813 15.2173 10.5521 15.1944C10.4939 15.1485 10.4086 15.0806 10.3033 14.9948C10.0922 14.8227 9.80334 14.5805 9.49217 14.3003C8.8424 13.7154 8.1941 13.0516 7.8878 12.5411L7.03031 13.0556L6.17282 13.5701C6.64728 14.3608 7.49897 15.197 8.15402 15.7867C8.49525 16.0939 8.80999 16.3577 9.03942 16.5448C9.15438 16.6386 9.24856 16.7135 9.31471 16.7656C9.3478 16.7917 9.37393 16.8121 9.39218 16.8262C9.4013 16.8333 9.40847 16.8388 9.41355 16.8428C9.4161 16.8447 9.41812 16.8463 9.41962 16.8474C9.42036 16.848 9.42098 16.8485 9.42145 16.8488C9.42169 16.849 9.4219 16.8492 9.42207 16.8493C9.42215 16.8494 9.42226 16.8495 9.4223 16.8495C9.4224 16.8496 9.42248 16.8496 10.0303 16.0556ZM7.03031 13.0556L7.8878 12.5411C7.67349 12.1839 7.41598 11.8098 7.17522 11.4605C6.927 11.1003 6.69291 10.7612 6.49174 10.4341C6.28866 10.1039 6.14555 9.82751 6.06565 9.60234C5.98235 9.36758 6.00327 9.28683 6.00045 9.29809L5.03031 9.05556L4.06017 8.81302C3.92723 9.34478 4.03548 9.86163 4.18079 10.2711C4.3295 10.6902 4.55627 11.1048 4.78813 11.4818C5.02189 11.8619 5.2878 12.2463 5.52843 12.5954C5.77654 12.9555 5.99675 13.2766 6.17282 13.5701L7.03031 13.0556ZM5.03031 9.05556L6.00045 9.29809C6.06865 9.0253 6.17603 9.01951 6.13096 9.03347C6.11468 9.03851 6.10996 9.0327 6.13062 9.03906C6.15502 9.04658 6.22444 9.07558 6.3232 9.17433L7.03031 8.46723L7.73742 7.76012C7.1495 7.17221 6.34341 6.87395 5.53928 7.12299C4.75446 7.36605 4.25222 8.04481 4.06017 8.81302L5.03031 9.05556ZM7.03031 8.46723L6.3232 9.17433C6.55671 9.40784 6.7215 9.78611 6.97101 10.3231C7.06595 10.5275 7.21692 10.8522 7.42368 11.0959C7.53396 11.2258 7.72828 11.417 8.02377 11.5184C8.36103 11.6342 8.69898 11.5893 8.97752 11.45L8.53031 10.5556L8.0831 9.66113C8.23151 9.58692 8.44939 9.54995 8.67311 9.62674C8.85505 9.68919 8.94235 9.79444 8.9486 9.80181C8.9598 9.815 8.94689 9.80232 8.91024 9.73529C8.87582 9.67234 8.836 9.59062 8.7848 9.48041C8.60963 9.1034 8.28467 8.30737 7.73742 7.76012L7.03031 8.46723ZM8.53031 10.5556L8.97752 11.45C9.42021 11.2286 9.64955 10.8364 9.76451 10.5155C9.88119 10.1898 9.92069 9.83339 9.92069 9.49473C9.92069 8.81239 9.75967 8.01012 9.4701 7.21381L8.53031 7.55556L7.59052 7.8973C7.82145 8.53238 7.92069 9.09998 7.92069 9.49473C7.92069 9.69461 7.89512 9.80352 7.88168 9.84105C7.86651 9.8834 7.90066 9.75235 8.0831 9.66113L8.53031 10.5556ZM8.53031 7.55556L9.4701 7.21381C9.40208 7.02674 9.33367 6.84691 9.27028 6.68074C9.2059 6.51199 9.14784 6.36027 9.09559 6.21746C8.98641 5.91904 8.92832 5.72654 8.90728 5.6021C8.88024 5.44212 8.95107 5.61039 8.79635 5.82668C8.6074 6.09084 8.36568 6.05556 8.5 6.05556L8.5 5.05556L8.5 4.05556C8.10273 4.05556 7.53394 4.15385 7.16967 4.6631C6.83964 5.12449 6.8869 5.64937 6.93527 5.93547C6.98964 6.25711 7.10594 6.60014 7.21736 6.90466C7.27541 7.06332 7.3392 7.22994 7.40163 7.39359C7.46505 7.55984 7.52842 7.72652 7.59052 7.8973L8.53031 7.55556ZM8.5 5.05556L8.5 6.05556C8.79831 6.05556 8.90235 6.05836 8.95961 6.06722C8.96374 6.06786 8.84381 6.04415 8.73905 5.93479C8.68155 5.87476 8.69612 5.85273 8.77066 6.04684C8.84098 6.22997 8.91865 6.47377 9.05132 6.87177L10 6.55554L10.9487 6.23931C10.8314 5.88731 10.7294 5.56862 10.6377 5.32987C10.5503 5.10211 10.4204 4.79883 10.1833 4.55131C9.89897 4.25445 9.56424 4.13699 9.26557 4.09076C9.02003 4.05275 8.73328 4.05556 8.5 4.05556L8.5 5.05556ZM10 6.55554L9.05132 6.87177C9.27237 7.53493 9.29629 7.83671 9.31264 7.98082C9.31616 8.01181 9.327 8.11888 9.35406 8.22454C9.38386 8.34088 9.46732 8.60167 9.72386 8.80935C9.96639 9.00569 10.2232 9.03807 10.3136 9.04738C10.4053 9.05681 10.5031 9.05556 10.5303 9.05556L10.5303 8.05556L10.5303 7.05556C10.4599 7.05556 10.4836 7.05431 10.5183 7.05787C10.5518 7.06132 10.7687 7.08198 10.9823 7.25488C11.2099 7.43913 11.2752 7.66476 11.2915 7.72836C11.3051 7.78128 11.307 7.81804 11.2999 7.75528C11.2893 7.66205 11.2712 7.48253 11.2191 7.22453C11.1675 6.96965 11.0852 6.64891 10.9487 6.23931L10 6.55554ZM10.5303 8.05556L10.5303 9.05556C10.4149 9.05556 10.2839 9.01416 10.1773 8.9482C10.1337 8.92126 10.204 8.96519 10.2298 8.9797C10.2545 8.9936 10.3178 9.02831 10.404 9.05759C10.491 9.08712 10.6509 9.12852 10.8517 9.10397C11.3451 9.04364 11.5674 8.6782 11.6276 8.56064C11.6864 8.44594 11.7108 8.34103 11.7135 8.33039C11.735 8.24554 11.7587 8.05393 12.0038 7.41246L11.0697 7.05556L10.1355 6.69865C9.99223 7.07369 9.90554 7.34106 9.85067 7.53455C9.82305 7.63198 9.80414 7.70837 9.79045 7.76781C9.7838 7.79666 9.77861 7.82057 9.77537 7.83541C9.7708 7.85635 9.77206 7.84994 9.77471 7.83947C9.77642 7.83273 9.78149 7.81303 9.78998 7.78695C9.7976 7.76357 9.8154 7.71168 9.84754 7.64893C9.87791 7.58962 9.94373 7.47528 10.0663 7.3653C10.2049 7.2409 10.3908 7.14543 10.6089 7.11876C10.8068 7.09456 10.9637 7.13547 11.0472 7.16383C11.1299 7.19193 11.1893 7.22475 11.2097 7.23621C11.2228 7.24357 11.2329 7.24964 11.2382 7.2529C11.2435 7.25616 11.2473 7.25857 11.2474 7.25864C11.2512 7.26105 11.2388 7.25314 11.2296 7.24744C11.171 7.21121 11.0723 7.15599 10.9364 7.11436C10.805 7.0741 10.6688 7.05556 10.5303 7.05556L10.5303 8.05556ZM11.0697 7.05556L12.0038 7.41246C12.0476 7.29786 12.0633 7.19667 12.0697 7.15102C12.0776 7.09436 12.0814 7.04169 12.0836 7.00012C12.0879 6.91695 12.0877 6.82901 12.0862 6.75056C12.0834 6.59285 12.0738 6.40428 12.0657 6.24081C12.0571 6.06622 12.0501 5.918 12.0488 5.8067C12.0484 5.78046 12.0485 5.7595 12.0488 5.74333C12.0491 5.72651 12.0496 5.71927 12.0495 5.71945C12.0495 5.71985 12.0492 5.7243 12.0483 5.732C12.0475 5.7393 12.0457 5.75351 12.0421 5.77271C12.0398 5.78541 12.0196 5.90789 11.9391 6.04955L11.0697 5.55556L10.2002 5.06156C10.1109 5.21871 10.0836 5.36516 10.0754 5.40929C10.0632 5.47556 10.0576 5.53557 10.0545 5.57814C10.0484 5.66442 10.048 5.75463 10.0489 5.83119C10.0508 5.98693 10.0601 6.17496 10.0682 6.33922C10.0768 6.51459 10.0844 6.66747 10.0866 6.78715C10.0877 6.84739 10.087 6.88214 10.0862 6.89731C10.0832 6.9562 10.0799 6.84415 10.1355 6.69865L11.0697 7.05556ZM11.0697 5.55556L11.9391 6.04955C12.0622 5.83292 12.0954 5.61899 12.1078 5.49469C12.1212 5.35966 12.1183 5.23075 12.1139 5.13502C12.1095 5.03906 12.1011 4.93512 12.0957 4.86161C12.0896 4.77868 12.0857 4.71623 12.0847 4.6624C12.0842 4.63671 12.0845 4.61713 12.0851 4.60254C12.0858 4.58781 12.0867 4.5814 12.0866 4.58169C12.0866 4.5818 12.0851 4.59301 12.0795 4.61238C12.074 4.6318 12.0631 4.66391 12.0426 4.70343C11.998 4.78936 11.9151 4.89541 11.7828 4.97197C11.6552 5.04576 11.545 5.05556 11.5 5.05556L11.5 4.05556L11.5 3.05556C11.2745 3.05556 11.0214 3.10185 10.7812 3.24082C10.5362 3.38255 10.3709 3.58244 10.2669 3.78306C10.084 4.13604 10.0815 4.51256 10.085 4.69972C10.0871 4.81265 10.0947 4.92213 10.1011 5.00851C10.1081 5.10429 10.1132 5.167 10.116 5.22724C10.1188 5.28769 10.1168 5.3045 10.1176 5.29688C10.1182 5.29096 10.1208 5.26674 10.1303 5.23051C10.1397 5.19476 10.1593 5.13357 10.2002 5.06156L11.0697 5.55556ZM11.5 4.05556L11.5 5.05556C11.6441 5.05556 11.7777 5.0432 11.8795 5.03229C12.0027 5.0191 12.0524 5.01178 12.1314 5.00482C12.2847 4.99132 12.2391 5.01624 12.1427 4.97503C12.0812 4.94872 12.0255 4.90794 11.9852 4.86206C11.9489 4.82069 11.945 4.798 11.9553 4.82568C11.982 4.8974 12.0303 5.10365 12.0303 5.55556L13.0303 5.55556L14.0303 5.55556C14.0303 5.00746 13.9776 4.52621 13.8301 4.12918C13.6689 3.69533 13.3785 3.32829 12.929 3.13608C12.5403 2.96987 12.1572 2.9948 11.9559 3.01254C11.6649 3.03818 11.6272 3.05556 11.5 3.05556L11.5 4.05556ZM13.0303 5.55556H12.0303C12.0303 6.54021 12.0563 7.26639 12.1572 7.75703C12.2067 7.99749 12.2985 8.31656 12.5211 8.58474C12.7975 8.91794 13.1727 9.05556 13.5303 9.05556L13.5303 8.05556L13.5303 7.05556C13.6964 7.05556 13.9134 7.13067 14.0602 7.30763C14.1531 7.41955 14.1439 7.48862 14.1162 7.35408C14.0629 7.09472 14.0303 6.5709 14.0303 5.55556H13.0303ZM13.5303 8.05556V9.05556C13.5865 9.05556 13.8107 9.06272 13.9933 9.03045C14.1111 9.00964 14.2808 8.96431 14.4539 8.85165C14.6376 8.73202 14.7682 8.57374 14.8545 8.40825C14.9958 8.1372 15.0133 7.84617 15.021 7.70571C15.0307 7.52909 15.0303 7.30334 15.0303 7.05556L14.0303 7.05556L13.0303 7.05556C13.0303 7.32827 13.0299 7.48777 13.024 7.59626C13.0212 7.64771 13.0183 7.66031 13.02 7.65087C13.0213 7.64394 13.0334 7.57503 13.0811 7.48362C13.1361 7.37806 13.2277 7.26345 13.3626 7.17561C13.4868 7.09475 13.5979 7.06933 13.6454 7.06095C13.6882 7.05338 13.7093 7.05484 13.6763 7.05547C13.6409 7.05614 13.6102 7.05556 13.5303 7.05556V8.05556ZM14.0303 7.05556L15.0303 7.05556C15.0303 6.61794 15.0303 5.05556 15.0303 4.55556H14.0303H13.0303C13.0303 5.05556 13.0303 6.61794 13.0303 7.05556L14.0303 7.05556ZM14.0303 4.55556L15.0303 4.55556C15.0303 4.64649 15.0086 4.75361 14.9534 4.85799C14.9001 4.95885 14.8331 5.024 14.785 5.06081C14.7058 5.12139 14.667 5.11446 14.7531 5.09612C14.8245 5.0809 14.9289 5.06886 15.0682 5.06224C15.2052 5.05573 15.3459 5.05556 15.4939 5.05556L15.4939 4.05556L15.4939 3.05556C15.2321 3.05556 14.7531 3.05125 14.3365 3.13999C14.1291 3.18415 13.8331 3.27097 13.57 3.47218C13.264 3.70617 13.0303 4.07937 13.0303 4.55556L14.0303 4.55556ZM15.4939 4.05556V5.05556C15.2264 5.05556 15.06 4.90049 15.0093 4.83415C14.9795 4.79507 15.0027 4.80902 15.0405 4.9463C15.1141 5.21312 15.1595 5.6207 15.1943 6.12442C15.2254 6.57477 15.2492 7.14112 15.2961 7.54561C15.3192 7.74529 15.3564 7.9951 15.4342 8.21593C15.4721 8.32357 15.5447 8.4994 15.6869 8.66408C15.8461 8.84855 16.1311 9.05556 16.5303 9.05556L16.5303 8.05556L16.5303 7.05556C16.8644 7.05556 17.0922 7.23131 17.2009 7.35718C17.2508 7.41509 17.2802 7.46589 17.2953 7.49474C17.3108 7.52463 17.3184 7.54537 17.3205 7.55143C17.3213 7.55351 17.3031 7.49082 17.2828 7.3155C17.2428 6.96999 17.2275 6.53634 17.1896 5.98669C17.1553 5.49042 17.1018 4.89799 16.9686 4.41482C16.9031 4.1771 16.7959 3.87854 16.5992 3.62071C16.3816 3.33563 16.0115 3.05556 15.4939 3.05556V4.05556ZM16.5303 8.05556L16.5303 9.05556C16.9018 9.05556 17.1609 8.86654 17.2974 8.72148C17.4219 8.58917 17.4878 8.45239 17.5187 8.38176C17.5821 8.23702 17.6174 8.08486 17.6366 7.99803C17.6586 7.89881 17.6807 7.78121 17.6991 7.68694C17.7191 7.58401 17.7389 7.48623 17.7617 7.39057C17.8098 7.18835 17.8586 7.0528 17.9033 6.97287C17.9459 6.89674 17.9302 6.96624 17.8162 7.00423L17.5 6.05554L17.1838 5.10686C16.6556 5.28292 16.3397 5.67146 16.158 5.99621C15.9784 6.31718 15.8786 6.66437 15.816 6.92764C15.7834 7.06472 15.7572 7.19536 15.736 7.30416C15.7131 7.42161 15.6986 7.49904 15.6839 7.56574C15.6664 7.64484 15.6648 7.62951 15.6864 7.58013C15.6965 7.55718 15.7403 7.4577 15.841 7.35078C15.9536 7.2311 16.187 7.05556 16.5303 7.05556L16.5303 8.05556ZM17.5 6.05554L17.8162 7.00423C17.8108 7.00603 17.8378 6.99466 17.9601 7.0054C18.0274 7.01131 18.0811 7.01897 18.1833 7.03116C18.2678 7.04123 18.3953 7.05556 18.5303 7.05556L18.5303 6.05556L18.5303 5.05556C18.5306 5.05556 18.5284 5.05556 18.5234 5.05532C18.5184 5.05508 18.5113 5.05464 18.5016 5.05385C18.4813 5.05218 18.4559 5.04949 18.42 5.04522C18.3603 5.0381 18.2436 5.0226 18.1351 5.01307C17.9058 4.99293 17.5597 4.98156 17.1838 5.10686L17.5 6.05554ZM18.5303 6.05556V7.05556C18.4817 7.05556 18.3759 7.04058 18.2651 6.96314C18.1593 6.88922 18.1146 6.80425 18.1015 6.77332C18.0896 6.74501 18.1234 6.82503 18.0978 7.08105C18.0497 7.56128 17.8433 8.19358 17.6359 8.60834L18.5303 9.05556L19.4247 9.50277C19.7174 8.91753 20.0109 8.04983 20.0878 7.28006C20.1247 6.91108 20.1273 6.4286 19.9435 5.99404C19.8444 5.75999 19.6786 5.51096 19.4107 5.32375C19.1378 5.13303 18.8289 5.05556 18.5303 5.05556V6.05556ZM18.5303 9.05556L17.6359 8.60834C17.4431 8.99388 17.3475 9.42198 17.2863 9.79324C17.2254 10.1623 17.1838 10.5806 17.1428 10.9203C17.0488 11.699 16.9369 12.1801 16.7303 12.4556L17.5303 13.0556L18.3303 13.6556C18.9045 12.89 19.0426 11.8711 19.1284 11.16C19.1773 10.7549 19.2081 10.4309 19.2596 10.1188C19.3107 9.80901 19.3675 9.61723 19.4247 9.50277L18.5303 9.05556ZM17.5303 13.0556L16.7303 12.4556C16.3399 12.9761 15.9649 13.4761 15.6875 13.8459C15.5488 14.0309 15.4345 14.1833 15.3549 14.2894C15.3151 14.3425 15.2839 14.3841 15.2627 14.4123C15.2521 14.4264 15.244 14.4373 15.2386 14.4445C15.2358 14.4482 15.2338 14.4509 15.2324 14.4528C15.2317 14.4537 15.2312 14.4544 15.2308 14.4549C15.2307 14.4551 15.2305 14.4553 15.2304 14.4554C15.2304 14.4554 15.2304 14.4555 15.2303 14.4555C15.2303 14.4555 15.2303 14.4555 15.2303 14.4555C15.2303 14.4556 15.2303 14.4556 16.0303 15.0556C16.8303 15.6556 16.8303 15.6556 16.8303 15.6555C16.8303 15.6555 16.8303 15.6555 16.8303 15.6555C16.8304 15.6555 16.8304 15.6554 16.8304 15.6554C16.8305 15.6553 16.8307 15.6551 16.8308 15.6549C16.8312 15.6544 16.8317 15.6537 16.8324 15.6528C16.8338 15.6509 16.8358 15.6482 16.8386 15.6445C16.844 15.6373 16.8521 15.6264 16.8627 15.6123C16.8839 15.5841 16.9151 15.5425 16.9549 15.4894C17.0345 15.3833 17.1488 15.2309 17.2875 15.0459C17.5649 14.6761 17.9399 14.1761 18.3303 13.6556L17.5303 13.0556ZM16.0303 15.0556C15.0303 15.0556 15.0303 15.0553 15.0303 15.055C15.0303 15.055 15.0303 15.0547 15.0303 15.0545C15.0303 15.0542 15.0303 15.0539 15.0303 15.0536C15.0303 15.053 15.0303 15.0525 15.0303 15.052C15.0303 15.0511 15.0303 15.0503 15.0303 15.0498C15.0303 15.0487 15.0303 15.0484 15.0303 15.0489C15.0303 15.0499 15.0302 15.0538 15.03 15.0602C15.0295 15.0733 15.0284 15.0952 15.0259 15.1228C15.0206 15.1825 15.0109 15.246 14.9974 15.2965C14.9804 15.3599 14.9759 15.3333 15.0249 15.2725C15.0547 15.2354 15.111 15.1779 15.2008 15.13C15.2955 15.0796 15.3985 15.0556 15.4939 15.0556V16.0556V17.0556C15.9913 17.0556 16.3594 16.8043 16.5832 16.5262C16.783 16.2778 16.8791 16.0012 16.9291 15.8146C16.9826 15.6151 17.0065 15.4287 17.018 15.3008C17.0239 15.2346 17.0269 15.1784 17.0285 15.1368C17.0293 15.1159 17.0298 15.0983 17.03 15.0847C17.0301 15.0778 17.0302 15.0719 17.0303 15.0671C17.0303 15.0646 17.0303 15.0625 17.0303 15.0605C17.0303 15.0596 17.0303 15.0587 17.0303 15.0578C17.0303 15.0574 17.0303 15.057 17.0303 15.0567C17.0303 15.0565 17.0303 15.0562 17.0303 15.0561C17.0303 15.0558 17.0303 15.0556 16.0303 15.0556ZM15.4939 16.0556L15.4939 15.0556C15.693 15.0556 15.7977 15.1538 15.7739 15.1338C15.7372 15.103 15.6932 15.0529 15.5594 14.8991C15.4554 14.7797 15.2789 14.5763 15.0556 14.4099C14.8151 14.2307 14.4708 14.0556 14.0303 14.0556L14.0303 15.0556L14.0303 16.0556C13.9152 16.0556 13.8494 16.0054 13.8605 16.0137C13.8889 16.0348 13.937 16.0815 14.0506 16.212C14.1343 16.3082 14.3007 16.5081 14.487 16.6648C14.6863 16.8323 15.0268 17.0556 15.4939 17.0556L15.4939 16.0556ZM14.0303 15.0556L14.0303 14.0556C13.1706 14.0556 12.6595 14.6966 12.4574 14.9963C12.3336 15.1797 12.2439 15.3562 12.1858 15.483C12.1562 15.5478 12.1332 15.6032 12.1168 15.6445C12.1086 15.6653 12.1019 15.6828 12.0969 15.6964C12.0943 15.7033 12.0922 15.7092 12.0904 15.7141C12.0895 15.7165 12.0887 15.7187 12.088 15.7207C12.0877 15.7216 12.0874 15.7226 12.0871 15.7234C12.0869 15.7238 12.0868 15.7242 12.0867 15.7246C12.0866 15.7248 12.0865 15.7251 12.0865 15.7252C12.0864 15.7255 12.0863 15.7257 13.0303 16.0556C13.9744 16.3854 13.9743 16.3856 13.9742 16.3859C13.9741 16.386 13.9741 16.3862 13.974 16.3864C13.9739 16.3867 13.9738 16.387 13.9737 16.3873C13.9735 16.3879 13.9733 16.3885 13.9731 16.389C13.9727 16.39 13.9725 16.3907 13.9723 16.3913C13.9719 16.3924 13.9717 16.3927 13.9719 16.3922C13.9723 16.3912 13.9738 16.3872 13.9764 16.3806C13.9817 16.3673 13.991 16.3445 14.0043 16.3156C14.0321 16.2549 14.0704 16.1814 14.1153 16.1148C14.1372 16.0824 14.1572 16.0567 14.1744 16.0374C14.1828 16.0281 14.1895 16.0212 14.1946 16.0165C14.1996 16.0118 14.2021 16.0099 14.2019 16.0101C14.2009 16.0108 14.1386 16.0556 14.0303 16.0556L14.0303 15.0556ZM13.0303 16.0556V15.0556H10.0303V16.0556V17.0556H13.0303V16.0556ZM16.0303 14.0556H17.0303V10.0556H16.0303H15.0303V14.0556H16.0303ZM16.0303 10.0556V9.05556H15.0303V10.0556V11.0556H16.0303V10.0556ZM15.0303 10.0556H14.0303V14.0556H15.0303H16.0303V10.0556H15.0303ZM15.0303 14.0556V15.0556H16.0303V14.0556V13.0556H15.0303V14.0556ZM13.0303 13.0556H12.0303C12.0303 13.3726 12.1377 13.7606 12.2589 14.047C12.3235 14.1997 12.4217 14.3954 12.5654 14.571C12.6808 14.7119 13.002 15.0556 13.5303 15.0556V14.0556V13.0556C13.7316 13.0556 13.8832 13.1253 13.9707 13.1813C14.054 13.2345 14.099 13.2871 14.1128 13.3038C14.1376 13.3342 14.1275 13.3307 14.1007 13.2673C14.0777 13.2131 14.0567 13.1482 14.0423 13.0894C14.0354 13.0609 14.0315 13.04 14.0298 13.0282C14.0275 13.0131 14.0303 13.0243 14.0303 13.0556H13.0303ZM13.5303 14.0556V15.0556C14.0502 15.0556 14.3713 14.7254 14.4951 14.5759C14.6423 14.3981 14.7413 14.1999 14.8059 14.0459C14.9283 13.7543 15.0303 13.3687 15.0303 13.0556H14.0303H13.0303C13.0303 13.0148 13.0346 13.0271 13.018 13.0972C13.0041 13.156 12.9837 13.2196 12.9618 13.2718C12.936 13.3334 12.9272 13.3335 12.9547 13.3002C12.9701 13.2817 13.0165 13.2287 13.1009 13.176C13.1901 13.1202 13.3378 13.0556 13.5303 13.0556V14.0556ZM14.0303 13.0556H15.0303V11.0556H14.0303H13.0303V13.0556H14.0303ZM14.0303 11.0556H15.0303C15.0303 10.7385 14.9229 10.3505 14.8017 10.0642C14.7371 9.91141 14.639 9.71568 14.4952 9.54015C14.3798 9.39921 14.0586 9.05556 13.5303 9.05556V10.0556V11.0556C13.329 11.0556 13.1774 10.9858 13.0899 10.9298C13.0067 10.8766 12.9616 10.8241 12.9478 10.8073C12.923 10.7769 12.9331 10.7804 12.9599 10.8438C12.9829 10.898 13.004 10.9629 13.0183 11.0217C13.0252 11.0502 13.0291 11.0711 13.0308 11.0829C13.0331 11.098 13.0303 11.0868 13.0303 11.0556H14.0303ZM13.5303 10.0556V9.05556C13.0104 9.05556 12.6894 9.38569 12.5655 9.53525C12.4183 9.71297 12.3193 9.91124 12.2547 10.0653C12.1323 10.3568 12.0303 10.7424 12.0303 11.0556H13.0303H14.0303C14.0303 11.0963 14.026 11.084 14.0426 11.0139C14.0565 10.9551 14.0769 10.8915 14.0988 10.8393C14.1247 10.7777 14.1334 10.7776 14.1059 10.8109C14.0905 10.8294 14.0441 10.8824 13.9597 10.9351C13.8705 10.9909 13.7228 11.0556 13.5303 11.0556V10.0556ZM13.0303 11.0556H12.0303V13.0556H13.0303H14.0303V11.0556H13.0303ZM11.0303 13.0556H10.0303C10.0303 13.3726 10.1377 13.7606 10.2589 14.047C10.3235 14.1997 10.4217 14.3954 10.5654 14.571C10.6808 14.7119 11.002 15.0556 11.5303 15.0556V14.0556V13.0556C11.7316 13.0556 11.8832 13.1253 11.9707 13.1813C12.054 13.2345 12.099 13.2871 12.1128 13.3038C12.1376 13.3342 12.1275 13.3307 12.1007 13.2673C12.0777 13.2131 12.0567 13.1482 12.0423 13.0894C12.0354 13.0609 12.0315 13.04 12.0298 13.0282C12.0275 13.0131 12.0303 13.0243 12.0303 13.0556H11.0303ZM11.5303 14.0556V15.0556C12.0502 15.0556 12.3713 14.7254 12.4951 14.5759C12.6423 14.3981 12.7413 14.1999 12.8059 14.0459C12.9283 13.7543 13.0303 13.3687 13.0303 13.0556H12.0303H11.0303C11.0303 13.0148 11.0346 13.0271 11.018 13.0972C11.0041 13.156 10.9837 13.2196 10.9618 13.2718C10.936 13.3334 10.9272 13.3335 10.9547 13.3002C10.9701 13.2817 11.0165 13.2287 11.1009 13.176C11.1901 13.1202 11.3378 13.0556 11.5303 13.0556V14.0556ZM12.0303 13.0556H13.0303V11.0556H12.0303H11.0303V13.0556H12.0303ZM12.0303 11.0556H13.0303C13.0303 10.7385 12.9229 10.3505 12.8017 10.0642C12.7371 9.91141 12.639 9.71568 12.4952 9.54015C12.3798 9.39921 12.0586 9.05556 11.5303 9.05556V10.0556V11.0556C11.329 11.0556 11.1774 10.9858 11.0899 10.9298C11.0067 10.8766 10.9616 10.8241 10.9478 10.8073C10.923 10.7769 10.9331 10.7804 10.9599 10.8438C10.9829 10.898 11.004 10.9629 11.0183 11.0217C11.0252 11.0502 11.0291 11.0711 11.0308 11.0829C11.0331 11.098 11.0303 11.0868 11.0303 11.0556H12.0303ZM11.5303 10.0556V9.05556C11.0104 9.05556 10.6894 9.38569 10.5655 9.53525C10.4183 9.71297 10.3193 9.91124 10.2547 10.0653C10.1323 10.3568 10.0303 10.7424 10.0303 11.0556H11.0303H12.0303C12.0303 11.0963 12.026 11.084 12.0426 11.0139C12.0565 10.9551 12.0769 10.8915 12.0988 10.8393C12.1247 10.7777 12.1334 10.7776 12.1059 10.8109C12.0905 10.8294 12.0441 10.8824 11.9597 10.9351C11.8705 10.9909 11.7228 11.0556 11.5303 11.0556V10.0556ZM11.0303 11.0556H10.0303V13.0556H11.0303H12.0303V11.0556H11.0303Z" fill="var(--stroke-0, black)" mask="url(#path-1-outside-1_174_78316)"/>
</g>
<defs>
<filter id="filter0_d_174_78316" x="-5.16176e-05" y="-0.000256062" width="24.1078" height="22.0558" filterUnits="userSpaceOnUse" color-interpolation-filters="sRGB">
<feFlood flood-opacity="0" result="BackgroundImageFix"/>
<feColorMatrix in="SourceAlpha" type="matrix" values="0 0 0 0 0 0 0 0 0 0 0 0 0 0 0 0 0 0 127 0" result="hardAlpha"/>
<feOffset dy="1"/>
<feGaussianBlur stdDeviation="2"/>
<feColorMatrix type="matrix" values="0 0 0 0 0 0 0 0 0 0 0 0 0 0 0 0 0 0 0.4 0"/>
<feBlend mode="normal" in2="BackgroundImageFix" result="effect1_dropShadow_174_78316"/>
<feBlend mode="normal" in="SourceGraphic" in2="effect1_dropShadow_174_78316" result="shape"/>
</filter>
</defs>
</svg>
