<svg preserveAspectRatio="none" width="100%" height="100%" overflow="visible" style="display: block;" viewBox="0 0 12 9" fill="none" xmlns="http://www.w3.org/2000/svg">
<path id="Vector" d="M7.92816 4.5C8.68463 4.5001 9.61028 4.8928 10.3129 5.45312C11.1579 6.12711 11.5501 6.9399 10.8598 7.49512C10.3357 7.9161 8.24096 8.11868 6.54632 7.98242L7.21038 6.97852C7.86823 7.01545 8.57736 7.00496 9.16058 6.94824C9.63771 6.90179 10.0036 6.82257 10.1645 6.75293C10.0942 6.61231 9.92473 6.42347 9.6889 6.23535C9.14955 5.80526 8.43158 5.50012 7.92816 5.5C7.71569 5.50004 7.45983 5.55699 7.18597 5.66602L6.54632 4.86719C6.93038 4.71414 7.25812 4.50004 7.92816 4.5ZM3.26507 4C4.02147 4.00021 4.94632 4.39291 5.64886 4.95312C6.49395 5.62715 6.8861 6.43985 6.19573 6.99512C5.34043 7.68149 1.15535 7.65474 0.33343 6.99512C-0.33056 6.46126 0.0720042 5.66377 0.90179 4.98047C1.60362 4.40264 2.50936 4 3.26507 4ZM3.26409 5C2.77091 5.00016 2.0751 5.30943 1.53753 5.75195C1.3104 5.93897 1.14109 6.12786 1.06195 6.27246C1.77807 6.57203 4.85461 6.58422 5.50238 6.25684C5.43321 6.11577 5.26297 5.92526 5.02484 5.73535C4.48538 5.30517 3.76753 5 3.26409 5ZM8.25042 0.5C9.21678 0.500163 10.0004 1.2836 10.0004 2.25C10.0004 3.2164 9.21678 3.99984 8.25042 4C7.28404 3.99986 6.50042 3.21641 6.50042 2.25C6.50042 1.28359 7.28404 0.500136 8.25042 0.5ZM3.27581 0C4.24217 0.000162532 5.02581 0.783602 5.02581 1.75C5.02581 2.7164 4.24217 3.49984 3.27581 3.5C2.30941 3.49989 1.52581 2.71643 1.52581 1.75C1.52581 0.783569 2.30941 0.000109305 3.27581 0ZM8.25042 1.5C7.83632 1.50014 7.50042 1.83587 7.50042 2.25C7.50042 2.66413 7.83632 2.99986 8.25042 3C8.6645 2.99984 9.00042 2.66411 9.00042 2.25C9.00042 1.83589 8.6645 1.50016 8.25042 1.5ZM3.27581 1C2.86169 1.00011 2.52581 1.33585 2.52581 1.75C2.52581 2.16415 2.86169 2.49989 3.27581 2.5C3.68989 2.49984 4.02581 2.16411 4.02581 1.75C4.02581 1.33589 3.68989 1.00016 3.27581 1Z" fill="var(--fill-0, #092540)"/>
</svg>
