<svg preserveAspectRatio="none" width="100%" height="100%" overflow="visible" style="display: block;" viewBox="0 0 19 24" fill="none" xmlns="http://www.w3.org/2000/svg">
<path id="IconShape" d="M11.0908 23.1123H7.09082V7.1123H11.0908V23.1123ZM0.0605469 8.48535C0.461679 8.75952 0.947189 8.91988 1.46973 8.91992C1.966 8.91992 2.42751 8.77281 2.81641 8.52344L2.90137 8.6084C2.6521 8.99713 2.50598 9.45903 2.50586 9.95508C2.50595 10.4511 2.65217 10.913 2.90137 11.3018L2.81641 11.3867C2.42755 11.1374 1.96593 10.9912 1.46973 10.9912C0.947551 10.9913 0.462493 11.151 0.0615234 11.4248L0 11.3633C0.273705 10.9624 0.434476 10.4771 0.43457 9.95508C0.434447 9.43273 0.274059 8.94691 0 8.5459L0.0605469 8.48535ZM15.6172 5.65723C16.0183 5.93137 16.5038 6.0918 17.0264 6.0918C17.5227 6.09178 17.9841 5.94477 18.373 5.69531L18.458 5.78027C18.2086 6.16915 18.0616 6.63068 18.0615 7.12695C18.0616 7.62296 18.2078 8.0849 18.457 8.47363L18.3721 8.55762C17.9834 8.30862 17.5222 8.1631 17.0264 8.16309C16.5039 8.16309 16.0193 8.32362 15.6182 8.59766L15.5557 8.53516C15.8296 8.13415 15.9911 7.64925 15.9912 7.12695C15.9912 6.60439 15.8289 6.11989 15.5547 5.71875L15.6172 5.65723ZM11.0908 5.45508H7.09082V1.45508H11.0908V5.45508ZM2.88867 0C3.28994 0.274381 3.77603 0.43457 4.29883 0.43457C4.79493 0.434481 5.25576 0.287381 5.64453 0.0380859L5.72949 0.123047C5.48008 0.51192 5.33403 0.973454 5.33398 1.46973C5.33398 1.96595 5.48017 2.42754 5.72949 2.81641L5.64453 2.90039C5.25589 2.65135 4.79466 2.50595 4.29883 2.50586C3.7764 2.50586 3.29075 2.66543 2.88965 2.93945L2.82812 2.87793C3.10208 2.47686 3.2627 1.99208 3.2627 1.46973C3.26265 0.947126 3.10138 0.462683 2.82715 0.0615234L2.88867 0Z" fill="var(--fill-0, #B6BEC6)"/>
</svg>
