<svg preserveAspectRatio="none" width="100%" height="100%" overflow="visible" style="display: block;" viewBox="0 0 23 18" fill="none" xmlns="http://www.w3.org/2000/svg">
<path id="IconShape" d="M4.24316 6.53516C6.19574 4.58307 9.36196 4.58294 11.3145 6.53516C13.2665 8.48766 13.2665 11.6539 11.3145 13.6064C9.60397 15.3169 6.96196 15.5285 5.02051 14.2422L1.41406 17.8496L0 16.4346L3.60547 12.8281C2.31995 10.8868 2.53299 8.24533 4.24316 6.53516ZM22.1729 17H14.1729V15H22.1729V17ZM9.90039 7.9502C8.7289 6.7787 6.82882 6.77887 5.65723 7.9502C4.48595 9.12177 4.48581 11.0209 5.65723 12.1924C6.82882 13.3637 8.7289 13.3639 9.90039 12.1924C11.0713 11.021 11.0711 9.12167 9.90039 7.9502ZM22.1729 12H16.1729V10H22.1729V12ZM22.1729 7H14.1729V5H22.1729V7ZM22 2H2V0H22V2Z" fill="var(--fill-0, #B6BEC6)"/>
</svg>
