<svg preserveAspectRatio="none" width="100%" height="100%" overflow="visible" style="display: block;" viewBox="0 0 15 15" fill="none" xmlns="http://www.w3.org/2000/svg">
<path id="Shape" fill-rule="evenodd" clip-rule="evenodd" d="M14.6667 7.33333C14.6667 11.3834 11.3834 14.6667 7.33333 14.6667C3.28325 14.6667 0 11.3834 0 7.33333C0 3.28325 3.28325 0 7.33333 0C11.3834 0 14.6667 3.28325 14.6667 7.33333ZM6.41667 8.06667C6.41667 8.57293 6.82707 8.98333 7.33333 8.98333C7.83959 8.98333 8.25 8.57293 8.25 8.06667V3.48333C8.25 2.97707 7.83959 2.56667 7.33333 2.56667C6.82707 2.56667 6.41667 2.97707 6.41667 3.48333V8.06667ZM7.33333 11.4278C6.82707 11.4278 6.41667 11.0174 6.41667 10.5111C6.41667 10.0049 6.82707 9.59444 7.33333 9.59444C7.83959 9.59444 8.25 10.0049 8.25 10.5111C8.25 11.0174 7.83959 11.4278 7.33333 11.4278Z" fill="var(--fill-0, #E95F5F)"/>
</svg>
