<svg preserveAspectRatio="none" width="100%" height="100%" overflow="visible" style="display: block;" viewBox="0 0 16 16" fill="none" xmlns="http://www.w3.org/2000/svg">
<g id="Icon/Flag/germany">
<path id="Shape" d="M0.497594 10.7826C1.62794 13.829 4.56028 16 8 16C11.4397 16 14.3721 13.829 15.5024 10.7826L8 10.087L0.497594 10.7826Z" fill="var(--fill-0, #FFDA44)"/>
<path id="Shape_2" d="M8 0C4.56028 0 1.62794 2.171 0.497594 5.21741L8 5.91303L15.5024 5.21738C14.3721 2.171 11.4397 0 8 0Z" fill="var(--fill-0, black)"/>
<path id="Shape_3" d="M0.497594 5.21741C0.176031 6.08406 0 7.02144 0 8C0 8.97856 0.176031 9.91594 0.497594 10.7826H15.5024C15.824 9.91594 16 8.97856 16 8C16 7.02144 15.824 6.08406 15.5024 5.21741H0.497594Z" fill="var(--fill-0, #D80027)"/>
</g>
</svg>
