<svg preserveAspectRatio="none" width="100%" height="100%" overflow="visible" style="display: block;" viewBox="0 0 84 12" fill="none" xmlns="http://www.w3.org/2000/svg">
<path id="Union" d="M3.62598 3.23633C4.61665 3.23634 5.40458 3.46681 5.98926 3.92676C6.45417 4.28542 6.77087 4.75189 6.94141 5.32129L5.13672 5.7666L5.13477 5.75879C5.13477 5.75879 4.89648 5.30315 4.51074 5.10254C4.28338 4.97089 3.98284 4.90332 3.60938 4.90332C3.20372 4.90336 2.88933 4.98085 2.66406 5.13867C2.4509 5.29672 2.34278 5.49346 2.34277 5.72852C2.34277 5.97573 2.5072 6.17246 2.83203 6.31836C3.15686 6.46425 3.59181 6.60003 4.13184 6.72363C4.71636 6.85937 5.25229 7.01154 5.73535 7.17969C6.23063 7.33774 6.62468 7.57907 6.91699 7.90527C7.20912 8.22136 7.35539 8.675 7.35742 9.27051C7.36757 9.78722 7.23337 10.2535 6.95117 10.6689C6.66899 11.0842 6.26511 11.4105 5.73535 11.6455C5.20548 11.8826 4.58204 12 3.86133 12C3.11835 12 2.46466 11.8805 1.90234 11.6455C1.33998 11.3983 0.888767 11.0613 0.551758 10.6338C0.279936 10.2874 0.0953709 9.89826 0 9.46484L1.95508 9.16504C2.02613 9.32107 2.29855 9.72007 2.58887 9.92676C2.61321 9.94903 2.63769 9.96991 2.66406 9.99219C2.96852 10.2169 3.35629 10.3281 3.8291 10.3281C4.30197 10.3281 4.64525 10.2334 4.8584 10.043C5.08375 9.85249 5.19531 9.63295 5.19531 9.38574C5.19522 9.02532 5.03708 8.78376 4.72266 8.66016C4.40595 8.52642 3.96666 8.39704 3.4043 8.27344C3.04518 8.19647 2.67988 8.09965 2.30859 7.98828C1.93716 7.87483 1.59391 7.73454 1.2793 7.56641C0.974791 7.38608 0.726964 7.16108 0.536133 6.8916C0.345296 6.61197 0.25 6.26952 0.25 5.86426C0.250007 5.12263 0.542269 4.50072 1.12695 3.99414C1.72382 3.48961 2.5561 3.23633 3.62598 3.23633ZM39.3271 3.23828C39.9564 3.23828 40.5085 3.3558 40.9814 3.59277C41.4545 3.82783 41.8366 4.16033 42.1289 4.58789V3.44043H44.2891V11.7998H42.3643L42.1289 10.6016C41.8589 10.9723 41.4994 11.2985 41.0488 11.5781C40.6083 11.8598 40.0357 12 39.3271 12C38.5395 12 37.8349 11.8097 37.2178 11.4268C36.5986 11.0438 36.1093 10.5229 35.75 9.86035C35.3907 9.19774 35.21 8.44347 35.21 7.60254C35.21 6.76176 35.3907 6.01169 35.75 5.36133C36.1093 4.69888 36.6007 4.18228 37.2178 3.81152C37.837 3.42856 38.5395 3.2383 39.3271 3.23828ZM69.3223 3.23828C70.1445 3.23828 70.8697 3.41868 71.499 3.77734C72.1304 4.136 72.6196 4.63058 72.9688 5.26074C73.328 5.87863 73.5087 6.5693 73.5088 7.33301C73.5088 7.45661 73.5024 7.58697 73.4902 7.7207C73.4902 7.85628 73.4847 7.99592 73.4746 8.1416H67.1113C67.156 8.79408 67.3821 9.30496 67.7861 9.67578C68.2023 10.0465 68.7035 10.2314 69.2881 10.2314C69.7266 10.2314 70.0923 10.1358 70.3867 9.94531C70.6891 9.7427 70.9143 9.48499 71.0625 9.16895H73.2568C73.1005 9.69782 72.8344 10.1805 72.4629 10.6182C72.1036 11.0456 71.6531 11.3818 71.1133 11.6289C70.5835 11.8761 69.9806 12 69.3066 12C68.4622 12 67.7152 11.8195 67.0615 11.4609C66.4099 11.1023 65.8959 10.5958 65.5244 9.94336C65.1529 9.29088 64.9678 8.53863 64.9678 7.68555C64.9678 6.82048 65.1485 6.05056 65.5078 5.37793C65.8793 4.70319 66.3849 4.18234 67.0264 3.81152C67.68 3.4286 68.4434 3.23834 69.3223 3.23828ZM76.71 4.63672C76.98 4.2659 77.3359 3.93881 77.7744 3.65918C78.225 3.37771 78.8035 3.23832 79.5117 3.23828C80.2993 3.23828 81.0019 3.42863 81.6211 3.81152C82.2403 4.19448 82.7295 4.71537 83.0889 5.37793C83.4481 6.04041 83.6288 6.79403 83.6289 7.63477C83.6289 8.47569 83.4482 9.22997 83.0889 9.89258C82.7295 10.545 82.2403 11.0615 81.6211 11.4424C81.006 11.8152 80.3014 12 79.5137 12C78.8824 12 78.3323 11.8825 77.8594 11.6455C77.3863 11.4105 77.0043 11.0779 76.7119 10.6504L76.4746 11.7969H74.5498V0.0712891H76.71V4.63672ZM22.7949 3.23438C23.8871 3.23439 24.7259 3.5605 25.3105 4.21094C25.8951 4.86341 26.1875 5.81797 26.1875 7.07617V11.7949H24.0273V7.28223C24.0273 6.56311 23.8866 6.01173 23.6045 5.63086C23.3345 5.24818 22.9122 5.05762 22.3379 5.05762C21.7533 5.05766 21.2802 5.27073 20.9209 5.69824C20.5718 6.12579 20.3975 6.7215 20.3975 7.48535V11.7998H18.2373V7.28223C18.2372 6.56311 18.0966 6.01173 17.8145 5.63086C17.5323 5.24819 17.1 5.05764 16.5156 5.05762C15.9411 5.05762 15.4736 5.27069 15.1143 5.69824C14.7652 6.12578 14.5908 6.72159 14.5908 7.48535V11.7998H12.4307V3.43848H14.3389L14.5234 4.56738C14.7934 4.16214 15.1494 3.84247 15.5879 3.60742C16.0385 3.36023 16.556 3.23635 17.1406 3.23633C18.4337 3.23633 19.3516 3.73652 19.8916 4.73535C20.196 4.27556 20.6001 3.90911 21.1074 3.63965C21.6251 3.37015 22.1879 3.23438 22.7949 3.23438ZM33.9697 11.7998H31.8096V0.0712891H33.9697V11.7998ZM55.4629 9.45703L57.1504 3.44043H59.5479L61.2344 9.45703L62.7041 3.44043H64.8486L62.3838 11.7998H60.1387L58.3496 5.5459L56.5596 11.7998H54.3154L51.8672 3.44043H54.0117L55.4629 9.45703ZM10.6426 11.7979H8.48242V3.43945H10.6426V11.7979ZM48.1504 5.00488C48.4529 4.46602 48.8652 4.03863 49.3828 3.72461C49.7259 3.51601 50.1904 3.4385 50.6309 3.43848L51.2383 5.51172H50.6309C50.1579 5.51174 49.7357 5.58461 49.3643 5.73047C48.9928 5.87634 48.7005 6.12972 48.4854 6.48828C48.2823 6.84694 48.1826 7.34796 48.1826 7.98828V11.7979H46.0225V3.43848H47.9473L48.1504 5.00488ZM30.0186 11.7969H27.8584V3.43848H30.0186V11.7969ZM39.7822 5.125C39.096 5.125 38.5269 5.35545 38.0762 5.81543C37.6256 6.27532 37.4005 6.87126 37.4004 7.60254C37.4004 8.33187 37.6257 8.93416 38.0762 9.40625C38.5269 9.87636 39.096 10.1133 39.7822 10.1133C40.4804 10.1132 41.0489 9.88266 41.4873 9.42285C41.938 8.95072 42.1631 8.3486 42.1631 7.61914C42.1631 6.88969 41.938 6.29403 41.4873 5.83203C41.0488 5.35994 40.4805 5.12505 39.7822 5.125ZM79.0596 5.125C78.3612 5.125 77.7886 5.3599 77.3379 5.83203C76.8994 6.29201 76.6797 6.88764 76.6797 7.61914C76.6797 8.34857 76.8994 8.95074 77.3379 9.42285C77.7865 9.88263 78.3613 10.1133 79.0596 10.1133C79.7455 10.1132 80.314 9.88265 80.7646 9.42285C81.2153 8.96287 81.4404 8.36627 81.4404 7.63477C81.4403 6.90557 81.2152 6.30404 80.7646 5.83203C80.314 5.35997 79.7477 5.12507 79.0596 5.125ZM69.3223 4.98926C68.7926 4.98933 68.3258 5.14144 67.9219 5.44531C67.516 5.73704 67.2582 6.18642 67.1445 6.79199H71.3145C71.2799 6.241 71.0785 5.80371 70.707 5.47754C70.3355 5.15333 69.8745 4.98926 69.3223 4.98926ZM9.5625 0.000976562C9.91773 0.00100195 10.2083 0.11209 10.4316 0.334961C10.665 0.547697 10.7822 0.825709 10.7822 1.16602C10.7821 1.5062 10.6649 1.78788 10.4316 2.0127C10.2083 2.23557 9.91773 2.34665 9.5625 2.34668C9.20734 2.34668 8.91312 2.23544 8.67969 2.0127C8.45645 1.78988 8.34481 1.50628 8.34473 1.16602C8.34473 0.825592 8.45637 0.547726 8.67969 0.334961C8.91313 0.112175 9.20731 0.000976562 9.5625 0.000976562ZM28.9385 0C29.2937 0 29.5843 0.111177 29.8076 0.333984C30.0411 0.546728 30.1592 0.824662 30.1592 1.16504C30.1592 1.50534 30.0409 1.78684 29.8076 2.01172C29.5843 2.23462 29.2938 2.34668 28.9385 2.34668C28.5833 2.34665 28.2891 2.23459 28.0557 2.01172C27.8324 1.78884 27.7207 1.5054 27.7207 1.16504C27.7207 0.824662 27.8324 0.546728 28.0557 0.333984C28.2891 0.111292 28.5834 2.69294e-05 28.9385 0Z" fill="var(--fill-0, #092540)"/>
</svg>
