<svg preserveAspectRatio="none" width="100%" height="100%" overflow="visible" style="display: block;" viewBox="0 0 23 17" fill="none" xmlns="http://www.w3.org/2000/svg">
<path id="Vector" d="M15.8555 9C17.3686 9.00003 19.2186 9.78544 20.624 10.9062C22.3144 12.2543 23.0996 13.8787 21.7188 14.9893C20.6712 15.8315 16.4816 16.2375 13.0918 15.9648L14.4199 13.957C15.7361 14.0309 17.1545 14.01 18.3213 13.8965C19.2756 13.8036 20.0064 13.6461 20.3281 13.5068C20.1877 13.2254 19.8494 12.8465 19.377 12.4697C18.2981 11.6094 16.8623 11 15.8555 11C15.4301 11 14.9185 11.1145 14.3701 11.333L13.0918 9.73535C13.8602 9.4292 14.5148 9 15.8555 9ZM6.52832 8C8.04142 8.00004 9.89142 8.78542 11.2969 9.90625C12.9875 11.2545 13.772 12.8786 12.3906 13.9893C10.6815 15.3629 2.30698 15.3094 0.665039 13.9893C-0.662694 12.9215 0.14305 11.3265 1.80273 9.95996C3.20638 8.80435 5.01694 8 6.52832 8ZM6.52832 10C5.54171 10 4.14873 10.6184 3.07324 11.5039C2.61898 11.8779 2.28134 12.2557 2.12305 12.5449C3.55553 13.1442 9.71071 13.1688 11.0049 12.5137C10.8667 12.2315 10.5263 11.8497 10.0498 11.4697C8.97093 10.6094 7.5352 10.0001 6.52832 10ZM16.5 1C18.433 1.00005 20 2.56704 20 4.5C20 6.43296 18.433 7.99995 16.5 8C14.567 7.99995 13 6.43296 13 4.5C13 2.56704 14.567 1.00005 16.5 1ZM6.55078 0C8.48373 5.28278e-05 10.0508 1.56704 10.0508 3.5C10.0508 5.43296 8.48373 6.99995 6.55078 7C4.61778 7 3.05078 5.433 3.05078 3.5C3.05078 1.567 4.61778 0 6.55078 0ZM16.5 3C15.6716 3.00005 15 3.67161 15 4.5C15 5.32839 15.6716 5.99995 16.5 6C17.3284 5.99995 18 5.32839 18 4.5C18 3.67161 17.3284 3.00005 16.5 3ZM6.55078 2C5.72235 2 5.05078 2.67157 5.05078 3.5C5.05078 4.32843 5.72235 5 6.55078 5C7.37916 4.99995 8.05078 4.32839 8.05078 3.5C8.05078 2.67161 7.37916 2.00005 6.55078 2Z" fill="var(--fill-0, #6B7C8C)"/>
</svg>
