<svg preserveAspectRatio="none" width="100%" height="100%" overflow="visible" style="display: block;" viewBox="0 0 14 22" fill="none" xmlns="http://www.w3.org/2000/svg">
<path id="IconShape" d="M11.375 0C12.8246 0 13.9998 1.28452 14 2.86914V19.1309C13.9998 20.7155 12.8246 22 11.375 22H2.625C1.17538 22 0.000209314 20.7155 0 19.1309V2.86914C0.000209903 1.28452 1.17538 0 2.625 0H11.375ZM2 19.0527C2.00005 19.5758 2.37295 19.9998 2.83301 20H11.167C11.627 19.9998 12 19.5758 12 19.0527V16H2V19.0527ZM10 19H4V17H10V19ZM2 14H12V6H2V14ZM2.83301 2C2.37295 2.0002 2.00005 2.42422 2 2.94727V4H12V2.94727C12 2.42422 11.627 2.0002 11.167 2H2.83301Z" fill="var(--fill-0, #B6BEC6)"/>
</svg>
