<svg preserveAspectRatio="none" width="100%" height="100%" overflow="visible" style="display: block;" viewBox="0 0 10 10" fill="none" xmlns="http://www.w3.org/2000/svg">
<path id="Vector" d="M4.74414 0.15625C4.94538 -0.0491818 5.27466 -0.0525052 5.48047 0.148438C5.48325 0.151155 5.48654 0.153471 5.48926 0.15625L9.85156 4.61914C10.0524 4.82468 10.0489 5.15422 9.84375 5.35547L9.7959 5.40234C9.59044 5.60387 9.26027 5.60078 9.05859 5.39551C9.05513 5.39198 9.05122 5.38839 9.04785 5.38477L8.96387 5.29395V9.00195C8.96387 9.28975 8.73031 9.52344 8.44238 9.52344H6.26562C5.9777 9.52344 5.74414 9.28975 5.74414 9.00195V7.43945H4.36426V9.00195C4.36426 9.28975 4.1307 9.52344 3.84277 9.52344H1.66504C1.37729 9.52323 1.14453 9.28962 1.14453 9.00195V5.28613L0.87207 5.57031C0.678725 5.77179 0.357855 5.77819 0.15625 5.58496C-0.0482825 5.3855 -0.0520182 5.0628 0.144531 4.86133L4.33203 0.577148L4.74414 0.15625ZM2.06445 4.32715V8.48145H3.44434V6.91797C3.44435 6.63018 3.6779 6.39648 3.96582 6.39648H6.14258C6.43049 6.39648 6.66405 6.63018 6.66406 6.91797V8.48145H8.04395V4.3125H8.05371L5.11621 1.14551L2.06445 4.32715Z" fill="var(--fill-0, #092540)"/>
</svg>
