<svg preserveAspectRatio="none" width="100%" height="100%" overflow="visible" style="display: block;" viewBox="0 0 10 10" fill="none" xmlns="http://www.w3.org/2000/svg">
<path id="Vector" d="M4.31152 0.0478516C4.77491 -0.0159427 5.22591 -0.0163813 5.69141 0.0478516C6.08807 0.103068 6.39847 0.416726 6.45117 0.814453L6.51953 1.33398L6.93359 1.01562C7.2517 0.770623 7.69504 0.76862 8.01465 1.01074C8.38294 1.28934 8.71084 1.61812 8.99023 1.9873C9.23158 2.30698 9.23026 2.7491 8.98633 3.06641L8.66699 3.48145L9.18555 3.54883C9.58352 3.60148 9.89684 3.91276 9.95215 4.31055C9.98401 4.54235 10 4.77421 10 5C9.99999 5.22585 9.98415 5.45787 9.95215 5.69043C9.89683 6.08741 9.58266 6.39851 9.18555 6.4502L8.66699 6.51855L8.98633 6.93359C9.23002 7.2513 9.23181 7.69259 8.99023 8.0127C8.71123 8.38144 8.38265 8.7099 8.01465 8.98828C7.69497 9.23045 7.25295 9.2287 6.93457 8.98438L6.51953 8.66602L6.45117 9.18555C6.39864 9.58256 6.08777 9.89594 5.69043 9.95117C5.45768 9.98331 5.22526 10 4.99902 10C4.77364 9.99999 4.54262 9.98391 4.3125 9.95215C3.91465 9.89774 3.60153 9.58327 3.5498 9.18555L3.48242 8.66602L3.06445 8.98633C2.74671 9.22948 2.30605 9.23145 1.98633 8.99023C1.81818 8.86316 1.65506 8.72299 1.49609 8.56738L1.42773 8.49805C1.27803 8.34551 1.13789 8.18365 1.01074 8.01562C0.768482 7.69592 0.770193 7.25303 1.01465 6.93457L1.33398 6.51855L0.8125 6.4502C0.41533 6.39778 0.102271 6.08669 0.046875 5.68945C0.0189167 5.48699 0.00315594 5.27968 0 5.0625V4.92969C0.0030708 4.72049 0.0188302 4.51245 0.046875 4.30957C0.10228 3.91257 0.416376 3.60132 0.813477 3.5498L1.33398 3.48145L1.01367 3.06445C0.76983 2.7467 0.768345 2.30531 1.00977 1.98535C1.13669 1.81759 1.27714 1.65565 1.43066 1.49902L1.50098 1.42773C1.65443 1.27756 1.81711 1.13762 1.9873 1.00879C2.30682 0.768302 2.74683 0.770069 3.06543 1.01367L3.48242 1.33398L3.5498 0.81543C3.60146 0.417397 3.9135 0.103266 4.31152 0.0478516ZM5.4707 1.02832C5.15366 0.990833 4.8465 0.990222 4.53125 1.02734L4.38867 2.11523L4.08887 2.21289C3.9467 2.25928 3.8082 2.31609 3.6748 2.38379L3.39355 2.52734L3.14355 2.33496L2.52344 1.8584C2.41203 1.94648 2.30451 2.04045 2.20508 2.1377L2.1416 2.20215C2.04076 2.30506 1.94565 2.41216 1.8584 2.52246L2.52734 3.39258L2.38379 3.67383C2.31583 3.80754 2.2585 3.94655 2.21191 4.08887L2.11426 4.3877L1.80176 4.42871L1.02637 4.53027C1.01062 4.66544 1.00202 4.80275 1 4.93652V5.05469C1.00208 5.19531 1.0106 5.33432 1.02637 5.46973L2.11426 5.61133L2.21191 5.91113C2.25853 6.05362 2.31578 6.19247 2.38379 6.32617L2.52734 6.60742L2.33496 6.85742L1.8584 7.47754C1.946 7.58832 2.04081 7.69519 2.13867 7.79492L2.2002 7.85645C2.30424 7.95826 2.41262 8.05404 2.52344 8.1416L3.39355 7.47266L3.6748 7.61523C3.80847 7.68312 3.94677 7.74071 4.08887 7.78711L4.38867 7.88477L4.42969 8.19727L4.53125 8.97168C4.68933 8.99032 4.8464 8.99999 4.99902 9C5.15253 9 5.31111 8.99055 5.4707 8.97168L5.61328 7.88379L5.91309 7.78613C6.05452 7.73985 6.19199 7.68197 6.3252 7.61426L6.60645 7.47168L6.85645 7.66406L7.47656 8.14062C7.72322 7.94588 7.94677 7.72233 8.1416 7.47559L7.47266 6.60547L7.61523 6.32422C7.68267 6.19146 7.73983 6.05362 7.78613 5.91211L7.88477 5.6123L8.19727 5.57129L8.97168 5.46973C8.99038 5.31073 9 5.15305 9 5C9 4.84665 8.99037 4.68816 8.97168 4.5293L7.88477 4.3877L7.78613 4.08789C7.73981 3.94635 7.68272 3.80871 7.61523 3.67578L7.47266 3.39453L7.66504 3.14453L8.1416 2.52441C7.94659 2.2775 7.72326 2.05418 7.47656 1.85938L6.60645 2.52832L6.3252 2.38477C6.19202 2.31708 6.0537 2.26025 5.91211 2.21387L5.61328 2.11523L5.57227 1.80371L5.4707 1.02832ZM5 3.10742C6.04408 3.10742 6.89258 3.95588 6.89258 5C6.89257 6.04412 6.04407 6.89258 5 6.89258C3.95582 6.89258 3.10743 6.04416 3.10742 5C3.10742 3.95583 3.95582 3.10742 5 3.10742ZM5 4.10742C4.50811 4.10742 4.10742 4.50811 4.10742 5C4.10743 5.49188 4.50811 5.89258 5 5.89258C5.4918 5.89258 5.89257 5.49182 5.89258 5C5.89258 4.50817 5.49181 4.10742 5 4.10742Z" fill="var(--fill-0, #092540)"/>
</svg>
