<svg preserveAspectRatio="none" width="100%" height="100%" overflow="visible" style="display: block;" viewBox="0 0 20 12" fill="none" xmlns="http://www.w3.org/2000/svg">
<path id="Vector" d="M3.14312 0C3.7545 0 4.25215 0.00486361 5.33355 0.0195312C6.31425 0.0328648 6.76783 0.0377291 7.30719 0.0390625C7.87719 0.0427261 8.44725 0.0500761 9.01715 0.0615234L9.24078 0.0664062L9.83648 0.078125C10.5858 0.0647914 11.6005 0.0573545 12.6939 0.0546875C13.2426 0.0533541 13.706 0.047823 14.6607 0.0351562C15.7608 0.0204886 16.2564 0.015625 16.8658 0.015625H17.1119C17.1971 0.0156291 17.285 0.0178072 17.4752 0.0224609C17.7485 0.029128 17.8811 0.0322266 18.0191 0.0322266C18.1391 0.0322252 18.2252 0.0303664 18.2779 0.0263672C19.3325 -0.0615679 19.9729 0.467399 19.9976 1.4834C20.0218 2.58053 19.9135 3.67659 19.6763 4.74805C19.3836 6.04147 18.968 7.06561 18.398 7.875C17.8213 8.69236 17.0484 9.26412 15.815 9.9248C15.2684 10.2181 14.6857 10.4483 13.9185 10.6963C13.7212 10.7596 13.5641 10.8084 13.2154 10.915L12.8511 11.0283C12.6679 11.085 12.5136 11.1337 12.3697 11.1816C12.0764 11.279 11.8693 11.364 11.3961 11.5732L11.3345 11.6006L11.2076 11.6611C10.6945 11.9063 10.43 12.0009 10.0396 12.001C9.88302 12.001 9.72918 11.9792 9.58258 11.9346C9.27922 11.8432 9.0087 11.7365 8.57867 11.5498L8.47418 11.5039C8.05082 11.3192 7.86009 11.2414 7.63141 11.166C7.35153 11.0742 7.07067 10.9854 6.78863 10.9004C5.48188 10.499 4.89081 10.2872 4.18609 9.90918C2.95271 9.24848 2.17881 8.67742 1.60211 7.85938C1.03211 7.05 0.615797 6.02543 0.323789 4.7334C0.0869307 3.6619 -0.0208385 2.56584 0.00347652 1.46875C0.0268146 0.45202 0.667539 -0.0769064 1.72027 0.00976562C1.77496 0.014412 1.86161 0.0166016 1.98004 0.0166016C2.13782 0.0169617 2.29598 0.0150147 2.45367 0.00976562C2.72006 0.00310524 2.80023 1.57666e-08 2.8902 0H3.14312ZM2.09234 1.5791C1.81029 1.55586 1.84897 1.52349 1.84332 1.75781C1.82135 2.67872 1.91854 3.67008 2.11578 4.54199C2.35888 5.61616 2.69387 6.43758 3.13043 7.05762C3.53438 7.63181 4.12878 8.07127 5.13141 8.6084C5.698 8.9118 6.20155 9.09268 7.35406 9.44629C7.75927 9.57068 7.94765 9.62906 8.17633 9.70508C8.44078 9.79302 8.6446 9.87635 9.07867 10.0654L9.17633 10.1084C9.53919 10.2653 9.75598 10.3505 9.98199 10.4189C9.99966 10.4241 10.0183 10.4269 10.0367 10.4268C10.1403 10.4268 10.2744 10.3788 10.5796 10.2324L10.7134 10.1689L10.7925 10.1328C11.2729 9.92056 11.4973 9.82835 11.8238 9.71973C11.9683 9.67198 12.1207 9.6233 12.3004 9.56738L12.65 9.45996C12.9719 9.36082 13.1159 9.31687 13.2935 9.25977C13.9494 9.04805 14.4337 8.85675 14.8697 8.62305C15.8727 8.0854 16.4668 7.64669 16.8707 7.07324C17.3072 6.45323 17.6406 5.63141 17.8843 4.55664C18.0816 3.68466 18.1798 2.69282 18.1578 1.77246C18.1515 1.53792 18.1906 1.56989 17.9078 1.59375C17.7912 1.6019 17.674 1.60552 17.5572 1.60449C17.4127 1.60449 17.2805 1.60198 17.025 1.5957C16.9161 1.59244 16.8067 1.5898 16.6978 1.58887H16.4683C15.9031 1.58887 15.4399 1.59263 14.4312 1.60645C13.5055 1.61901 13.0657 1.62409 12.5425 1.62598C11.5179 1.62786 10.5665 1.6349 9.84527 1.64746L9.25836 1.63574L9.04742 1.63184C8.51785 1.62112 7.98822 1.61387 7.45855 1.61035C6.94466 1.6091 6.51373 1.60471 5.61285 1.59277C4.57257 1.57895 4.10688 1.57324 3.53961 1.57324L3.30328 1.57422C3.23426 1.57422 3.16112 1.57569 2.97418 1.58008L2.92145 1.58203C2.76237 1.58584 2.60302 1.58821 2.44391 1.58984C2.29953 1.58984 2.1859 1.58664 2.09234 1.5791ZM14.149 3.18555C14.7386 3.18556 15.3053 3.32883 15.8394 3.57324C16.1527 3.71504 16.4495 3.8914 16.7232 4.09961L17.1002 4.39062L16.8716 4.80273C16.718 5.07967 16.5331 5.33824 16.3209 5.57324C15.9556 5.97567 15.5399 6.2636 15.0601 6.37695C14.5701 6.49198 14.1269 6.54785 13.6724 6.54785C12.9981 6.54782 12.2956 6.42133 11.5308 6.16602L11.0504 6.00586L11.1548 5.52246C11.2304 5.1727 11.3837 4.78202 11.647 4.4082C12.0437 3.84439 12.6191 3.43736 13.3814 3.26953C13.6321 3.214 13.8908 3.18556 14.149 3.18555ZM5.9527 3.18555C6.2107 3.18559 6.46873 3.21461 6.7193 3.26953C7.48166 3.43726 8.05639 3.84448 8.45367 4.4082C8.69022 4.74269 8.85792 5.12135 8.94586 5.52148L9.05035 6.00488L8.56988 6.16504C7.80509 6.42035 7.10263 6.54686 6.42828 6.54688C5.96076 6.54514 5.49469 6.48815 5.04059 6.37695C4.561 6.26356 4.14499 5.97558 3.77984 5.57324C3.56765 5.33828 3.38264 5.07959 3.22906 4.80273L3.00055 4.39062L3.37848 4.09961C3.65209 3.89148 3.9481 3.71403 4.26129 3.57227C4.79482 3.32841 5.36365 3.18555 5.9527 3.18555ZM5.9527 4.30469C5.54806 4.30469 5.14227 4.40643 4.7525 4.58496C4.67243 4.62157 4.59744 4.65992 4.52594 4.69824C4.75882 4.99224 5.03632 5.22434 5.31207 5.28906C5.71552 5.38405 6.06775 5.42771 6.42828 5.42773L6.71832 5.41797C7.01259 5.39846 7.31939 5.34982 7.64312 5.26953C7.60195 5.19019 7.55491 5.11315 7.50348 5.04004C7.2631 4.69906 6.92939 4.46227 6.46539 4.36035C6.29709 4.32344 6.12499 4.30469 5.9527 4.30469ZM14.149 4.30469C13.9761 4.3047 13.8034 4.32315 13.6363 4.36035C13.1717 4.46287 12.8376 4.699 12.5972 5.04004C12.5458 5.11313 12.4997 5.19022 12.4586 5.26953C12.8552 5.37167 13.2629 5.42458 13.6724 5.42773C14.033 5.42773 14.3852 5.38402 14.7886 5.28906C15.0639 5.22439 15.3428 4.99182 15.5757 4.69824C15.5015 4.65812 15.426 4.61999 15.3492 4.58496C14.9587 4.40635 14.5532 4.30469 14.149 4.30469Z" fill="var(--fill-0, #BB3F3F)"/>
</svg>
