<svg preserveAspectRatio="none" width="100%" height="100%" overflow="visible" style="display: block;" viewBox="0 0 21 17" fill="none" xmlns="http://www.w3.org/2000/svg">
<path id="Vector" d="M10.5 1.5H19.0869C20.1387 1.5 20.9988 2.36041 20.999 3.41211V14.5879C20.9988 15.6396 20.1387 16.5 19.0869 16.5L1.91211 16.4248C0.860526 16.4246 0.000186179 15.5643 0 14.5127L0.00976562 1.91211C0.00997624 0.860542 0.860544 0.000212893 1.91211 0H7.5L10.5 1.5ZM2.5498 3.75C2.38427 3.75011 2.25011 3.88427 2.25 4.0498V13.9502C2.25011 14.1157 2.38427 14.2499 2.5498 14.25H18.4502C18.6157 14.2499 18.7499 14.1157 18.75 13.9502V4.0498C18.7499 3.88427 18.6157 3.75011 18.4502 3.75H2.5498Z" fill="var(--fill-0, #6B7C8C)"/>
</svg>
