<svg preserveAspectRatio="none" width="100%" height="100%" overflow="visible" style="display: block;" viewBox="0 0 18 22" fill="none" xmlns="http://www.w3.org/2000/svg">
<path id="IconShape" d="M10.9902 19.5098C10.9902 20.6098 10.1 21.5 9 21.5C7.9 21.5 7.00977 20.6098 7.00977 19.5098H10.9902ZM9 0C9.83 0 10.5 0.67 10.5 1.5V2.66992C13.64 3.34992 16 6.15 16 9.5V14.6719C16.0001 15.2022 16.2109 15.7109 16.5859 16.0859L17.793 17.293C17.9255 17.4256 18 17.6055 18 17.793C18 18.1834 17.6834 18.5 17.293 18.5H0.707031C0.316567 18.5 4.08078e-05 18.1834 0 17.793C0 17.6055 0.0744701 17.4256 0.207031 17.293L1.41406 16.0859C1.78906 15.7109 1.99992 15.2022 2 14.6719V9.5C2 6.15 4.36 3.34992 7.5 2.66992V1.5C7.5 0.67 8.17 0 9 0ZM9 4.5C6.24 4.5 4 6.74 4 9.5V16.5H14V9.5C14 6.74 11.76 4.5 9 4.5Z" fill="var(--fill-0, #B6BEC6)"/>
</svg>
