<svg preserveAspectRatio="none" width="100%" height="100%" overflow="visible" style="display: block;" viewBox="0 0 14 14" fill="none" xmlns="http://www.w3.org/2000/svg">
<path id="Shape" fill-rule="evenodd" clip-rule="evenodd" d="M0 7C0 3.136 3.136 0 7 0C10.864 0 14 3.136 14 7C14 10.864 10.864 14 7 14C3.136 14 0 10.864 0 7ZM7.7 6.3V10.5H6.3V6.3H7.7ZM7.00039 12.6C3.91339 12.6 1.40039 10.087 1.40039 7.00002C1.40039 3.91302 3.91339 1.40002 7.00039 1.40002C10.0874 1.40002 12.6004 3.91302 12.6004 7.00002C12.6004 10.087 10.0874 12.6 7.00039 12.6ZM7.7 3.5V4.9H6.3V3.5H7.7Z" fill="var(--fill-0, black)"/>
</svg>
