<svg preserveAspectRatio="none" width="100%" height="100%" overflow="visible" style="display: block;" viewBox="0 0 18 22" fill="none" xmlns="http://www.w3.org/2000/svg">
<path id="IconShape" d="M10.5771 0.101562C11.3844 -0.286099 12.2549 0.501688 11.9502 1.34375C11.6989 2.03847 11.6197 2.85784 11.7021 3.78125C11.8107 4.99781 12.1909 6.32979 12.7578 7.68262C12.8078 7.80188 12.8588 7.9201 12.9102 8.03613C13.1559 7.55281 13.4313 7.07617 13.7383 6.61719C14.3015 5.7752 14.9383 5.04242 15.6572 4.45215C16.3999 3.8425 17.4917 4.52855 17.2637 5.46191C16.9122 6.90038 16.9467 7.69991 17.2793 8.84375C17.3119 8.95598 17.4397 9.37631 17.4668 9.46484C17.837 10.6902 18 11.5857 18 12.8857C18 17.7893 14.1024 22.0029 9 22.0029C3.89758 22.0029 7.86942e-08 17.7895 0 12.8857C2.67342e-05 11.1645 0.210275 9.71234 0.56543 8.52051C0.788399 7.77232 1.02322 7.26192 1.20215 6.97852C1.66853 6.23993 2.79138 6.41234 3.01465 7.25684C3.037 7.34136 3.10542 7.53272 3.23145 7.79395C3.4498 8.24649 3.7495 8.70125 4.13965 9.12598C4.28334 9.28241 4.43615 9.43165 4.59863 9.57227C3.99872 6.02714 5.33834 3.3987 8.0127 1.52734C8.79898 0.977164 9.2539 0.737031 10.5771 0.101562ZM9.67578 2.82422C9.50886 2.92765 9.34412 3.03661 9.15918 3.16602C6.62489 4.93937 5.69783 7.38776 7.12598 11.2666C7.41783 12.0596 6.65519 12.8344 5.85742 12.5557C4.55583 12.1009 3.4972 11.3843 2.66602 10.4795C2.51933 10.3198 2.38384 10.1598 2.25879 10.001C2.09441 10.8274 2.00002 11.7871 2 12.8857C2 16.7182 5.03845 20.0029 9 20.0029C12.9615 20.0029 16 16.7181 16 12.8857C16 11.8093 15.871 11.0979 15.5537 10.0469C15.5908 10.1697 15.4033 9.55343 15.3594 9.40234C15.2396 8.99039 15.1488 8.60331 15.0908 8.21973C14.7882 8.72738 14.5245 9.25768 14.2998 9.78809C14.1221 10.2077 14.009 10.5287 13.958 10.6982C13.709 11.5256 12.5986 11.6686 12.1475 10.9316C12.0644 10.796 11.9267 10.5569 11.7529 10.2295C11.4665 9.68964 11.1802 9.09347 10.9131 8.45605C10.2731 6.92886 9.84028 5.40806 9.71094 3.95898C9.67632 3.57111 9.66417 3.19254 9.67578 2.82422Z" fill="var(--fill-0, #B6BEC6)"/>
</svg>
