<svg preserveAspectRatio="none" width="100%" height="100%" overflow="visible" style="display: block;" viewBox="0 0 15 15" fill="none" xmlns="http://www.w3.org/2000/svg">
<path id="IconShape" d="M12.833 11.166L14.666 12L12.833 12.833L12 14.666L11.166 12.833L9.33301 12L11.166 11.166L12 9.33301L12.833 11.166ZM7 5.66602L10.666 7.33301L7 9L5.33301 12.666L3.66602 9L0 7.33301L3.66602 5.66602L5.33301 2L7 5.66602ZM4.67285 6.67285L3.21973 7.33301L4.67285 7.99316L5.33301 9.44629L5.99316 7.99316L7.44629 7.33301L5.99316 6.67285L5.33301 5.21973L4.67285 6.67285ZM12.833 1.83301L14.666 2.66602L12.833 3.5L12 5.33301L11.166 3.5L9.33301 2.66602L11.166 1.83301L12 0L12.833 1.83301Z" fill="var(--fill-0, #092540)"/>
</svg>
