<svg preserveAspectRatio="none" width="100%" height="100%" overflow="visible" style="display: block;" viewBox="0 0 16 8" fill="none" xmlns="http://www.w3.org/2000/svg">
<path id="beam" d="M1.00977 0.0625C0.984321 0.467873 1.01163 0.874947 1.07129 1.20215C1.18963 1.53177 1.35546 1.84244 1.54297 2.09863C1.89072 2.51085 2.33173 2.83356 2.8291 3.04102H7.9502V2.04102H8.93066V3.04102H13.0811C13.5789 2.83115 14.0197 2.50683 14.3486 2.11426C14.5566 1.83317 14.7224 1.52274 14.8213 1.25977C14.9033 0.86508 14.9332 0.461107 14.9111 0.0585938L15.9102 0.00390625C15.937 0.492958 15.8995 0.983401 15.7812 1.5293C15.6307 1.95101 15.4192 2.34844 15.1348 2.73145C14.8773 3.03983 14.5777 3.30834 14.249 3.53418C14.5821 3.75341 14.8938 4.01661 15.1787 4.32812C15.4547 4.6904 15.664 5.0989 15.8105 5.58301C15.9083 6.07005 15.9414 6.56777 15.9092 7.06348L14.9111 6.99902C14.9377 6.59082 14.9109 6.18033 14.8428 5.82812C14.7433 5.50546 14.587 5.20284 14.4121 4.96973C14.0358 4.56067 13.5736 4.24014 13.0586 4.03125H8.93066V5.03125H7.9502V4.03125H2.8623C2.34741 4.23979 1.88554 4.55984 1.53906 4.93359C1.33446 5.2027 1.17813 5.50594 1.09082 5.7793C1.01051 6.18052 0.98344 6.59069 1.00977 6.99902L0.0117188 7.06348C-0.0202441 6.56785 0.0129713 6.06981 0.123047 5.5332C0.25753 5.09857 0.467254 4.69083 0.772461 4.29297C1.03746 4.00459 1.33681 3.75184 1.66211 3.53809C1.33136 3.31157 1.02734 3.03818 0.757812 2.71777C0.49251 2.35782 0.281194 1.96077 0.110352 1.46875C0.0140198 0.985489 -0.0191505 0.491802 0.0117188 0L1.00977 0.0625Z" fill="var(--fill-0, black)"/>
</svg>
