<svg preserveAspectRatio="none" width="100%" height="100%" overflow="visible" style="display: block;" viewBox="0 0 14 14" fill="none" xmlns="http://www.w3.org/2000/svg">
<path id="IconShape" fill-rule="evenodd" clip-rule="evenodd" d="M8.66667 12V10H11.3333C12.4379 10 13.3333 9.10457 13.3333 8V2C13.3333 0.895431 12.4379 0 11.3333 0H2C0.895431 0 0 0.895431 0 2V8C0 9.10457 0.895431 10 2 10H4.66667V12H2.9697V13.3333H10.3939V12H8.66667ZM12 2V6H1.33333V2C1.33333 1.63181 1.63181 1.33333 2 1.33333H11.3333C11.7015 1.33333 12 1.63181 12 2ZM12 7.33333H1.33333V8C1.33333 8.36819 1.63181 8.66667 2 8.66667H11.3333C11.7015 8.66667 12 8.36819 12 8V7.33333ZM6 10H7.33333V12H6V10Z" fill="var(--fill-0, #B6BEC6)"/>
</svg>
