<svg preserveAspectRatio="none" width="100%" height="100%" overflow="visible" style="display: block;" viewBox="0 0 14 14" fill="none" xmlns="http://www.w3.org/2000/svg">
<path id="IconShape" d="M11 0C12.2887 0 13.334 1.04532 13.334 2.33398C13.3338 3.6225 12.2886 4.66699 11 4.66699C10.3881 4.66691 9.8331 4.42935 9.41699 4.04395L4.62891 6.59668C4.65182 6.72787 4.66697 6.86226 4.66699 7C4.66699 7.19375 4.64021 7.38153 4.5957 7.56152L9.30078 10.0713C9.72635 9.6182 10.3294 9.33408 11 9.33398C12.2887 9.33398 13.334 10.3783 13.334 11.667C13.334 12.9557 12.2887 14 11 14C9.71149 13.9998 8.66699 12.9555 8.66699 11.667C8.66699 11.5293 8.68123 11.3948 8.7041 11.2637L3.91602 8.71094C3.49999 9.09596 2.94552 9.3339 2.33398 9.33398C1.04532 9.33398 0 8.28866 0 7C0.000175969 5.71149 1.04543 4.66699 2.33398 4.66699C3.00479 4.66708 3.60762 4.95198 4.0332 5.40527L8.7373 2.89551C8.69276 2.71549 8.66702 2.52776 8.66699 2.33398C8.66699 1.04543 9.71149 0.000175969 11 0ZM11 10.667C10.4479 10.6672 10 11.1148 10 11.667C10 12.2192 10.4479 12.6668 11 12.667C11.5523 12.667 12 12.2193 12 11.667C12 11.1147 11.5523 10.667 11 10.667ZM2.33398 6C1.78181 6 1.33416 6.44787 1.33398 7C1.33398 7.55228 1.7817 8 2.33398 8C2.88612 7.99982 3.33398 7.55218 3.33398 7C3.33381 6.44797 2.88601 6.00018 2.33398 6ZM11 1.33398C10.4479 1.33416 10 1.78181 10 2.33398C10.0002 2.88601 10.448 3.33381 11 3.33398C11.5522 3.33398 11.9998 2.88612 12 2.33398C12 1.7817 11.5523 1.33398 11 1.33398Z" fill="var(--fill-0, #6B7C8C)"/>
</svg>
