<svg preserveAspectRatio="none" width="100%" height="100%" overflow="visible" style="display: block;" viewBox="0 0 15 14" fill="none" xmlns="http://www.w3.org/2000/svg">
<path id="Vector" d="M12.667 0C13.7714 0.000176312 14.667 0.895539 14.667 2V11.333C14.667 12.4375 13.7714 13.3328 12.667 13.333H2C0.895431 13.333 0 12.4376 0 11.333V2C3.22128e-08 0.89543 0.895431 0 2 0H12.667ZM1.33301 11.333C1.33301 11.7012 1.63181 12 2 12H12.667C13.035 11.9998 13.333 11.7011 13.333 11.333V4H1.33301V11.333ZM4 10.667H2.66699V7.33301H4V10.667ZM6.66699 10.667H5.33301V5.33301H6.66699V10.667ZM10 6.66699C11.1046 6.66699 12 7.56242 12 8.66699C11.9998 9.77141 11.1045 10.667 10 10.667C8.89554 10.667 8.00018 9.77141 8 8.66699C8 7.56242 8.89543 6.66699 10 6.66699ZM10 8C9.63181 8 9.33301 8.2988 9.33301 8.66699C9.33318 9.03503 9.63192 9.33301 10 9.33301C10.3681 9.33301 10.6668 9.03503 10.667 8.66699C10.667 8.2988 10.3682 8 10 8ZM2 1.33301C1.63181 1.33301 1.33301 1.63181 1.33301 2V2.66699H13.333V2C13.333 1.63192 13.035 1.33318 12.667 1.33301H2Z" fill="var(--fill-0, #FF7A1A)"/>
</svg>
