<svg preserveAspectRatio="none" width="100%" height="100%" overflow="visible" style="display: block;" viewBox="0 0 12 12" fill="none" xmlns="http://www.w3.org/2000/svg">
<g id="ic_open_in_new_black_12px 2">
<path id="Shape" d="M5.64746 0V1.25488H1.25488V10.0391H10.0391V5.64746H11.2939V10.0391C11.2939 10.7293 10.7293 11.2939 10.0391 11.2939H1.25488C0.558421 11.2939 0 10.7293 0 10.0391V1.25488C1.03522e-05 0.564702 0.558428 1.03742e-05 1.25488 0H5.64746ZM11.2939 0V4.39258H10.0391V2.13965L3.87109 8.30762L2.98633 7.42285L9.1543 1.25488H6.90234V0H11.2939Z" fill="var(--fill-0, #6B7C8C)"/>
<mask id="mask0_174_78161" style="mask-type:luminance" maskUnits="userSpaceOnUse" x="0" y="0" width="12" height="12">
<path id="Shape_2" d="M5.64746 0V1.25488H1.25488V10.0391H10.0391V5.64746H11.2939V10.0391C11.2939 10.7293 10.7293 11.2939 10.0391 11.2939H1.25488C0.558421 11.2939 0 10.7293 0 10.0391V1.25488C1.03522e-05 0.564702 0.558428 1.03742e-05 1.25488 0H5.64746ZM11.2939 0V4.39258H10.0391V2.13965L3.87109 8.30762L2.98633 7.42285L9.1543 1.25488H6.90234V0H11.2939Z" fill="var(--fill-0, white)"/>
</mask>
<g mask="url(#mask0_174_78161)">
</g>
</g>
</svg>
