<svg preserveAspectRatio="none" width="100%" height="100%" overflow="visible" style="display: block;" viewBox="0 0 20 31" fill="none" xmlns="http://www.w3.org/2000/svg">
<path id="Vector" d="M18.6308 14.2155L0.518307 0.068617C0.470978 0.0313562 0.414099 0.00820029 0.354204 0.00180826C0.294308 -0.00458376 0.233824 0.00604741 0.179698 0.0324811C0.125571 0.0589148 0.0799992 0.100079 0.0482135 0.151246C0.0164277 0.202412 -0.000282103 0.261507 3.60332e-06 0.321742V3.42755C3.60332e-06 3.62442 0.0924146 3.81326 0.245093 3.9338L14.7094 15.228L0.245093 26.5222C0.0883967 26.6427 3.60332e-06 26.8316 3.60332e-06 27.0284V30.1342C3.60332e-06 30.4034 0.309378 30.5521 0.518307 30.3874L18.6308 16.2405C18.7848 16.1204 18.9093 15.9668 18.9949 15.7914C19.0806 15.6159 19.1251 15.4232 19.1251 15.228C19.1251 15.0328 19.0806 14.8401 18.9949 14.6646C18.9093 14.4892 18.7848 14.3356 18.6308 14.2155Z" fill="var(--fill-0, black)" fill-opacity="0.85"/>
</svg>
