<svg preserveAspectRatio="none" width="100%" height="100%" overflow="visible" style="display: block;" viewBox="0 0 18 17" fill="none" xmlns="http://www.w3.org/2000/svg">
<path id="Vector" d="M10.8827 11.504C9.62958 12.5996 8.00692 13.1781 6.34328 13.1223C4.67965 13.0666 3.09934 12.3808 1.9223 11.2038C0.745266 10.0268 0.0594446 8.44649 0.00368648 6.78286C-0.0520717 5.11922 0.5264 3.49656 1.62199 2.24337C2.71758 0.990186 4.24842 0.20012 5.90459 0.033127C7.56076 -0.133866 9.21851 0.33469 10.5422 1.34393C11.8659 2.35318 12.7567 3.8277 13.0342 5.46898C13.3117 7.11026 12.9551 8.79565 12.0367 10.184L17.0797 15.227L15.8417 16.464L10.8817 11.504H10.8827ZM9.78774 9.79095C10.647 8.93881 11.1326 7.78022 11.1377 6.57004C11.1428 5.35987 10.6669 4.19725 9.81474 3.33795C9.3928 2.91247 8.89119 2.57426 8.33855 2.34263C7.7859 2.11101 7.19305 1.9905 6.59383 1.98799C5.38366 1.98293 4.22104 2.45881 3.36174 3.31095C2.50244 4.16309 2.01684 5.32169 2.01178 6.53186C2.00672 7.74203 2.4826 8.90465 3.33474 9.76395C4.18688 10.6233 5.34548 11.1088 6.55565 11.1139C7.76582 11.119 8.92844 10.6431 9.78774 9.79095Z" fill="var(--fill-0, #6B7C8C)"/>
</svg>
