<svg preserveAspectRatio="none" width="100%" height="100%" overflow="visible" style="display: block;" viewBox="0 0 437 219" fill="none" xmlns="http://www.w3.org/2000/svg">
<g id="Illustartion">
<path id="Vector 405" opacity="0.4" d="M312.19 150.698C346.539 155.606 379.142 189.645 397.638 218.529L158.351 218.529C175.398 176.541 205.054 145.972 256.985 164.193C278.776 171.839 286.842 147.077 312.19 150.698Z" fill="url(#paint0_linear_174_78608)"/>
<path id="Vector 406" opacity="0.4" d="M72 158.5C37.3017 158.5 10.5 182.5 0 218.195H239.635C222.589 176.207 192.43 159.279 140.5 177.5C118.709 185.146 96.7027 158.5 72 158.5Z" fill="url(#paint1_linear_174_78608)" fill-opacity="0.7"/>
<path id="Vector" opacity="0.2" d="M341.25 81.1159L167.25 0V148L341.25 81.1159Z" fill="url(#paint2_linear_174_78608)"/>
<path id="Vector_2" opacity="0.4" d="M341.25 80.9042L151.25 35V121L341.25 80.9042Z" fill="url(#paint3_linear_174_78608)"/>
<g id="Group 1620">
<g id="Rectangle 713">
<path d="M334.21 94.8494H365.299L371.002 199.697H328.506L334.21 94.8494Z" fill="url(#paint4_linear_174_78608)"/>
<path d="M334.21 94.8494H365.299L371.002 199.697H328.506L334.21 94.8494Z" fill="url(#paint5_linear_174_78608)"/>
</g>
<path id="Vector_3" d="M368.724 157.755H330.789L329.649 178.728H369.864L368.724 157.755Z" fill="url(#paint6_linear_174_78608)"/>
<path id="Vector_4" d="M331.929 136.787H367.582L366.442 115.818H333.07L331.929 136.787Z" fill="url(#paint7_linear_174_78608)"/>
</g>
<path id="Rectangle 714" d="M328.594 89.1379C328.413 88.0165 329.28 87 330.415 87H369.085C370.22 87 371.087 88.0165 370.906 89.1379L370.213 93.4478C370.07 94.3423 369.298 95 368.392 95H331.108C330.202 95 329.43 94.3423 329.287 93.4478L328.594 89.1379Z" fill="url(#paint8_linear_174_78608)"/>
<path id="Union" d="M349.752 48.8721C350.335 48.8721 350.808 49.3447 350.808 49.9277V51.4189C358.489 51.9606 364.553 58.3635 364.553 66.1826V69.5244H334.95V66.1826C334.95 58.3631 341.014 51.96 348.696 51.4189V49.9277C348.696 49.3447 349.169 48.8721 349.752 48.8721Z" fill="url(#paint9_linear_174_78608)"/>
<rect id="Rectangle 716" x="335.25" y="73" width="29" height="14" fill="url(#paint10_linear_174_78608)"/>
<path id="Vector 404" d="M310.963 180.141C285.86 180.141 253.918 194.249 228.249 218.529H431.887C434.435 218.529 436.5 216.464 436.5 213.916V132.066C421.599 131.16 399.271 128.194 375.442 151.95C359.087 168.255 336.568 180.141 310.963 180.141Z" fill="url(#paint11_linear_174_78608)"/>
<path id="Rectangle 718" d="M347.25 103.5C347.25 102.119 348.369 101 349.75 101V101C351.131 101 352.25 102.119 352.25 103.5V109H347.25V103.5Z" fill="var(--fill-0, #195AFE)"/>
<path id="Rectangle 720" d="M347.25 78.5C347.25 77.1193 348.369 76 349.75 76V76C351.131 76 352.25 77.1193 352.25 78.5V84H347.25V78.5Z" fill="var(--fill-0, white)"/>
<path id="Rectangle 719" d="M347.25 145.5C347.25 144.119 348.369 143 349.75 143V143C351.131 143 352.25 144.119 352.25 145.5V151H347.25V145.5Z" fill="var(--fill-0, #195AFE)"/>
<path id="Rectangle 717" d="M331.25 70.9999C331.25 69.8954 332.146 69 333.25 69H366.25C367.355 69 368.25 69.8954 368.25 71V71C368.25 72.1046 367.355 73 366.25 73H333.25C332.145 73 331.25 72.1045 331.25 70.9999V70.9999Z" fill="url(#paint12_linear_174_78608)"/>
</g>
<defs>
<linearGradient id="paint0_linear_174_78608" x1="277.995" y1="202.299" x2="183.028" y2="155.933" gradientUnits="userSpaceOnUse">
<stop stop-color="#96B1F4"/>
<stop offset="1" stop-color="#D7E2FF"/>
</linearGradient>
<linearGradient id="paint1_linear_174_78608" x1="119.992" y1="201.965" x2="214.959" y2="155.598" gradientUnits="userSpaceOnUse">
<stop stop-color="#96B1F4"/>
<stop offset="1" stop-color="#D7E2FF"/>
</linearGradient>
<linearGradient id="paint2_linear_174_78608" x1="341.25" y1="84.7215" x2="195.079" y2="66.8653" gradientUnits="userSpaceOnUse">
<stop stop-color="#FFA225"/>
<stop offset="1" stop-color="white"/>
</linearGradient>
<linearGradient id="paint3_linear_174_78608" x1="372.469" y1="82.5" x2="190.156" y2="44.7519" gradientUnits="userSpaceOnUse">
<stop stop-color="#FF871E"/>
<stop offset="0.903131" stop-color="white"/>
</linearGradient>
<linearGradient id="paint4_linear_174_78608" x1="366.382" y1="141.182" x2="328.506" y2="141.182" gradientUnits="userSpaceOnUse">
<stop stop-color="#B1C7FF"/>
<stop offset="1" stop-color="white"/>
</linearGradient>
<linearGradient id="paint5_linear_174_78608" x1="349.754" y1="94.8494" x2="349.754" y2="112.694" gradientUnits="userSpaceOnUse">
<stop offset="0.0001" stop-color="#195AFE" stop-opacity="0.28"/>
<stop offset="1" stop-color="white" stop-opacity="0"/>
</linearGradient>
<linearGradient id="paint6_linear_174_78608" x1="369.864" y1="166.656" x2="330.935" y2="166.656" gradientUnits="userSpaceOnUse">
<stop stop-color="#7C04A2"/>
<stop offset="1" stop-color="#F7A5FF"/>
</linearGradient>
<linearGradient id="paint7_linear_174_78608" x1="367.582" y1="126.302" x2="333.823" y2="126.302" gradientUnits="userSpaceOnUse">
<stop stop-color="#72009A"/>
<stop offset="1" stop-color="#F4A0FD"/>
</linearGradient>
<linearGradient id="paint8_linear_174_78608" x1="350.925" y1="95" x2="350.925" y2="87" gradientUnits="userSpaceOnUse">
<stop stop-color="#D7E3FF"/>
<stop offset="1" stop-color="#ECF1FF"/>
</linearGradient>
<linearGradient id="paint9_linear_174_78608" x1="350.561" y1="69.5244" x2="350.561" y2="51.3816" gradientUnits="userSpaceOnUse">
<stop stop-color="#8005A5"/>
<stop offset="1" stop-color="#F4A0FD"/>
</linearGradient>
<linearGradient id="paint10_linear_174_78608" x1="349.75" y1="73" x2="349.75" y2="87" gradientUnits="userSpaceOnUse">
<stop stop-color="#195AFE"/>
<stop offset="1" stop-color="#9AB6FF"/>
</linearGradient>
<linearGradient id="paint11_linear_174_78608" x1="460.632" y1="146.388" x2="354.932" y2="187.661" gradientUnits="userSpaceOnUse">
<stop stop-color="#D0DDFF"/>
<stop offset="1" stop-color="white"/>
</linearGradient>
<linearGradient id="paint12_linear_174_78608" x1="350.761" y1="73" x2="350.761" y2="69" gradientUnits="userSpaceOnUse">
<stop stop-color="#7C04A2"/>
<stop offset="1" stop-color="#F4A0FD"/>
</linearGradient>
</defs>
</svg>
