<svg preserveAspectRatio="none" width="100%" height="100%" overflow="visible" style="display: block;" viewBox="0 0 20 20" fill="none" xmlns="http://www.w3.org/2000/svg">
<path id="Vector" d="M8.62305 0.0957031C9.54968 -0.0318644 10.451 -0.0317229 11.3818 0.0966797C12.1754 0.206977 12.798 0.83327 12.9033 1.62891L13.0391 2.66797L13.8682 2.03125C14.5044 1.54125 15.3891 1.53822 16.0283 2.02246C16.7652 2.57985 17.4225 3.23689 17.9814 3.97559C18.464 4.6152 18.4601 5.49926 17.9717 6.13379L17.335 6.96289L18.3701 7.09766C19.1663 7.20273 19.7936 7.82532 19.9043 8.62109C19.968 9.08471 20 9.54842 20 10C20 10.4516 19.9673 10.9149 19.9033 11.3799C19.7929 12.1743 19.1649 12.7983 18.3701 12.9014L17.335 13.0371L17.9727 13.8662C18.4604 14.5017 18.4638 15.385 17.9805 16.0254C17.4225 16.7629 16.7653 17.4198 16.0293 17.9766C15.3899 18.4609 14.5059 18.4584 13.8691 17.9697L13.0391 17.3311L12.9023 18.3721C12.7972 19.166 12.1755 19.7929 11.3809 19.9033C10.9156 19.9676 10.4513 20 9.99902 20C9.54809 20 9.08542 19.9678 8.625 19.9043C7.8293 19.7955 7.20404 19.1665 7.10059 18.3711L6.96387 17.3311L6.12891 17.9736C5.49344 18.4597 4.612 18.4628 3.97266 17.9805C3.6364 17.7264 3.31105 17.4459 2.99316 17.1348L2.85449 16.9961C2.55499 16.6909 2.27584 16.3665 2.02148 16.0303C1.53696 15.3909 1.53941 14.5061 2.02832 13.8691L2.66895 13.0371L1.625 12.9004C0.830414 12.7955 0.204257 12.1728 0.09375 11.3779C0.0378523 10.9731 0.00631074 10.5593 0 10.125V9.8584C0.00615129 9.44012 0.0376762 9.02578 0.09375 8.62012C0.204183 7.82582 0.831664 7.20187 1.62598 7.09863L2.66895 6.96289L2.02832 6.12891C1.54022 5.49305 1.53684 4.60978 2.02051 3.96973C2.27434 3.63423 2.55332 3.31031 2.86035 2.99707L3.00293 2.85547C3.30981 2.55515 3.63425 2.27521 3.97461 2.01758C4.61384 1.53645 5.49458 1.53968 6.13184 2.02734L6.96484 2.66797L7.10059 1.62988C7.20398 0.83392 7.82706 0.206522 8.62305 0.0957031ZM10.9414 2.05664C10.307 1.98163 9.69235 1.98131 9.06152 2.05566L8.77734 4.22949L8.17773 4.4248C7.89312 4.51768 7.61566 4.63298 7.34863 4.76855L6.78711 5.05371L6.28711 4.66992L5.04688 3.71582C4.82384 3.89215 4.60918 4.08168 4.41016 4.27637L4.2832 4.40332C4.08144 4.6092 3.89136 4.82424 3.7168 5.04492L5.05469 6.78418L4.76855 7.34668C4.63243 7.61438 4.51711 7.89179 4.42383 8.17676L4.22754 8.77539L3.60352 8.85742L2.05371 9.06055C2.02218 9.33107 2.00402 9.60628 2 9.87402V10.1104C2.00416 10.3915 2.02219 10.6687 2.05371 10.9395L4.22754 11.2236L4.42383 11.8223C4.51709 12.1073 4.63248 12.3849 4.76855 12.6523L5.05469 13.2148L4.66992 13.7148L3.7168 14.9541C3.89204 15.1757 4.08057 15.3903 4.27637 15.5898L4.40039 15.7139C4.60849 15.9175 4.82524 16.1081 5.04688 16.2832L6.78711 14.9453L7.34961 15.2314C7.61682 15.3671 7.89368 15.4815 8.17773 15.5742L8.77734 15.7695L8.8584 16.3955L9.06152 17.9434C9.37816 17.9807 9.69334 18 9.99902 18C10.3059 18 10.6224 17.9811 10.9414 17.9434L11.2266 15.7686L11.8252 15.5723C12.1084 15.4796 12.3847 15.3651 12.6514 15.2295L13.2139 14.9434L13.7139 15.3281L14.9541 16.2803C15.4473 15.8909 15.8936 15.4445 16.2832 14.9512L14.9453 13.21L15.2314 12.6484C15.3665 12.3826 15.4806 12.1066 15.5732 11.8232L15.7686 11.2246L16.3936 11.1426L17.9434 10.9404C17.9808 10.6223 18 10.3063 18 10C18 9.6934 17.9807 9.37719 17.9434 9.05957L15.7686 8.77539L15.5732 8.17578C15.4806 7.89251 15.3655 7.61661 15.2305 7.35059L14.9453 6.78906L15.3301 6.28906L16.2832 5.04883C15.8932 4.55503 15.4475 4.10835 14.9541 3.71875L13.2139 5.05566L12.6514 4.77051C12.3847 4.63492 12.1087 4.51963 11.8252 4.42676L11.2266 4.23145L11.1445 3.60645L10.9414 2.05664ZM10 6.21387C12.0882 6.21387 13.7861 7.91175 13.7861 10C13.7861 12.0882 12.0881 13.7861 10 13.7861C7.91165 13.7861 6.21388 12.0883 6.21387 10C6.21387 7.91167 7.91164 6.21387 10 6.21387ZM10 8.21387C9.01622 8.21387 8.21387 9.01623 8.21387 10C8.21388 10.9838 9.01622 11.7861 10 11.7861C10.9836 11.7861 11.7861 10.9836 11.7861 10C11.7861 9.01635 10.9836 8.21387 10 8.21387ZM2.06836 8.92578L2.07324 8.90527C2.07372 8.90175 2.07373 8.89805 2.07422 8.89453C2.07274 8.90513 2.07126 8.91574 2.06836 8.92578ZM5.15625 3.62891L5.17188 3.61914C5.17436 3.61726 5.1772 3.61516 5.17969 3.61328C5.17219 3.61893 5.16419 3.62432 5.15625 3.62891Z" fill="var(--fill-0, #6B7C8C)"/>
</svg>
