<svg preserveAspectRatio="none" width="100%" height="100%" overflow="visible" style="display: block;" viewBox="0 0 6 6" fill="none" xmlns="http://www.w3.org/2000/svg">
<path id="IconShape" d="M0.644531 0C0.757605 0.000116302 0.868938 0.0299419 0.966797 0.0869141L4.86426 2.35645C5.17153 2.53556 5.27622 2.93105 5.09863 3.24023C5.04238 3.3379 4.96134 3.41992 4.86426 3.47656L0.966797 5.74609C0.659123 5.92501 0.265065 5.81904 0.0869141 5.50977C0.0302569 5.41128 1.70399e-05 5.29932 0 5.18555V0.646484C0.000461944 0.289362 0.289217 0 0.644531 0ZM0.951172 5.00586L3.00684 3.80859L2.5752 3.37402L0.951172 5.00586ZM0.644531 4.39941L2.11914 2.91602L0.644531 1.43262V4.39941ZM3.03125 2.91602L3.58496 3.47266L4.54199 2.91602L3.58496 2.3584L3.03125 2.91602ZM2.5752 2.45801L3.00781 2.02246L0.949219 0.823242L2.5752 2.45801Z" fill="var(--fill-0, #092540)"/>
</svg>
