<svg preserveAspectRatio="none" width="100%" height="100%" overflow="visible" style="display: block;" viewBox="0 0 15 14" fill="none" xmlns="http://www.w3.org/2000/svg">
<path id="Vector" d="M12.666 0C13.7705 0 14.6658 0.89558 14.666 2V11.334C14.6657 12.4383 13.7704 13.334 12.666 13.334H2C0.895797 13.3338 0.000351522 12.4381 0 11.334V2C0.000175968 0.895689 0.895689 0.000175968 2 0H12.666ZM1.33301 11.334C1.33336 11.7018 1.63218 11.9998 2 12H12.666C13.034 12 13.3327 11.7019 13.333 11.334V4H1.33301V11.334ZM4 10.667H2.66602V7.33398H4V10.667ZM6.66602 10.667H5.33301V5.33398H6.66602V10.667ZM10 6.66699C11.1044 6.66717 12 7.56253 12 8.66699C11.9998 9.7713 11.1043 10.6668 10 10.667C8.89569 10.6668 8.00018 9.7713 8 8.66699C8 7.56253 8.89558 6.66717 10 6.66699ZM10 8C9.63181 8 9.33301 8.2988 9.33301 8.66699C9.33318 9.03503 9.63192 9.33301 10 9.33301C10.3681 9.33301 10.6668 9.03503 10.667 8.66699C10.667 8.2988 10.3682 8 10 8ZM2 1.33398C1.63207 1.33416 1.33318 1.63207 1.33301 2V2.66699H13.333V2C13.3328 1.63196 13.0341 1.33398 12.666 1.33398H2Z" fill="var(--fill-0, #FF7A1A)"/>
</svg>
