<svg preserveAspectRatio="none" width="100%" height="100%" overflow="visible" style="display: block;" viewBox="0 0 29 36" fill="none" xmlns="http://www.w3.org/2000/svg">
<path id="Vector" d="M27 0H5.46429C5.2875 0 5.14286 0.144643 5.14286 0.321429V2.57143C5.14286 2.74821 5.2875 2.89286 5.46429 2.89286H25.3929V30.5357C25.3929 30.7125 25.5375 30.8571 25.7143 30.8571H27.9643C28.1411 30.8571 28.2857 30.7125 28.2857 30.5357V1.28571C28.2857 0.574554 27.7112 0 27 0ZM21.8571 5.14286H1.28571C0.574554 5.14286 0 5.71741 0 6.42857V27.7513C0 28.0929 0.136607 28.4183 0.377678 28.6594L7.34063 35.6223C7.42902 35.7107 7.52947 35.783 7.63795 35.8433V35.9196H7.8067C7.94732 35.9719 8.09598 36 8.24866 36H21.8571C22.5683 36 23.1429 35.4254 23.1429 34.7143V6.42857C23.1429 5.71741 22.5683 5.14286 21.8571 5.14286ZM7.63393 31.8295L4.17455 28.3661H7.63393V31.8295ZM20.25 33.1071H10.2054V27.4018C10.2054 26.5138 9.48616 25.7946 8.59821 25.7946H2.89286V8.03571H20.25V33.1071Z" fill="var(--fill-0, black)" fill-opacity="0.85"/>
</svg>
