<svg preserveAspectRatio="none" width="100%" height="100%" overflow="visible" style="display: block;" viewBox="0 0 15 15" fill="none" xmlns="http://www.w3.org/2000/svg">
<path id="IconShape" d="M13.333 4.66602C14.0693 4.66602 14.6658 5.26377 14.666 6V10.667H14.667L14.666 12V13.333C14.666 14.0694 14.0694 14.666 13.333 14.666H9.33301C8.59678 14.6658 8 14.0693 8 13.333V6C8.00018 5.26388 8.59689 4.66619 9.33301 4.66602H13.333ZM9.33301 12V13.333H13.333V12H9.33301ZM10.666 0C11.4023 0 11.9998 0.596778 12 1.33301V3.33301H10.666V1.33301H1.33301V4.66602H6.66602V6H1.33301V7.33301H6.66602V12H3.33301V10.666H5.33301V8.66602H1.33301C0.596778 8.66584 2.25512e-07 8.06928 0 7.33301V1.33301C0.000175719 0.596886 0.596886 0.000175751 1.33301 0H10.666ZM9.33301 10.667H13.333V6H9.33301V10.667Z" fill="var(--fill-0, #B6BEC6)"/>
</svg>
