<svg preserveAspectRatio="none" width="100%" height="100%" overflow="visible" style="display: block;" viewBox="0 0 13 16" fill="none" xmlns="http://www.w3.org/2000/svg">
<path id="IconShape" d="M7.39355 15.4092H4.72754V4.74219H7.39355V15.4092ZM0.0400391 5.65723C0.307415 5.84003 0.631173 5.94717 0.979492 5.94727C1.31025 5.94727 1.61774 5.84878 1.87695 5.68262L1.93359 5.73926C1.76742 5.99838 1.67004 6.30704 1.66992 6.6377C1.67002 6.96801 1.76775 7.2762 1.93359 7.53516L1.87598 7.5918C1.61702 7.42613 1.30971 7.32813 0.979492 7.32812C0.631733 7.32822 0.308141 7.43492 0.0410156 7.61719L0 7.57617C0.182201 7.30908 0.288959 6.98538 0.289062 6.6377C0.28894 6.28965 0.182564 5.96548 0 5.69824L0.0400391 5.65723ZM10.4111 3.77148C10.6785 3.95434 11.0022 4.06241 11.3506 4.0625C11.681 4.06247 11.9881 3.96369 12.2471 3.79785L12.3037 3.85449C12.1377 4.11363 12.041 4.42234 12.041 4.75293C12.0412 5.08347 12.1386 5.39134 12.3047 5.65039L12.248 5.70605C11.989 5.54009 11.6811 5.44339 11.3506 5.44336C11.0024 5.44345 10.6785 5.54974 10.4111 5.73242L10.3691 5.69043C10.5516 5.42325 10.66 5.10086 10.6602 4.75293C10.6602 4.40463 10.5528 4.08088 10.3701 3.81348L10.4111 3.77148ZM7.39453 3.6377H4.72754V0.970703H7.39453V3.6377ZM1.92578 0C2.19322 0.182923 2.51678 0.290927 2.86523 0.291016C3.19566 0.290999 3.50267 0.19224 3.76172 0.0263672L3.81836 0.0830078C3.65229 0.342172 3.55566 0.650794 3.55566 0.981445C3.55576 1.31192 3.65237 1.61987 3.81836 1.87891L3.76172 1.93457C3.50276 1.76887 3.19548 1.67091 2.86523 1.6709C2.51699 1.67099 2.19313 1.77822 1.92578 1.96094L1.88477 1.91992C2.06743 1.65262 2.1747 1.32962 2.1748 0.981445C2.1748 0.633063 2.06754 0.309436 1.88477 0.0419922L1.92578 0Z" fill="var(--fill-0, #195AFE)"/>
</svg>
