<svg preserveAspectRatio="none" width="100%" height="100%" overflow="visible" style="display: block;" viewBox="0 0 20 20" fill="none" xmlns="http://www.w3.org/2000/svg">
<path id="Vector" fill-rule="evenodd" clip-rule="evenodd" d="M10.9859 0.713767C10.6291 -0.237922 9.28289 -0.237922 8.92601 0.713767L6.46213 7.28411L1.71155 4.11706C0.89614 3.57346 -0.169445 4.28708 0.0227497 5.24804L2.95598 15.8152H16.956L19.8891 5.24804C20.0814 4.2871 19.0158 3.57346 18.2004 4.11706L13.4498 7.28411L10.9859 0.713767ZM7.93655 9.04832L9.95597 3.6632L11.9754 9.04832C12.2242 9.7117 13.026 9.97034 13.6155 9.57734L17.5019 6.98641L15.456 13.8152H4.45598L2.41003 6.98641L6.29642 9.57734C6.88592 9.97034 7.68779 9.71171 7.93655 9.04832ZM16.956 17.8151H2.95598V19.8152H16.956V17.8151Z" fill="var(--fill-0, #6B7C8C)"/>
</svg>
