<svg preserveAspectRatio="none" width="100%" height="100%" overflow="visible" style="display: block;" viewBox="0 0 10 15" fill="none" xmlns="http://www.w3.org/2000/svg">
<path id="IconShape" d="M7.58398 0C8.55008 0.000384325 9.33382 0.856928 9.33398 1.91309V12.7529C9.33398 13.8092 8.55018 14.6656 7.58398 14.666H1.75C0.783651 14.6658 0 13.8094 0 12.7529V1.91309C0.000160975 0.856809 0.783751 0.000192292 1.75 0H7.58398ZM1.33398 12.7012C1.33398 13.05 1.58282 13.333 1.88965 13.333H7.44434C7.75101 13.3328 8 13.0499 8 12.7012V10.667H1.33398V12.7012ZM6.66699 12.667H2.66699V11.333H6.66699V12.667ZM1.33398 9.33301H8V4H1.33398V9.33301ZM1.88965 1.33301C1.58292 1.33301 1.33414 1.61618 1.33398 1.96484V2.66699H8V1.96484C7.99985 1.6163 7.75092 1.33321 7.44434 1.33301H1.88965Z" fill="var(--fill-0, #B6BEC6)"/>
</svg>
