<svg preserveAspectRatio="none" width="100%" height="100%" overflow="visible" style="display: block;" viewBox="0 0 9 10" fill="none" xmlns="http://www.w3.org/2000/svg">
<path id="Vector" d="M1.24453 4.71429L4.79899 0.172768C4.8539 0.103125 4.80435 0 4.71462 0H3.67935C3.61372 0 3.55078 0.0308037 3.5106 0.0816965L0.0914009 4.45045C0.0321848 4.5259 0 4.61904 0 4.71496C0 4.81087 0.0321848 4.90401 0.0914009 4.97946L3.5106 9.34688C3.55078 9.39911 3.61372 9.42857 3.67935 9.42857H4.71462C4.80435 9.42857 4.8539 9.32545 4.79899 9.2558L1.24453 4.71429ZM5.31596 4.71429L8.87042 0.172768C8.92533 0.103125 8.87578 0 8.78604 0H7.75078C7.68515 0 7.6222 0.0308037 7.58203 0.0816965L4.16283 4.45045C4.10361 4.5259 4.07143 4.61904 4.07143 4.71496C4.07143 4.81087 4.10361 4.90401 4.16283 4.97946L7.58203 9.34688C7.6222 9.39911 7.68515 9.42857 7.75078 9.42857H8.78604C8.87578 9.42857 8.92533 9.32545 8.87042 9.2558L5.31596 4.71429Z" fill="var(--fill-0, #1890FF)"/>
</svg>
