<svg preserveAspectRatio="none" width="100%" height="100%" overflow="visible" style="display: block;" viewBox="0 0 14 20" fill="none" xmlns="http://www.w3.org/2000/svg">
<path id="IconShape" d="M9 2V6.85C9 7.946 9.37 9.22086 10 10.0429H4C4.65 9.20129 5 7.92643 5 6.85V2H9ZM12 0H2C1.45 0 1 0.440357 1 0.978571C1 1.51679 1.45 2 2 2H3V6.85C3 8.47443 1.66 10.0429 0 10.0429V12H5.97V18.5929L6.97 19.5714L7.97 18.5929V12H14V10.0429C12.34 10.0429 11 8.47443 11 6.85V2H12C12.55 2 13 1.51679 13 0.978571C13 0.440357 12.55 0 12 0Z" fill="var(--fill-0, #B6BEC6)"/>
</svg>
