<svg preserveAspectRatio="none" width="100%" height="100%" overflow="visible" style="display: block;" viewBox="0 0 14 14" fill="none" xmlns="http://www.w3.org/2000/svg">
<path id="IconShape" fill-rule="evenodd" clip-rule="evenodd" d="M2.66667 0H5.33333V1.33333H8V0H10.6667V1.33333H13.3333V4V5.33333V13.3333H0V5.33333V4V1.33333H2.66667V0ZM1.33333 5.33333H12V12H1.33333V5.33333ZM12 4H1.33333V2.66667H12V4ZM3.33333 6.66667H4.66667V8H3.33333V6.66667ZM4.66667 9.33333H3.33333V10.6667H4.66667V9.33333ZM6 6.66667H7.33333V8H6V6.66667ZM7.33333 9.33333H6V10.6667H7.33333V9.33333ZM8.66667 6.66667H10V8H8.66667V6.66667ZM10 9.33333H8.66667V10.6667H10V9.33333Z" fill="var(--fill-0, #B6BEC6)"/>
</svg>
