<svg preserveAspectRatio="none" width="100%" height="100%" overflow="visible" style="display: block;" viewBox="0 0 14 14" fill="none" xmlns="http://www.w3.org/2000/svg">
<path id="Vector" d="M12.94 6.38667L6.94 0.386667C6.69001 0.13872 6.3521 -0.000280549 6 4.25142e-07H1.33333C0.979712 4.25142e-07 0.640573 0.140476 0.390525 0.390525C0.140476 0.640573 4.1862e-07 0.979712 4.1862e-07 1.33333V6C-0.000138994 6.17594 0.0345445 6.35017 0.102052 6.51265C0.169559 6.67512 0.268555 6.82263 0.393334 6.94667L6.39333 12.9467C6.64332 13.1946 6.98124 13.3336 7.33333 13.3333C7.68639 13.3318 8.02443 13.1904 8.27333 12.94L12.94 8.27333C13.1904 8.02443 13.3318 7.68639 13.3333 7.33333C13.3335 7.15739 13.2988 6.98316 13.2313 6.82069C13.1638 6.65821 13.0648 6.51071 12.94 6.38667ZM7.33333 12L1.33333 6V1.33333H6L12 7.33333L7.33333 12ZM3 2C3.19778 2 3.39112 2.05865 3.55557 2.16853C3.72002 2.27841 3.84819 2.43459 3.92388 2.61732C3.99957 2.80004 4.01937 3.00111 3.98079 3.19509C3.9422 3.38907 3.84696 3.56725 3.70711 3.70711C3.56725 3.84696 3.38907 3.9422 3.19509 3.98079C3.00111 4.01937 2.80004 3.99957 2.61732 3.92388C2.43459 3.84819 2.27841 3.72002 2.16853 3.55557C2.05865 3.39112 2 3.19778 2 3C2 2.73478 2.10536 2.48043 2.29289 2.29289C2.48043 2.10536 2.73478 2 3 2V2Z" fill="var(--fill-0, #092540)"/>
</svg>
