<svg preserveAspectRatio="none" width="100%" height="100%" overflow="visible" style="display: block;" viewBox="0 0 20 20" fill="none" xmlns="http://www.w3.org/2000/svg">
<path id="Vector" d="M9.4873 0.313477C9.88976 -0.0980941 10.5501 -0.105344 10.9619 0.296875C10.9675 0.302344 10.973 0.307883 10.9785 0.313477L19.7031 9.23828C20.105 9.64935 20.0979 10.3084 19.6875 10.7109L19.5908 10.8057C19.1799 11.2083 18.5205 11.2023 18.1172 10.792C18.1104 10.7851 18.1033 10.7776 18.0967 10.7705L17.9287 10.5889V18.0059C17.9285 18.5812 17.4614 19.0478 16.8857 19.0479H12.5312C11.9555 19.0479 11.4885 18.5812 11.4883 18.0059V14.8789H8.72852V18.0059C8.72827 18.5812 8.26125 19.0479 7.68555 19.0479H3.33105C2.75535 19.0479 2.28833 18.5812 2.28809 18.0059V10.5723L1.74316 11.1406C1.35646 11.5434 0.716629 11.5563 0.313477 11.1699C-0.0957683 10.771 -0.104095 10.1257 0.289062 9.72266L8.66406 1.15625L9.4873 0.313477ZM4.12793 8.6543V16.9629H6.8877V13.8369C6.8877 13.2613 7.35485 12.794 7.93066 12.7939H12.2852C12.861 12.7939 13.3281 13.2613 13.3281 13.8369V16.9629H16.0879V8.62598H16.1074L10.2334 2.29102L4.12793 8.6543Z" fill="var(--fill-0, #6B7C8C)"/>
</svg>
