<svg preserveAspectRatio="none" width="100%" height="100%" overflow="visible" style="display: block;" viewBox="0 0 8 13" fill="none" xmlns="http://www.w3.org/2000/svg">
<g id="Group 2">
<path id="Shape 3" d="M7.33301 0C7.70101 0 8 0.306886 8 0.68457V4.10547C7.99995 4.28123 7.93404 4.45091 7.81543 4.57812L5.8252 6.71582C6.73317 7.32682 7.33301 8.38107 7.33301 9.5791C7.33293 11.4681 5.84062 13 4 13C2.15938 13 0.667074 11.4681 0.666992 9.5791C0.666992 8.38107 1.26683 7.32682 2.1748 6.71582L0.18457 4.57812C0.0659553 4.45091 5.14027e-05 4.28123 0 4.10547V0.68457C0 0.306886 0.298992 0 0.666992 0H7.33301ZM4 7.52637C2.89533 7.52637 2 8.44536 2 9.5791C2.00008 10.7128 2.89538 11.6318 4 11.6318C5.10462 11.6318 5.99992 10.7128 6 9.5791C6 8.44536 5.10467 7.52637 4 7.52637ZM1.33301 4.04395L2.95215 5.56934H3.33301V1.36816H1.33301V4.04395ZM4.66699 5.56934H5.04785L6.66699 4.04395V1.36816H4.66699V5.56934Z" fill="var(--fill-0, #092540)"/>
<mask id="mask0_174_78844" style="mask-type:luminance" maskUnits="userSpaceOnUse" x="0" y="0" width="8" height="13">
<path id="Shape 3_2" d="M7.33301 0C7.70101 0 8 0.306886 8 0.68457V4.10547C7.99995 4.28123 7.93404 4.45091 7.81543 4.57812L5.8252 6.71582C6.73317 7.32682 7.33301 8.38107 7.33301 9.5791C7.33293 11.4681 5.84062 13 4 13C2.15938 13 0.667074 11.4681 0.666992 9.5791C0.666992 8.38107 1.26683 7.32682 2.1748 6.71582L0.18457 4.57812C0.0659553 4.45091 5.14027e-05 4.28123 0 4.10547V0.68457C0 0.306886 0.298992 0 0.666992 0H7.33301ZM4 7.52637C2.89533 7.52637 2 8.44536 2 9.5791C2.00008 10.7128 2.89538 11.6318 4 11.6318C5.10462 11.6318 5.99992 10.7128 6 9.5791C6 8.44536 5.10467 7.52637 4 7.52637ZM1.33301 4.04395L2.95215 5.56934H3.33301V1.36816H1.33301V4.04395ZM4.66699 5.56934H5.04785L6.66699 4.04395V1.36816H4.66699V5.56934Z" fill="var(--fill-0, white)"/>
</mask>
<g mask="url(#mask0_174_78844)">
</g>
</g>
</svg>
