<svg preserveAspectRatio="none" width="100%" height="100%" overflow="visible" style="display: block;" viewBox="0 0 33 33" fill="none" xmlns="http://www.w3.org/2000/svg">
<path id="Vector" d="M5.85402 25.7143C5.93438 25.7143 6.01473 25.7063 6.09509 25.6942L12.8531 24.5089C12.9335 24.4929 13.0098 24.4567 13.0661 24.3964L30.0978 7.36473C30.135 7.32756 30.1646 7.28341 30.1847 7.23481C30.2049 7.1862 30.2153 7.1341 30.2153 7.08147C30.2153 7.02885 30.2049 6.97675 30.1847 6.92814C30.1646 6.87954 30.135 6.83539 30.0978 6.79822L23.4201 0.116518C23.3438 0.0401786 23.2433 0 23.1348 0C23.0263 0 22.9259 0.0401786 22.8496 0.116518L5.81786 17.1482C5.75759 17.2085 5.72143 17.2808 5.70536 17.3612L4.52009 24.1192C4.481 24.3344 4.49497 24.556 4.56078 24.7646C4.62659 24.9732 4.74225 25.1627 4.89777 25.3165C5.16295 25.5737 5.49643 25.7143 5.85402 25.7143V25.7143ZM8.56205 18.7071L23.1348 4.13839L26.0799 7.08348L11.5071 21.6522L7.93527 22.283L8.56205 18.7071V18.7071ZM30.8571 29.0893H1.28571C0.574554 29.0893 0 29.6638 0 30.375V31.8214C0 31.9982 0.144643 32.1429 0.321429 32.1429H31.8214C31.9982 32.1429 32.1429 31.9982 32.1429 31.8214V30.375C32.1429 29.6638 31.5683 29.0893 30.8571 29.0893Z" fill="var(--fill-0, black)" fill-opacity="0.85"/>
</svg>
