<svg preserveAspectRatio="none" width="100%" height="100%" overflow="visible" style="display: block;" viewBox="0 0 10 14" fill="none" xmlns="http://www.w3.org/2000/svg">
<path id="IconShape" d="M6 1.33333V4.56667C6 5.29733 6.24667 6.14724 6.66667 6.69524H2.66667C3.1 6.13419 3.33333 5.28429 3.33333 4.56667V1.33333H6ZM8 0H1.33333C0.966667 0 0.666667 0.293571 0.666667 0.652381C0.666667 1.01119 0.966667 1.33333 1.33333 1.33333H2V4.56667C2 5.64962 1.10667 6.69524 0 6.69524V8H3.98V12.3952L4.64667 13.0476L5.31333 12.3952V8H9.33333V6.69524C8.22667 6.69524 7.33333 5.64962 7.33333 4.56667V1.33333H8C8.36667 1.33333 8.66667 1.01119 8.66667 0.652381C8.66667 0.293571 8.36667 0 8 0Z" fill="var(--fill-0, #195AFE)"/>
</svg>
