<svg preserveAspectRatio="none" width="100%" height="100%" overflow="visible" style="display: block;" viewBox="0 0 14 15" fill="none" xmlns="http://www.w3.org/2000/svg">
<path id="IconShape" d="M6.66699 0C7.63289 0.000117781 8.49894 0.524554 8.96875 1.33301H11.334C12.4351 1.33336 13.3338 2.23185 13.334 3.33301V12.666C13.334 13.7673 12.4352 14.6657 11.334 14.666H2C0.898625 14.6658 0 13.7674 0 12.666V3.33301C0.000177055 2.23174 0.898734 1.33318 2 1.33301H4.36523C4.83514 0.524623 5.70108 8.6331e-08 6.66699 0ZM6.66699 1.33301C6.10516 1.33301 5.60705 1.69423 5.41406 2.22656L5.25488 2.66602H2C1.63511 2.66619 1.33416 2.96812 1.33398 3.33301V12.666C1.33398 13.0311 1.635 13.3328 2 13.333H11.334C11.6988 13.3326 12 13.0309 12 12.666V3.33301C11.9998 2.96823 11.6987 2.66637 11.334 2.66602H8.0791L7.91992 2.22656C7.72703 1.69422 7.22876 1.33315 6.66699 1.33301ZM8 11.333H3.33301V10H8V11.333ZM10 8.66699H3.33301V7.33301H10V8.66699ZM10 6H3.33301V4.66699H10V6Z" fill="var(--fill-0, #195AFE)"/>
</svg>
