<svg preserveAspectRatio="none" width="100%" height="100%" overflow="visible" style="display: block;" viewBox="0 0 14 11" fill="none" xmlns="http://www.w3.org/2000/svg">
<path id="IconShape" d="M13.334 10.666H0V0H13.334V10.666ZM5.85156 7.37988L5.85254 7.38086L4.90918 8.32324L3.96582 7.37988L2.01367 9.33301H11.5762L7.7373 5.49414L5.85156 7.37988ZM1.33398 8.12793L3.02344 6.4375L3.9668 5.49512L4.90918 6.4375L7.7373 3.60938L12 7.87207V1.33301H1.33398V8.12793ZM3.33301 2C4.06928 2 4.66682 2.59678 4.66699 3.33301C4.66699 4.06939 4.06939 4.66699 3.33301 4.66699C2.59678 4.66682 2 4.06928 2 3.33301C2.00018 2.59689 2.59689 2.00018 3.33301 2Z" fill="var(--fill-0, #3A5166)"/>
</svg>
