<svg preserveAspectRatio="none" width="100%" height="100%" overflow="visible" style="display: block;" viewBox="0 0 20 16" fill="none" xmlns="http://www.w3.org/2000/svg">
<path id="IconShape" d="M20 16H0V0H20V16ZM8.77734 11.0703L8.77832 11.0713L7.36426 12.4854L5.94922 11.0713L3.02051 14H17.3643L11.6064 8.24219L8.77734 11.0703ZM2 12.1924L5.9502 8.24219L7.36426 9.65625L11.6064 5.41406L18 11.8076V2H2V12.1924ZM5 3C6.10457 3 7 3.89543 7 5C7 6.10457 6.10457 7 5 7C3.89543 7 3 6.10457 3 5C3 3.89543 3.89543 3 5 3Z" fill="var(--fill-0, #B6BEC6)"/>
</svg>
