<svg preserveAspectRatio="none" width="100%" height="100%" overflow="visible" style="display: block;" viewBox="0 0 22 22" fill="none" xmlns="http://www.w3.org/2000/svg">
<path id="Shape" fill-rule="evenodd" clip-rule="evenodd" d="M22 11C22 17.0751 17.0751 22 11 22C4.92487 22 0 17.0751 0 11C0 4.92487 4.92487 0 11 0C17.0751 0 22 4.92487 22 11ZM9.625 12.1C9.625 12.8594 10.2406 13.475 11 13.475C11.7594 13.475 12.375 12.8594 12.375 12.1V5.225C12.375 4.46561 11.7594 3.85 11 3.85C10.2406 3.85 9.625 4.46561 9.625 5.225V12.1ZM11 17.1417C10.2406 17.1417 9.625 16.5261 9.625 15.7667C9.625 15.0073 10.2406 14.3917 11 14.3917C11.7594 14.3917 12.375 15.0073 12.375 15.7667C12.375 16.5261 11.7594 17.1417 11 17.1417Z" fill="var(--fill-0, #FF442D)"/>
</svg>
