<svg preserveAspectRatio="none" width="100%" height="100%" overflow="visible" style="display: block;" viewBox="0 0 27 29" fill="none" xmlns="http://www.w3.org/2000/svg">
<path id="Vector" d="M14.1917 13.3513L3.93413 0.24509C3.8136 0.0883931 3.62476 0 3.42788 0H0.322079C0.0528822 0 -0.0957787 0.309375 0.0689535 0.518303L10.7323 14.1429L0.0689535 27.7674C0.0318558 27.8148 0.00883727 27.8716 0.0025297 27.9315C-0.00377788 27.9913 0.0068804 28.0517 0.0332853 28.1058C0.0596902 28.1599 0.100776 28.2054 0.151846 28.2372C0.202916 28.269 0.261908 28.2858 0.322079 28.2857H3.42788C3.62476 28.2857 3.8136 28.1933 3.93413 28.0406L14.1917 14.9384C14.5573 14.4683 14.5573 13.8174 14.1917 13.3513V13.3513ZM26.406 13.3513L16.1484 0.24509C16.0279 0.0883931 15.839 0 15.6422 0H12.5364C12.2672 0 12.1185 0.309375 12.2832 0.518303L22.9466 14.1429L12.2832 27.7674C12.2461 27.8148 12.2231 27.8716 12.2168 27.9315C12.2105 27.9913 12.2212 28.0517 12.2476 28.1058C12.274 28.1599 12.3151 28.2054 12.3661 28.2372C12.4172 28.269 12.4762 28.2858 12.5364 28.2857H15.6422C15.839 28.2857 16.0279 28.1933 16.1484 28.0406L26.406 14.9384C26.7716 14.4683 26.7716 13.8174 26.406 13.3513V13.3513Z" fill="var(--fill-0, black)" fill-opacity="0.85"/>
</svg>
