<svg preserveAspectRatio="none" width="100%" height="100%" overflow="visible" style="display: block;" viewBox="0 0 11 12" fill="none" xmlns="http://www.w3.org/2000/svg">
<path id="IconShape" d="M1.32422 0C1.55732 0 1.78656 0.0622346 1.98828 0.179688L10.0059 4.84766C10.6387 5.21623 10.8546 6.03065 10.4883 6.66699C10.3724 6.86821 10.206 7.0358 10.0059 7.15234L1.98828 11.8203C1.35542 12.1888 0.545454 11.972 0.178711 11.3359C0.0618884 11.1331 0 10.9023 0 10.668V1.33203C0 0.596671 0.592844 0.000169375 1.32422 0ZM1.95898 10.2979L6.1875 7.83594L5.29785 6.94141L1.95898 10.2979ZM1.32422 9.05273L4.36133 6L1.32422 2.94629V9.05273ZM6.2334 6L7.37305 7.14551L9.3418 6L7.37305 4.85352L6.2334 6ZM5.29688 5.05859L6.1875 4.16309L1.95801 1.70117L5.29688 5.05859Z" fill="var(--fill-0, #B6BEC6)"/>
</svg>
