<svg preserveAspectRatio="none" width="100%" height="100%" overflow="visible" style="display: block;" viewBox="0 0 20 19" fill="none" xmlns="http://www.w3.org/2000/svg">
<path id="IconShape" d="M9.12891 0.510742C9.3993 0.0292045 10.0087 -0.14243 10.4902 0.12793C10.6504 0.217841 10.7822 0.350625 10.8721 0.510742L19.873 16.5391C20.1435 17.0206 19.9718 17.631 19.4902 17.9014C19.3408 17.9851 19.1723 18.0293 19.001 18.0293H1C0.447807 18.0293 0.000148407 17.5815 0 17.0293C0 16.8578 0.0439687 16.6886 0.12793 16.5391L9.12891 0.510742ZM2.70801 16.0293H17.293L10.001 3.04297L2.70801 16.0293ZM11.001 14.0293H9.00098V12.0293H11.001V14.0293ZM11.001 11.0293H9.00098V7.0293H11.001V11.0293Z" fill="var(--fill-0, #B6BEC6)"/>
</svg>
