<svg preserveAspectRatio="none" width="100%" height="100%" overflow="visible" style="display: block;" viewBox="0 0 7 9" fill="none" xmlns="http://www.w3.org/2000/svg">
<path id="IconShape" d="M3.5 0C4.87332 0 5.99982 0.978446 6 2.23047V3.08691C6.58234 3.29297 7 3.84707 7 4.5V7.5C7 8.32843 6.32843 9 5.5 9H1.5C0.671573 9 0 8.32843 0 7.5V4.5C0 3.84707 0.41766 3.29297 1 3.08691V2.23047C1.00018 0.978446 2.12668 0 3.5 0ZM1.5 4C1.22386 4 1 4.22386 1 4.5V7.5C1 7.77614 1.22386 8 1.5 8H5.5C5.77614 8 6 7.77614 6 7.5V4.5C6 4.22386 5.77614 4 5.5 4H1.5ZM3.5 1C2.65014 1 2.0002 1.56447 2 2.23047V3H5V2.23047C4.9998 1.56447 4.34986 1 3.5 1Z" fill="var(--fill-0, #FF7A1A)"/>
</svg>
