<svg preserveAspectRatio="none" width="100%" height="100%" overflow="visible" style="display: block;" viewBox="0 0 25 24" fill="none" xmlns="http://www.w3.org/2000/svg">
<g id="Drag" filter="url(#filter0_d_174_79618)">
<mask id="path-1-outside-1_174_79618" maskUnits="userSpaceOnUse" x="4" y="3" width="17" height="16" fill="black">
<rect fill="white" x="4" y="3" width="17" height="16"/>
<path fill-rule="evenodd" clip-rule="evenodd" d="M10.0303 18C10.0303 18 7.81107 16.3013 7.03031 15C6.24955 13.6987 4.77006 12.041 5.03031 11C5.29056 9.95899 6.24955 9.63091 7.03031 10.4117C7.81107 11.1924 8.0098 12.7603 8.53031 12.5C9.05081 12.2397 9.05081 10.9314 8.53031 9.5C8.0098 8.06861 6.46713 5 7.53031 5C8.59348 5 9.03031 5 9.53031 6.5C10.0303 8 10.1399 10 10.5303 10C10.9207 10 10.5303 10.4117 11.0697 9C11.1328 8.83467 10.9993 5.62389 11.0697 5.5C11.2583 5.16802 11.332 4 12.0538 4C12.3996 4 13.0303 4.5 13.0303 6.5C13.0303 8.5 13.1474 10 13.5303 10C14.0303 10 14.0303 10.041 14.0303 9C14.0303 8.56239 14.0303 7 14.0303 6.5C14.0303 6 14.9143 5 15.4939 5C16.4939 5 16.0098 10 16.5303 10C16.7553 10 17.5303 8 17.5303 8C17.5303 8 18.2464 7 18.5303 7C19.5303 7 19.0303 10 18.5303 11C18.0303 12 18.3111 13.959 17.5303 15C16.7496 16.041 16.0303 17 16.0303 17C16.0303 17 16.0303 18 15.4939 18C14.9576 18 14.6809 17 14.0303 17C13.3797 17 13.0303 18 13.0303 18H10.0303ZM16.0303 16V12H15.0303V16H16.0303ZM13.0303 15C13.0303 15.2709 13.2622 16 13.5303 16C13.8065 16 14.0303 15.2754 14.0303 15V13C14.0303 12.7291 13.7984 12 13.5303 12C13.2542 12 13.0303 12.7246 13.0303 13V15ZM11.0303 15C11.0303 15.2709 11.2622 16 11.5303 16C11.8065 16 12.0303 15.2754 12.0303 15V13C12.0303 12.7291 11.7984 12 11.5303 12C11.2542 12 11.0303 12.7246 11.0303 13V15Z"/>
</mask>
<path fill-rule="evenodd" clip-rule="evenodd" d="M10.0303 18C10.0303 18 7.81107 16.3013 7.03031 15C6.24955 13.6987 4.77006 12.041 5.03031 11C5.29056 9.95899 6.24955 9.63091 7.03031 10.4117C7.81107 11.1924 8.0098 12.7603 8.53031 12.5C9.05081 12.2397 9.05081 10.9314 8.53031 9.5C8.0098 8.06861 6.46713 5 7.53031 5C8.59348 5 9.03031 5 9.53031 6.5C10.0303 8 10.1399 10 10.5303 10C10.9207 10 10.5303 10.4117 11.0697 9C11.1328 8.83467 10.9993 5.62389 11.0697 5.5C11.2583 5.16802 11.332 4 12.0538 4C12.3996 4 13.0303 4.5 13.0303 6.5C13.0303 8.5 13.1474 10 13.5303 10C14.0303 10 14.0303 10.041 14.0303 9C14.0303 8.56239 14.0303 7 14.0303 6.5C14.0303 6 14.9143 5 15.4939 5C16.4939 5 16.0098 10 16.5303 10C16.7553 10 17.5303 8 17.5303 8C17.5303 8 18.2464 7 18.5303 7C19.5303 7 19.0303 10 18.5303 11C18.0303 12 18.3111 13.959 17.5303 15C16.7496 16.041 16.0303 17 16.0303 17C16.0303 17 16.0303 18 15.4939 18C14.9576 18 14.6809 17 14.0303 17C13.3797 17 13.0303 18 13.0303 18H10.0303ZM16.0303 16V12H15.0303V16H16.0303ZM13.0303 15C13.0303 15.2709 13.2622 16 13.5303 16C13.8065 16 14.0303 15.2754 14.0303 15V13C14.0303 12.7291 13.7984 12 13.5303 12C13.2542 12 13.0303 12.7246 13.0303 13V15ZM11.0303 15C11.0303 15.2709 11.2622 16 11.5303 16C11.8065 16 12.0303 15.2754 12.0303 15V13C12.0303 12.7291 11.7984 12 11.5303 12C11.2542 12 11.0303 12.7246 11.0303 13V15Z" fill="var(--fill-0, white)"/>
<path d="M10.0303 18L9.42248 18.7941L9.69151 19H10.0303V18ZM7.03031 15L6.17282 15.5145L6.17282 15.5145L7.03031 15ZM5.03031 11L6.00045 11.2425L6.00045 11.2425L5.03031 11ZM7.03031 10.4117L6.3232 11.1188L6.3232 11.1188L7.03031 10.4117ZM8.53031 12.5L8.0831 11.6056L8.0831 11.6056L8.53031 12.5ZM8.53031 9.5L9.4701 9.15826L9.4701 9.15826L8.53031 9.5ZM7.53031 5L7.53031 4L7.53031 4L7.53031 5ZM10.5303 10L10.5303 11L10.5303 11L10.5303 10ZM11.0697 9L12.0038 9.3569L12.0038 9.3569L11.0697 9ZM11.0697 5.5L10.2002 5.00601L10.2002 5.00601L11.0697 5.5ZM12.0538 4L12.0538 3L12.0538 3L12.0538 4ZM13.0303 6.5L14.0303 6.5L14.0303 6.5L13.0303 6.5ZM13.5303 10L13.5303 9L13.5303 9L13.5303 10ZM14.0303 9L13.0303 9L14.0303 9ZM14.0303 6.5L15.0303 6.5L15.0303 6.5L14.0303 6.5ZM15.4939 5L15.4939 4L15.4939 4L15.4939 5ZM16.5303 10L16.5303 11L16.5303 11L16.5303 10ZM17.5303 8L16.7173 7.41779L16.6436 7.52067L16.5979 7.63866L17.5303 8ZM18.5303 7L18.5303 6L18.5303 6L18.5303 7ZM18.5303 11L17.6359 10.5528L17.6359 10.5528L18.5303 11ZM16.0303 17L15.2303 16.4L15.0303 16.6667V17H16.0303ZM15.4939 18L15.4939 17L15.4939 17L15.4939 18ZM14.0303 17L14.0303 16L14.0303 17ZM13.0303 18V19H13.7402L13.9744 18.3298L13.0303 18ZM16.0303 16V17H17.0303V16H16.0303ZM16.0303 12H17.0303V11H16.0303V12ZM15.0303 12V11H14.0303V12H15.0303ZM15.0303 16H14.0303V17H15.0303V16ZM10.0303 18C10.6381 17.2059 10.6382 17.206 10.6383 17.206C10.6383 17.206 10.6383 17.2061 10.6383 17.2061C10.6384 17.2061 10.6384 17.2061 10.6384 17.2061C10.6383 17.2061 10.6381 17.2059 10.6378 17.2057C10.6371 17.2052 10.636 17.2043 10.6343 17.203C10.6309 17.2004 10.6255 17.1962 10.6182 17.1905C10.6036 17.1792 10.5813 17.1618 10.5521 17.1388C10.4939 17.093 10.4086 17.0251 10.3033 16.9392C10.0922 16.7671 9.80334 16.5249 9.49217 16.2448C8.8424 15.6598 8.1941 14.996 7.8878 14.4855L7.03031 15L6.17282 15.5145C6.64728 16.3053 7.49897 17.1415 8.15402 17.7312C8.49525 18.0384 8.80999 18.3022 9.03942 18.4893C9.15438 18.583 9.24856 18.658 9.31471 18.7101C9.3478 18.7361 9.37393 18.7565 9.39218 18.7707C9.4013 18.7778 9.40847 18.7833 9.41355 18.7872C9.4161 18.7892 9.41812 18.7907 9.41962 18.7919C9.42036 18.7924 9.42098 18.7929 9.42145 18.7933C9.42169 18.7935 9.4219 18.7936 9.42207 18.7938C9.42215 18.7938 9.42226 18.7939 9.4223 18.7939C9.4224 18.794 9.42248 18.7941 10.0303 18ZM7.03031 15L7.8878 14.4855C7.67349 14.1283 7.41598 13.7543 7.17522 13.405C6.927 13.0448 6.69291 12.7057 6.49174 12.3785C6.28866 12.0483 6.14555 11.772 6.06565 11.5468C5.98235 11.312 6.00327 11.2313 6.00045 11.2425L5.03031 11L4.06017 10.7575C3.92723 11.2892 4.03548 11.8061 4.18079 12.2156C4.3295 12.6347 4.55627 13.0493 4.78813 13.4263C5.02189 13.8064 5.2878 14.1907 5.52843 14.5399C5.77654 14.8999 5.99675 15.221 6.17282 15.5145L7.03031 15ZM5.03031 11L6.00045 11.2425C6.06865 10.9697 6.17603 10.964 6.13096 10.9779C6.11468 10.983 6.10996 10.9771 6.13062 10.9835C6.15502 10.991 6.22444 11.02 6.3232 11.1188L7.03031 10.4117L7.73742 9.70457C7.1495 9.11665 6.34341 8.8184 5.53928 9.06744C4.75446 9.3105 4.25222 9.98925 4.06017 10.7575L5.03031 11ZM7.03031 10.4117L6.3232 11.1188C6.55671 11.3523 6.7215 11.7306 6.97101 12.2676C7.06595 12.4719 7.21692 12.7967 7.42368 13.0403C7.53396 13.1703 7.72828 13.3614 8.02377 13.4628C8.36103 13.5786 8.69898 13.5337 8.97752 13.3944L8.53031 12.5L8.0831 11.6056C8.23151 11.5314 8.44939 11.4944 8.67311 11.5712C8.85505 11.6336 8.94235 11.7389 8.9486 11.7463C8.9598 11.7594 8.94689 11.7468 8.91024 11.6797C8.87582 11.6168 8.836 11.5351 8.7848 11.4249C8.60963 11.0478 8.28467 10.2518 7.73742 9.70457L7.03031 10.4117ZM8.53031 12.5L8.97752 13.3944C9.42021 13.1731 9.64955 12.7809 9.76451 12.46C9.88119 12.1343 9.92069 11.7778 9.92069 11.4392C9.92069 10.7568 9.75967 9.95457 9.4701 9.15826L8.53031 9.5L7.59052 9.84174C7.82145 10.4768 7.92069 11.0444 7.92069 11.4392C7.92069 11.6391 7.89512 11.748 7.88168 11.7855C7.86651 11.8278 7.90066 11.6968 8.0831 11.6056L8.53031 12.5ZM8.53031 9.5L9.4701 9.15826C9.33065 8.77477 9.12405 8.28471 8.92973 7.81247C8.72853 7.32353 8.53163 6.83312 8.38437 6.39477C8.22753 5.92792 8.16624 5.63022 8.16478 5.49136C8.164 5.41635 8.18395 5.53356 8.07542 5.69429C7.91854 5.9266 7.67326 6 7.53031 6L7.53031 5L7.53031 4C7.12157 4 6.69192 4.16929 6.41795 4.57501C6.19231 4.90914 6.16243 5.27727 6.16489 5.51232C6.16993 5.99355 6.3275 6.55246 6.48849 7.03169C6.65906 7.53942 6.87897 8.08454 7.0802 8.57354C7.28829 9.07925 7.46971 9.50953 7.59052 9.84174L8.53031 9.5ZM7.53031 5L7.53031 6C7.81389 6 7.97599 6.00143 8.10363 6.01652C8.21389 6.02956 8.22926 6.04646 8.2173 6.03909C8.19694 6.02656 8.34008 6.09159 8.58163 6.81623L9.53031 6.5L10.479 6.18377C10.2205 5.40841 9.89526 4.72344 9.2657 4.33591C8.66959 3.96897 7.96751 4 7.53031 4L7.53031 5ZM9.53031 6.5L8.58163 6.81623C8.80652 7.49092 8.94377 8.27968 9.09117 9.01026C9.15899 9.34644 9.23646 9.70728 9.33465 9.99105C9.38187 10.1275 9.45769 10.3191 9.58323 10.494C9.69888 10.6552 10.0044 11 10.5303 11L10.5303 10L10.5303 9C10.9586 9 11.1753 9.28225 11.2083 9.32822C11.2512 9.38798 11.2505 9.41156 11.2247 9.33707C11.1769 9.19897 11.1225 8.96606 11.0517 8.61474C10.9217 7.97032 10.7541 7.00908 10.479 6.18377L9.53031 6.5ZM10.5303 10L10.5303 11C10.4149 11 10.2839 10.9586 10.1773 10.8926C10.1337 10.8657 10.204 10.9096 10.2298 10.9241C10.2545 10.938 10.3178 10.9727 10.404 11.002C10.491 11.0316 10.6509 11.073 10.8517 11.0484C11.3451 10.9881 11.5674 10.6226 11.6276 10.5051C11.6864 10.3904 11.7108 10.2855 11.7135 10.2748C11.735 10.19 11.7587 9.99838 12.0038 9.3569L11.0697 9L10.1355 8.6431C9.99223 9.01814 9.90554 9.2855 9.85067 9.47899C9.82305 9.57643 9.80414 9.65282 9.79045 9.71225C9.7838 9.7411 9.77861 9.76501 9.77537 9.77986C9.7708 9.80079 9.77206 9.79438 9.77471 9.78392C9.77642 9.77717 9.78149 9.75747 9.78998 9.73139C9.7976 9.70802 9.8154 9.65612 9.84754 9.59338C9.87791 9.53406 9.94373 9.41973 10.0663 9.30974C10.2049 9.18534 10.3908 9.08988 10.6089 9.06321C10.8068 9.039 10.9637 9.07992 11.0472 9.10827C11.1299 9.13637 11.1893 9.1692 11.2097 9.18066C11.2228 9.18801 11.2329 9.19408 11.2382 9.19734C11.2435 9.20061 11.2473 9.20301 11.2474 9.20309C11.2512 9.20549 11.2388 9.19758 11.2296 9.19189C11.171 9.15565 11.0723 9.10044 10.9364 9.05881C10.805 9.01854 10.6688 9 10.5303 9L10.5303 10ZM11.0697 9L12.0038 9.3569C12.047 9.2438 12.0609 9.14468 12.0644 9.12081C12.0706 9.07862 12.0742 9.03999 12.0764 9.01147C12.0808 8.95346 12.0832 8.89054 12.0846 8.83158C12.0875 8.71129 12.0877 8.55895 12.0864 8.39302C12.0838 8.05929 12.075 7.63132 12.0668 7.21456C12.0584 6.79302 12.0504 6.3829 12.0488 6.0708C12.048 5.9134 12.0489 5.79214 12.0515 5.71125C12.0529 5.669 12.0543 5.65242 12.0542 5.65311C12.0541 5.65443 12.0536 5.65913 12.0527 5.66647C12.0518 5.67337 12.0499 5.68653 12.0467 5.704C12.0437 5.7199 12.0375 5.75047 12.0262 5.78917C12.0172 5.81998 11.9924 5.90019 11.9391 5.99399L11.0697 5.5L10.2002 5.00601C10.1079 5.16836 10.0833 5.32244 10.0806 5.33694C10.0711 5.38781 10.0661 5.43311 10.0633 5.4627C10.0574 5.52411 10.0544 5.58938 10.0526 5.64711C10.0487 5.76616 10.048 5.91736 10.0489 6.08098C10.0505 6.41091 10.0588 6.83705 10.0671 7.25436C10.0755 7.67644 10.084 8.08991 10.0864 8.40858C10.0877 8.56884 10.0873 8.69544 10.0852 8.78286C10.0841 8.82776 10.0828 8.8509 10.0822 8.85814C10.0819 8.86225 10.0826 8.85106 10.0856 8.83072C10.0859 8.8287 10.0962 8.74587 10.1355 8.6431L11.0697 9ZM11.0697 5.5L11.9391 5.99399C12.0105 5.86839 12.0564 5.74181 12.0841 5.65967C12.114 5.57087 12.1411 5.47669 12.1629 5.40079C12.2116 5.2305 12.2472 5.10547 12.2914 4.99409C12.3375 4.87767 12.3615 4.86168 12.3395 4.88433C12.2914 4.9338 12.1825 5 12.0538 5L12.0538 4L12.0538 3C11.0062 3 10.5775 3.89048 10.4322 4.25692C10.3441 4.47904 10.2808 4.70827 10.2401 4.85035C10.1823 5.05235 10.1746 5.05099 10.2002 5.00601L11.0697 5.5ZM12.0538 4L12.0538 5C11.7317 5 11.6943 4.79317 11.7903 4.97224C11.8832 5.14581 12.0303 5.58638 12.0303 6.5L13.0303 6.5L14.0303 6.5C14.0303 5.41362 13.862 4.60419 13.5532 4.02776C13.2473 3.45683 12.7217 3 12.0538 3L12.0538 4ZM13.0303 6.5H12.0303C12.0303 7.50771 12.0592 8.43358 12.1442 9.12249C12.1855 9.45695 12.2473 9.80189 12.355 10.0873C12.4077 10.2271 12.4961 10.4208 12.6508 10.5952C12.8182 10.7839 13.1144 11 13.5303 11L13.5303 10L13.5303 9C13.8505 9 14.0593 9.16921 14.147 9.26805C14.222 9.35259 14.2384 9.41354 14.2263 9.38148C14.2043 9.32311 14.165 9.16805 14.1292 8.87751C14.0599 8.31642 14.0303 7.49229 14.0303 6.5H13.0303ZM13.5303 10V11C13.5865 11 13.8107 11.0072 13.9933 10.9749C14.1111 10.9541 14.2808 10.9088 14.4539 10.7961C14.6376 10.6765 14.7682 10.5182 14.8545 10.3527C14.9958 10.0816 15.0133 9.79061 15.021 9.65015C15.0307 9.47354 15.0303 9.24779 15.0303 9L14.0303 9L13.0303 9C13.0303 9.27272 13.0299 9.43222 13.024 9.5407C13.0212 9.59215 13.0183 9.60475 13.02 9.59531C13.0213 9.58839 13.0334 9.51948 13.0811 9.42806C13.1361 9.32251 13.2277 9.2079 13.3626 9.12006C13.4868 9.03919 13.5979 9.01377 13.6454 9.00539C13.6882 8.99783 13.7093 8.99928 13.6763 8.99991C13.6409 9.00058 13.6102 9 13.5303 9V10ZM14.0303 9L15.0303 9C15.0303 8.56239 15.0303 7 15.0303 6.5H14.0303H13.0303C13.0303 7 13.0303 8.56239 13.0303 9L14.0303 9ZM14.0303 6.5L15.0303 6.5C15.0303 6.57785 15.0146 6.61873 15.0172 6.61093C15.0185 6.60717 15.027 6.58435 15.0499 6.54352C15.0964 6.46049 15.1739 6.35331 15.2737 6.24705C15.3741 6.14015 15.4722 6.0606 15.5463 6.01479C15.638 5.95814 15.6144 6 15.4939 6L15.4939 5L15.4939 4C15.0837 4 14.7322 4.16686 14.4951 4.31333C14.2405 4.47065 14.0089 4.67235 13.8158 4.87795C13.6221 5.08419 13.4425 5.32076 13.3051 5.56585C13.1823 5.78506 13.0303 6.12113 13.0303 6.5L14.0303 6.5ZM15.4939 5V6C15.1231 6 14.956 5.7445 14.9508 5.73598C14.948 5.73148 14.9845 5.79907 15.028 5.9966C15.1118 6.37649 15.1587 6.92649 15.1935 7.55514C15.2258 8.14028 15.248 8.81854 15.2937 9.31101C15.3162 9.55421 15.35 9.8264 15.4148 10.0564C15.4454 10.1648 15.5034 10.3418 15.621 10.5121C15.7408 10.6855 16.0348 11 16.5303 11L16.5303 10L16.5303 9C16.9608 9 17.1976 9.27546 17.2667 9.37559C17.3338 9.47266 17.3479 9.54227 17.3399 9.51391C17.3276 9.47047 17.306 9.35204 17.2851 9.12649C17.2439 8.68146 17.2271 8.10972 17.1904 7.44486C17.1561 6.82351 17.1041 6.12351 16.9811 5.5659C16.9213 5.29468 16.8274 4.97164 16.6577 4.69371C16.4855 4.41175 16.1148 4 15.4939 4V5ZM16.5303 10L16.5303 11C16.893 11 17.1347 10.8142 17.2091 10.7537C17.3096 10.6721 17.3823 10.5855 17.4259 10.5297C17.5163 10.4139 17.5946 10.2828 17.6554 10.1736C17.782 9.94602 17.9144 9.66314 18.0287 9.40562C18.1454 9.14256 18.2537 8.88204 18.3322 8.68889C18.3716 8.59188 18.4039 8.51087 18.4265 8.45377C18.4378 8.4252 18.4467 8.40256 18.4528 8.38684C18.4559 8.37897 18.4583 8.37284 18.4599 8.36855C18.4608 8.3664 18.4614 8.36472 18.4619 8.36351C18.4621 8.36291 18.4623 8.36243 18.4625 8.36206C18.4625 8.36188 18.4626 8.36173 18.4626 8.36161C18.4627 8.36155 18.4627 8.36148 18.4627 8.36145C18.4627 8.36139 18.4627 8.36134 17.5303 8C16.5979 7.63866 16.5979 7.63862 16.5979 7.63859C16.5979 7.63859 16.5979 7.63857 16.5979 7.63857C16.5979 7.63857 16.5979 7.6386 16.5979 7.63866C16.5978 7.63879 16.5977 7.63903 16.5976 7.63938C16.5973 7.6401 16.5969 7.64129 16.5962 7.64293C16.5949 7.64621 16.593 7.6513 16.5903 7.65809C16.585 7.67166 16.577 7.69199 16.5667 7.71811C16.546 7.77038 16.516 7.84562 16.4792 7.93611C16.4053 8.11796 16.3058 8.35744 16.2006 8.59438C16.093 8.83686 15.9896 9.05398 15.9076 9.2014C15.864 9.27966 15.8449 9.3048 15.8498 9.29845C15.8507 9.29732 15.8837 9.25368 15.9481 9.20135C15.9865 9.1702 16.1958 9 16.5303 9L16.5303 10ZM17.5303 8C18.3433 8.58221 18.3433 8.58228 18.3432 8.58235C18.3432 8.58236 18.3432 8.58243 18.3432 8.58246C18.3431 8.58253 18.3431 8.58259 18.343 8.58263C18.343 8.58271 18.343 8.58273 18.343 8.58269C18.3431 8.58262 18.3433 8.58232 18.3436 8.58179C18.3444 8.58074 18.3458 8.5788 18.3478 8.57603C18.3518 8.57048 18.3583 8.56164 18.3669 8.54998C18.3841 8.52661 18.4097 8.49221 18.4415 8.45055C18.506 8.36607 18.5919 8.25705 18.6828 8.15119C18.778 8.04015 18.8585 7.9564 18.9131 7.90857C18.9412 7.88391 18.9394 7.88939 18.9107 7.90617C18.9035 7.91038 18.7598 8 18.5303 8L18.5303 7L18.5303 6C18.2299 6 18.0017 6.12087 17.901 6.17977C17.7788 6.25123 17.6744 6.33484 17.5955 6.40393C17.436 6.5436 17.2842 6.70985 17.1649 6.84881C17.0413 6.99295 16.9304 7.13393 16.8518 7.23695C16.812 7.28904 16.7795 7.33277 16.7564 7.36408C16.7448 7.37976 16.7356 7.39241 16.729 7.40151C16.7257 7.40606 16.7231 7.40974 16.7211 7.41247C16.7201 7.41384 16.7193 7.41497 16.7187 7.41586C16.7183 7.4163 16.7181 7.41669 16.7178 7.41701C16.7177 7.41717 16.7176 7.41732 16.7175 7.41745C16.7175 7.41751 16.7174 7.4176 16.7174 7.41763C16.7173 7.41771 16.7173 7.41779 17.5303 8ZM18.5303 7V8C18.3722 8 18.2174 7.92795 18.1184 7.8253C18.0451 7.74936 18.0441 7.70092 18.0619 7.76243C18.0989 7.8903 18.1237 8.15743 18.0954 8.55375C18.0389 9.34356 17.8097 10.2051 17.6359 10.5528L18.5303 11L19.4247 11.4472C19.7509 10.7949 20.0217 9.65644 20.0903 8.69625C20.1245 8.21757 20.1179 7.6722 19.9831 7.20632C19.9149 6.97095 19.7929 6.68033 19.5575 6.43641C19.2963 6.1658 18.9385 6 18.5303 6V7ZM18.5303 11L17.6359 10.5528C17.4431 10.9383 17.3475 11.3664 17.2863 11.7377C17.2254 12.1067 17.1838 12.525 17.1428 12.8648C17.0488 13.6435 16.9369 14.1246 16.7303 14.4L17.5303 15L18.3303 15.6C18.9045 14.8344 19.0426 13.8155 19.1284 13.1045C19.1773 12.6994 19.2081 12.3753 19.2596 12.0633C19.3107 11.7535 19.3675 11.5617 19.4247 11.4472L18.5303 11ZM17.5303 15L16.7303 14.4C16.3399 14.9205 15.9649 15.4205 15.6875 15.7904C15.5488 15.9753 15.4345 16.1277 15.3549 16.2339C15.3151 16.287 15.2839 16.3285 15.2627 16.3568C15.2521 16.3709 15.244 16.3817 15.2386 16.389C15.2358 16.3926 15.2338 16.3954 15.2324 16.3972C15.2317 16.3981 15.2312 16.3988 15.2308 16.3993C15.2307 16.3995 15.2305 16.3997 15.2304 16.3998C15.2304 16.3999 15.2304 16.3999 15.2303 16.4C15.2303 16.4 15.2303 16.4 15.2303 16.4C15.2303 16.4 15.2303 16.4 16.0303 17C16.8303 17.6 16.8303 17.6 16.8303 17.6C16.8303 17.6 16.8303 17.6 16.8303 17.6C16.8304 17.5999 16.8304 17.5999 16.8304 17.5998C16.8305 17.5997 16.8307 17.5995 16.8308 17.5993C16.8312 17.5988 16.8317 17.5981 16.8324 17.5972C16.8338 17.5954 16.8358 17.5926 16.8386 17.589C16.844 17.5817 16.8521 17.5709 16.8627 17.5568C16.8839 17.5285 16.9151 17.487 16.9549 17.4339C17.0345 17.3277 17.1488 17.1753 17.2875 16.9904C17.5649 16.6205 17.9399 16.1205 18.3303 15.6L17.5303 15ZM16.0303 17C15.0303 17 15.0303 16.9997 15.0303 16.9995C15.0303 16.9994 15.0303 16.9992 15.0303 16.999C15.0303 16.9987 15.0303 16.9984 15.0303 16.9981C15.0303 16.9975 15.0303 16.9969 15.0303 16.9965C15.0303 16.9955 15.0303 16.9948 15.0303 16.9942C15.0303 16.9931 15.0303 16.9929 15.0303 16.9934C15.0303 16.9943 15.0302 16.9983 15.03 17.0047C15.0295 17.0177 15.0284 17.0397 15.0259 17.0672C15.0206 17.1269 15.0109 17.1905 14.9974 17.241C14.9804 17.3044 14.9759 17.2778 15.0249 17.2169C15.0547 17.1798 15.111 17.1223 15.2008 17.0744C15.2955 17.024 15.3985 17 15.4939 17V18V19C15.9913 19 16.3594 18.7488 16.5832 18.4706C16.783 18.2222 16.8791 17.9456 16.9291 17.759C16.9826 17.5595 17.0065 17.3731 17.018 17.2453C17.0239 17.1791 17.0269 17.1229 17.0285 17.0813C17.0293 17.0603 17.0298 17.0428 17.03 17.0291C17.0301 17.0223 17.0302 17.0164 17.0303 17.0115C17.0303 17.0091 17.0303 17.0069 17.0303 17.005C17.0303 17.004 17.0303 17.0031 17.0303 17.0023C17.0303 17.0019 17.0303 17.0015 17.0303 17.0011C17.0303 17.0009 17.0303 17.0006 17.0303 17.0005C17.0303 17.0003 17.0303 17 16.0303 17ZM15.4939 18L15.4939 17C15.693 17 15.7977 17.0983 15.7739 17.0783C15.7372 17.0474 15.6932 16.9973 15.5594 16.8436C15.4554 16.7241 15.2789 16.5208 15.0556 16.3544C14.8151 16.1752 14.4708 16 14.0303 16L14.0303 17L14.0303 18C13.9152 18 13.8494 17.9498 13.8605 17.9581C13.8889 17.9792 13.937 18.0259 14.0506 18.1564C14.1343 18.2527 14.3007 18.4526 14.487 18.6092C14.6863 18.7767 15.0268 19 15.4939 19L15.4939 18ZM14.0303 17L14.0303 16C13.1706 16 12.6595 16.6411 12.4574 16.9407C12.3336 17.1242 12.2439 17.3007 12.1858 17.4275C12.1562 17.4923 12.1332 17.5476 12.1168 17.589C12.1086 17.6097 12.1019 17.6272 12.0969 17.6409C12.0943 17.6477 12.0922 17.6536 12.0904 17.6585C12.0895 17.661 12.0887 17.6632 12.088 17.6651C12.0877 17.6661 12.0874 17.667 12.0871 17.6678C12.0869 17.6683 12.0868 17.6687 12.0867 17.6691C12.0866 17.6693 12.0865 17.6695 12.0865 17.6696C12.0864 17.6699 12.0863 17.6702 13.0303 18C13.9744 18.3298 13.9743 18.3301 13.9742 18.3303C13.9741 18.3304 13.9741 18.3307 13.974 18.3308C13.9739 18.3312 13.9738 18.3315 13.9737 18.3318C13.9735 18.3324 13.9733 18.3329 13.9731 18.3334C13.9727 18.3344 13.9725 18.3352 13.9723 18.3357C13.9719 18.3369 13.9717 18.3371 13.9719 18.3366C13.9723 18.3357 13.9738 18.3317 13.9764 18.3251C13.9817 18.3118 13.991 18.289 14.0043 18.26C14.0321 18.1993 14.0704 18.1258 14.1153 18.0593C14.1372 18.0269 14.1572 18.0011 14.1744 17.9819C14.1828 17.9725 14.1895 17.9657 14.1946 17.961C14.1996 17.9562 14.2021 17.9543 14.2019 17.9545C14.2009 17.9552 14.1386 18 14.0303 18L14.0303 17ZM13.0303 18V17H10.0303V18V19H13.0303V18ZM16.0303 16H17.0303V12H16.0303H15.0303V16H16.0303ZM16.0303 12V11H15.0303V12V13H16.0303V12ZM15.0303 12H14.0303V16H15.0303H16.0303V12H15.0303ZM15.0303 16V17H16.0303V16V15H15.0303V16ZM13.0303 15H12.0303C12.0303 15.317 12.1377 15.7051 12.2589 15.9914C12.3235 16.1441 12.4217 16.3399 12.5654 16.5154C12.6808 16.6564 13.002 17 13.5303 17V16V15C13.7316 15 13.8832 15.0698 13.9707 15.1257C14.054 15.179 14.099 15.2315 14.1128 15.2483C14.1376 15.2786 14.1275 15.2752 14.1007 15.2118C14.0777 15.1576 14.0567 15.0927 14.0423 15.0338C14.0354 15.0054 14.0315 14.9845 14.0298 14.9727C14.0275 14.9576 14.0303 14.9687 14.0303 15H13.0303ZM13.5303 16V17C14.0502 17 14.3713 16.6699 14.4951 16.5203C14.6423 16.3426 14.7413 16.1443 14.8059 15.9903C14.9283 15.6987 15.0303 15.3132 15.0303 15H14.0303H13.0303C13.0303 14.9593 13.0346 14.9716 13.018 15.0416C13.0041 15.1004 12.9837 15.164 12.9618 15.2163C12.936 15.2778 12.9272 15.2779 12.9547 15.2447C12.9701 15.2261 13.0165 15.1732 13.1009 15.1204C13.1901 15.0647 13.3378 15 13.5303 15V16ZM14.0303 15H15.0303V13H14.0303H13.0303V15H14.0303ZM14.0303 13H15.0303C15.0303 12.683 14.9229 12.2949 14.8017 12.0086C14.7371 11.8559 14.639 11.6601 14.4952 11.4846C14.3798 11.3436 14.0586 11 13.5303 11V12V13C13.329 13 13.1774 12.9302 13.0899 12.8743C13.0067 12.821 12.9616 12.7685 12.9478 12.7517C12.923 12.7214 12.9331 12.7248 12.9599 12.7882C12.9829 12.8424 13.004 12.9073 13.0183 12.9662C13.0252 12.9946 13.0291 13.0155 13.0308 13.0273C13.0331 13.0424 13.0303 13.0313 13.0303 13H14.0303ZM13.5303 12V11C13.0104 11 12.6894 11.3301 12.5655 11.4797C12.4183 11.6574 12.3193 11.8557 12.2547 12.0097C12.1323 12.3013 12.0303 12.6868 12.0303 13H13.0303H14.0303C14.0303 13.0407 14.026 13.0284 14.0426 12.9584C14.0565 12.8996 14.0769 12.836 14.0988 12.7837C14.1247 12.7222 14.1334 12.7221 14.1059 12.7553C14.0905 12.7739 14.0441 12.8268 13.9597 12.8796C13.8705 12.9353 13.7228 13 13.5303 13V12ZM13.0303 13H12.0303V15H13.0303H14.0303V13H13.0303ZM11.0303 15H10.0303C10.0303 15.317 10.1377 15.7051 10.2589 15.9914C10.3235 16.1441 10.4217 16.3399 10.5654 16.5154C10.6808 16.6564 11.002 17 11.5303 17V16V15C11.7316 15 11.8832 15.0698 11.9707 15.1257C12.054 15.179 12.099 15.2315 12.1128 15.2483C12.1376 15.2786 12.1275 15.2752 12.1007 15.2118C12.0777 15.1576 12.0567 15.0927 12.0423 15.0338C12.0354 15.0054 12.0315 14.9845 12.0298 14.9727C12.0275 14.9576 12.0303 14.9687 12.0303 15H11.0303ZM11.5303 16V17C12.0502 17 12.3713 16.6699 12.4951 16.5203C12.6423 16.3426 12.7413 16.1443 12.8059 15.9903C12.9283 15.6987 13.0303 15.3132 13.0303 15H12.0303H11.0303C11.0303 14.9593 11.0346 14.9716 11.018 15.0416C11.0041 15.1004 10.9837 15.164 10.9618 15.2163C10.936 15.2778 10.9272 15.2779 10.9547 15.2447C10.9701 15.2261 11.0165 15.1732 11.1009 15.1204C11.1901 15.0647 11.3378 15 11.5303 15V16ZM12.0303 15H13.0303V13H12.0303H11.0303V15H12.0303ZM12.0303 13H13.0303C13.0303 12.683 12.9229 12.2949 12.8017 12.0086C12.7371 11.8559 12.639 11.6601 12.4952 11.4846C12.3798 11.3436 12.0586 11 11.5303 11V12V13C11.329 13 11.1774 12.9302 11.0899 12.8743C11.0067 12.821 10.9616 12.7685 10.9478 12.7517C10.923 12.7214 10.9331 12.7248 10.9599 12.7882C10.9829 12.8424 11.004 12.9073 11.0183 12.9662C11.0252 12.9946 11.0291 13.0155 11.0308 13.0273C11.0331 13.0424 11.0303 13.0313 11.0303 13H12.0303ZM11.5303 12V11C11.0104 11 10.6894 11.3301 10.5655 11.4797C10.4183 11.6574 10.3193 11.8557 10.2547 12.0097C10.1323 12.3013 10.0303 12.6868 10.0303 13H11.0303H12.0303C12.0303 13.0407 12.026 13.0284 12.0426 12.9584C12.0565 12.8996 12.0769 12.836 12.0988 12.7837C12.1247 12.7222 12.1334 12.7221 12.1059 12.7553C12.0905 12.7739 12.0441 12.8268 11.9597 12.8796C11.8705 12.9353 11.7228 13 11.5303 13V12ZM11.0303 13H10.0303V15H11.0303H12.0303V13H11.0303Z" fill="var(--stroke-0, black)" mask="url(#path-1-outside-1_174_79618)"/>
</g>
<defs>
<filter id="filter0_d_174_79618" x="-5.16176e-05" y="0" width="24.1078" height="24" filterUnits="userSpaceOnUse" color-interpolation-filters="sRGB">
<feFlood flood-opacity="0" result="BackgroundImageFix"/>
<feColorMatrix in="SourceAlpha" type="matrix" values="0 0 0 0 0 0 0 0 0 0 0 0 0 0 0 0 0 0 127 0" result="hardAlpha"/>
<feOffset dy="1"/>
<feGaussianBlur stdDeviation="2"/>
<feColorMatrix type="matrix" values="0 0 0 0 0 0 0 0 0 0 0 0 0 0 0 0 0 0 0.4 0"/>
<feBlend mode="normal" in2="BackgroundImageFix" result="effect1_dropShadow_174_79618"/>
<feBlend mode="normal" in="SourceGraphic" in2="effect1_dropShadow_174_79618" result="shape"/>
</filter>
</defs>
</svg>
