<svg preserveAspectRatio="none" width="100%" height="100%" overflow="visible" style="display: block;" viewBox="0 0 3 11" fill="none" xmlns="http://www.w3.org/2000/svg">
<path id="Vector" d="M1.33301 8C2.06634 8 2.66602 8.59967 2.66602 9.33301C2.66602 10.0663 2.06634 10.666 1.33301 10.666C0.599675 10.666 0 10.0663 0 9.33301C0 8.59967 0.599675 8 1.33301 8ZM1.33301 4C2.06634 4 2.66602 4.59967 2.66602 5.33301C2.66602 6.06634 2.06634 6.66602 1.33301 6.66602C0.599675 6.66602 1.30078e-07 6.06634 0 5.33301C0 4.59967 0.599675 4 1.33301 4ZM1.33301 0C2.06634 1.30079e-07 2.66602 0.599675 2.66602 1.33301C2.66602 2.06634 2.06634 2.66602 1.33301 2.66602C0.599675 2.66602 0 2.06634 0 1.33301C6.50395e-08 0.599674 0.599675 0 1.33301 0Z" fill="var(--fill-0, #6B7C8C)"/>
</svg>
