<svg preserveAspectRatio="none" width="100%" height="100%" overflow="visible" style="display: block;" viewBox="0 0 10 10" fill="none" xmlns="http://www.w3.org/2000/svg">
<path id="IconShape" d="M4.56445 0.255129C4.69968 0.014535 5.00442 -0.0713404 5.24512 0.0637226C5.32518 0.108681 5.39156 0.175063 5.43652 0.255129L9.93652 8.26978C10.0717 8.51055 9.98587 8.81525 9.74512 8.95044C9.67052 8.9923 9.58651 9.01482 9.50098 9.01489H0.5C0.223985 9.01489 0.000207073 8.79086 0 8.51489C0 8.42915 0.0224726 8.34454 0.0644531 8.26978L4.56445 0.255129ZM1.35449 8.01489H8.64648L5 1.52173L1.35449 8.01489ZM5.5 7.01489H4.5V6.01489H5.5V7.01489ZM5.5 5.51489H4.5V3.51489H5.5V5.51489Z" fill="var(--fill-0, #6B7C8C)"/>
</svg>
