<svg preserveAspectRatio="none" width="100%" height="100%" overflow="visible" style="display: block;" viewBox="0 0 22 20" fill="none" xmlns="http://www.w3.org/2000/svg">
<path id="Vector" d="M19 0C20.6569 0 22 1.34315 22 3V17C22 18.6569 20.6569 20 19 20H3C1.34315 20 0 18.6569 0 17V3C0 1.34315 1.34315 0 3 0H19ZM2 17C2 17.5523 2.44772 18 3 18H19C19.5523 18 20 17.5523 20 17V6H2V17ZM6 16H4V11H6V16ZM10 16H8V8H10V16ZM15 10C16.6569 10 18 11.3431 18 13C18 14.6569 16.6569 16 15 16C13.3431 16 12 14.6569 12 13C12 11.3431 13.3431 10 15 10ZM15 12C14.4477 12 14 12.4477 14 13C14 13.5523 14.4477 14 15 14C15.5523 14 16 13.5523 16 13C16 12.4477 15.5523 12 15 12ZM3 2C2.44772 2 2 2.44772 2 3V4H20V3C20 2.44772 19.5523 2 19 2H3Z" fill="var(--fill-0, #6B7C8C)"/>
</svg>
