<svg preserveAspectRatio="none" width="100%" height="100%" overflow="visible" style="display: block;" viewBox="0 0 14 11" fill="none" xmlns="http://www.w3.org/2000/svg">
<path id="Vector" d="M7 1H12.7246C13.4258 1 13.9999 1.57328 14 2.27441V9.72461C14 10.4259 13.4259 11 12.7246 11L1.27539 10.9492C0.574216 10.9492 0.000123903 10.376 0 9.6748L0.00683594 1.27441C0.00697643 0.573282 0.574227 0 1.27539 0H5L7 1ZM1.7002 2.5C1.58995 2.50007 1.50025 2.58901 1.5 2.69922V9.2998C1.50007 9.41016 1.58984 9.49993 1.7002 9.5H12.3008C12.411 9.49975 12.4999 9.41005 12.5 9.2998V2.69922C12.4998 2.58912 12.4109 2.50025 12.3008 2.5H1.7002Z" fill="var(--fill-0, #092540)"/>
</svg>
