<svg preserveAspectRatio="none" width="100%" height="100%" overflow="visible" style="display: block;" viewBox="0 0 23 18" fill="none" xmlns="http://www.w3.org/2000/svg">
<path id="IconShape" d="M4.24219 6.53516C6.19467 4.58286 9.36088 4.58305 11.3135 6.53516C13.2659 8.48773 13.2659 11.6539 11.3135 13.6064C9.60299 15.3167 6.96188 15.5284 5.02051 14.2422L1.41406 17.8496L0 16.4346L3.60547 12.8281C2.31997 10.8868 2.5322 8.24534 4.24219 6.53516ZM22.1719 17H14.1719V15H22.1719V17ZM9.89941 7.9502C8.72782 6.77883 6.82775 6.77869 5.65625 7.9502C4.4853 9.12171 4.48516 11.021 5.65625 12.1924C6.82775 13.3639 8.72782 13.3637 9.89941 12.1924C11.0707 11.0209 11.0705 9.12174 9.89941 7.9502ZM22.1719 12H16.1719V10H22.1719V12ZM22.1719 7H14.1719V5H22.1719V7ZM22 2H2V0H22V2Z" fill="var(--fill-0, #B6BEC6)"/>
</svg>
