<svg preserveAspectRatio="none" width="100%" height="100%" overflow="visible" style="display: block;" viewBox="0 0 10 10" fill="none" xmlns="http://www.w3.org/2000/svg">
<path id="IconShape" d="M4.56445 0.255377C4.69966 0.0145975 5.00434 -0.0712318 5.24512 0.0639709C5.32515 0.108929 5.39158 0.175338 5.43652 0.255377L9.93652 8.26905C10.0717 8.50983 9.9859 8.81549 9.74512 8.95069C9.67058 8.99247 9.58643 9.01409 9.50098 9.01417H0.5C0.223858 9.01417 0 8.79031 0 8.51417C1.69481e-05 8.42846 0.0224888 8.34378 0.0644531 8.26905L4.56445 0.255377ZM1.35449 8.01417H8.64648L5 1.521L1.35449 8.01417ZM5.5 7.01417H4.5V6.01417H5.5V7.01417ZM5.5 5.51417H4.5V3.51417H5.5V5.51417Z" fill="var(--fill-0, #6B7C8C)"/>
</svg>
