<svg preserveAspectRatio="none" width="100%" height="100%" overflow="visible" style="display: block;" viewBox="0 0 22 22" fill="none" xmlns="http://www.w3.org/2000/svg">
<g id="Icon/Flag/united-kingdom">
<circle id="Oval" cx="11" cy="11" r="11" fill="var(--fill-0, #F0F0F0)"/>
<g id="Group">
<path id="Shape" d="M2.27391 4.30298C1.40985 5.42717 0.758313 6.72289 0.378941 8.1305H6.10143L2.27391 4.30298Z" fill="var(--fill-0, #0052B4)"/>
<path id="Shape_2" d="M21.6211 8.1305C21.2417 6.72293 20.5901 5.42721 19.7261 4.30302L15.8987 8.1305H21.6211Z" fill="var(--fill-0, #0052B4)"/>
<path id="Shape_3" d="M0.378941 13.8696C0.758355 15.2772 1.40989 16.5729 2.27391 17.6971L6.1013 13.8696H0.378941V13.8696Z" fill="var(--fill-0, #0052B4)"/>
<path id="Shape_4" d="M17.697 2.27395C16.5728 1.40989 15.2772 0.758355 13.8695 0.378941V6.10139L17.697 2.27395Z" fill="var(--fill-0, #0052B4)"/>
<path id="Shape_5" d="M4.30298 19.7261C5.42717 20.5901 6.72289 21.2416 8.13046 21.6211V15.8987L4.30298 19.7261Z" fill="var(--fill-0, #0052B4)"/>
<path id="Shape_6" d="M8.13042 0.378941C6.72285 0.758355 5.42713 1.40989 4.30298 2.27391L8.13042 6.10135V0.378941Z" fill="var(--fill-0, #0052B4)"/>
<path id="Shape_7" d="M13.8696 21.6211C15.2772 21.2416 16.5729 20.5901 17.697 19.7261L13.8696 15.8987V21.6211Z" fill="var(--fill-0, #0052B4)"/>
<path id="Shape_8" d="M15.8987 13.8696L19.7261 17.6971C20.5901 16.573 21.2417 15.2772 21.6211 13.8696H15.8987Z" fill="var(--fill-0, #0052B4)"/>
</g>
<g id="Group_2">
<path id="Shape_9" d="M21.9069 9.56523H12.4349H12.4348V0.0931133C11.9651 0.0319688 11.4863 0 11 0C10.5136 0 10.0349 0.0319688 9.56523 0.0931133V9.56514V9.56519H0.0931133C0.0319688 10.0349 0 10.5137 0 11C0 11.4864 0.0319688 11.9651 0.0931133 12.4348H9.56514H9.56519V21.9069C10.0349 21.968 10.5136 22 11 22C11.4863 22 11.9651 21.9681 12.4348 21.9069V12.4349V12.4348H21.9069C21.968 11.9651 22 11.4864 22 11C22 10.5137 21.968 10.0349 21.9069 9.56523Z" fill="var(--fill-0, #D80027)"/>
<path id="Shape_10" d="M13.8696 13.8696V13.8696L18.7782 18.7782C19.0039 18.5525 19.2193 18.3166 19.4248 18.072L15.2223 13.8696H13.8696V13.8696Z" fill="var(--fill-0, #D80027)"/>
<path id="Shape_11" d="M8.13042 13.8696H8.13033L3.2218 18.7782C3.44747 19.0039 3.68341 19.2193 3.92799 19.4248L8.13042 15.2222V13.8696Z" fill="var(--fill-0, #D80027)"/>
<path id="Shape_12" d="M8.13042 8.1305V8.13042L3.22184 3.2218C2.99608 3.44747 2.78072 3.68341 2.57525 3.92799L6.77772 8.13046H8.13042V8.1305Z" fill="var(--fill-0, #D80027)"/>
<path id="Shape_13" d="M13.8696 8.1305V8.1305L18.7782 3.22184C18.5525 2.99608 18.3166 2.78072 18.072 2.57529L13.8696 6.77776V8.1305H13.8696Z" fill="var(--fill-0, #D80027)"/>
</g>
</g>
</svg>
