<svg preserveAspectRatio="none" width="100%" height="100%" overflow="visible" style="display: block;" viewBox="0 0 12 12" fill="none" xmlns="http://www.w3.org/2000/svg">
<path id="Vector" fill-rule="evenodd" clip-rule="evenodd" d="M6.40846 0.416364C6.20028 -0.138788 5.41502 -0.138788 5.20684 0.416364L3.76958 4.24907L0.998407 2.40162C0.522748 2.08452 -0.0988431 2.5008 0.0132707 3.06136L1.72432 9.22552H9.89102L11.602 3.06136C11.7142 2.50081 11.0926 2.08452 10.6169 2.40162L7.84571 4.24907L6.40846 0.416364ZM4.62966 5.27819L5.80765 2.13687L6.98565 5.27819C7.13077 5.66516 7.59852 5.81603 7.9424 5.58678L10.2094 4.0754L9.01602 8.05889H2.59932L1.40585 4.0754L3.67291 5.58678C4.01679 5.81603 4.48455 5.66517 4.62966 5.27819ZM9.89102 10.3922H1.72432V11.5589H9.89102V10.3922Z" fill="var(--fill-0, #B6BEC6)"/>
</svg>
