<svg preserveAspectRatio="none" width="100%" height="100%" overflow="visible" style="display: block;" viewBox="0 0 44 33" fill="none" xmlns="http://www.w3.org/2000/svg">
<g id="Group 7">
<path id="Vector" d="M19.8192 6.84658H18.4454V1.66955C18.4454 1.5074 18.306 1.37651 18.1332 1.37651C17.9605 1.37651 17.821 1.5074 17.821 1.66955V6.84658H16.4473C16.1371 6.84658 15.8853 7.08296 15.8853 7.37405V21.3618C15.8853 21.6529 16.1371 21.8893 16.4473 21.8893H17.821V25.6988C17.821 25.8609 17.9605 25.9918 18.1332 25.9918C18.306 25.9918 18.4454 25.8609 18.4454 25.6988V21.8893H19.8192C20.1293 21.8893 20.3812 21.6529 20.3812 21.3618V7.37405C20.3812 7.08296 20.1293 6.84658 19.8192 6.84658Z" fill="url(#paint0_linear_174_79773)"/>
<path id="Vector_2" d="M11.9044 13.4887H10.4558V11.8282C10.4558 11.666 10.3163 11.5351 10.1435 11.5351C9.97078 11.5351 9.83133 11.666 9.83133 11.8282V13.4887H8.4784C8.18283 13.4887 7.94347 13.7134 7.94347 13.9908V23.9248C7.94347 24.2022 8.18283 24.4269 8.4784 24.4269H9.83133V30.3854C9.83133 30.5475 9.97078 30.6784 10.1435 30.6784C10.3163 30.6784 10.4558 30.5475 10.4558 30.3854V24.4289H11.9044C12.2 24.4289 12.4394 24.2042 12.4394 23.9268V13.9908C12.4394 13.7134 12.2 13.4887 11.9044 13.4887Z" fill="url(#paint1_linear_174_79773)"/>
<path id="Vector_3" d="M42.9595 2.93039H41.5066V0.293039C41.5066 0.130891 41.3672 0 41.1944 0C41.0216 0 40.8822 0.130891 40.8822 0.293039V2.93039H39.523C39.2295 2.93039 38.9922 3.1531 38.9922 3.42856V8.09766C38.9922 8.37311 39.2295 8.59582 39.523 8.59582H40.8822V13.5775C40.8822 13.7396 41.0216 13.8705 41.1944 13.8705C41.3672 13.8705 41.5066 13.7396 41.5066 13.5775V8.59582H42.9595C43.2529 8.59582 43.4902 8.37311 43.4902 8.09766V3.42856C43.4902 3.1531 43.2529 2.93039 42.9595 2.93039Z" fill="url(#paint2_linear_174_79773)"/>
<path id="Vector_4" d="M0.530763 29.3999L1.98361 29.3999L1.98361 32.0372C1.98361 32.1994 2.12306 32.3303 2.29582 32.3303C2.46858 32.3303 2.60804 32.1994 2.60804 32.0372L2.60804 29.3999L3.96721 29.3999C4.2607 29.3999 4.49798 29.1772 4.49798 28.9017L4.49798 24.2326C4.49798 23.9572 4.2607 23.7345 3.96721 23.7345L2.60804 23.7345L2.60804 18.7528C2.60804 18.5906 2.46858 18.4598 2.29582 18.4598C2.12306 18.4598 1.98361 18.5906 1.98361 18.7528L1.98361 23.7345L0.530764 23.7345C0.237282 23.7345 7.67532e-07 23.9572 7.43451e-07 24.2326L3.35265e-07 28.9017C3.11184e-07 29.1772 0.237281 29.3999 0.530763 29.3999Z" fill="url(#paint3_linear_174_79773)"/>
<path id="Vector_5" d="M27.7631 14.5422H26.3893V11.0258C26.3893 10.8636 26.2499 10.7327 26.0771 10.7327C25.9044 10.7327 25.7649 10.8636 25.7649 11.0258V14.5422H24.3912C24.081 14.5422 23.8292 14.7786 23.8292 15.0697V22.8059C23.8292 23.097 24.081 23.3334 24.3912 23.3334H25.7649V30.5617C25.7649 30.7239 25.9044 30.8548 26.0771 30.8548C26.2499 30.8548 26.3893 30.7239 26.3893 30.5617V23.3334H27.7631C28.0732 23.3334 28.3251 23.097 28.3251 22.8059V15.0697C28.3251 14.7786 28.0732 14.5422 27.7631 14.5422Z" fill="url(#paint4_linear_174_79773)"/>
<path id="Vector_6" d="M35.7391 10.1676H34.2842V2.64626C34.2842 2.48411 34.1447 2.35322 33.972 2.35322C33.7992 2.35322 33.6597 2.48411 33.6597 2.64626V10.1676H32.2985C32.0071 10.1676 31.7719 10.3884 31.7719 10.6619V21.393C31.7719 21.6665 32.0071 21.8872 32.2985 21.8872H33.6597V23.1571C33.6597 23.3192 33.7992 23.4501 33.972 23.4501C34.1447 23.4501 34.2842 23.3192 34.2842 23.1571V21.8892H35.7391C36.0305 21.8892 36.2657 21.6684 36.2657 21.3949V10.6619C36.2678 10.3884 36.0305 10.1676 35.7391 10.1676Z" fill="url(#paint5_linear_174_79773)"/>
</g>
<defs>
<linearGradient id="paint0_linear_174_79773" x1="18.1119" y1="6.11819" x2="18.1119" y2="30.2091" gradientUnits="userSpaceOnUse">
<stop stop-color="white"/>
<stop offset="1" stop-color="white" stop-opacity="0"/>
</linearGradient>
<linearGradient id="paint1_linear_174_79773" x1="10.1914" y1="11.5351" x2="10.1914" y2="30.6784" gradientUnits="userSpaceOnUse">
<stop stop-color="white"/>
<stop offset="1" stop-color="white" stop-opacity="0"/>
</linearGradient>
<linearGradient id="paint2_linear_174_79773" x1="41.2412" y1="-4.78738e-10" x2="41.1422" y2="35.209" gradientUnits="userSpaceOnUse">
<stop stop-color="white"/>
<stop offset="1" stop-color="white" stop-opacity="0"/>
</linearGradient>
<linearGradient id="paint3_linear_174_79773" x1="2.24899" y1="32.3303" x2="2.24899" y2="18.4597" gradientUnits="userSpaceOnUse">
<stop stop-color="white"/>
<stop offset="1" stop-color="white" stop-opacity="0"/>
</linearGradient>
<linearGradient id="paint4_linear_174_79773" x1="26.0771" y1="10.7327" x2="25.9906" y2="41.2697" gradientUnits="userSpaceOnUse">
<stop stop-color="white"/>
<stop offset="1" stop-color="white" stop-opacity="0"/>
</linearGradient>
<linearGradient id="paint5_linear_174_79773" x1="33.8694" y1="7.17874" x2="33.8694" y2="36.8757" gradientUnits="userSpaceOnUse">
<stop stop-color="white"/>
<stop offset="1" stop-color="white" stop-opacity="0"/>
</linearGradient>
</defs>
</svg>
