<svg preserveAspectRatio="none" width="100%" height="100%" overflow="visible" style="display: block;" viewBox="0 0 20 12" fill="none" xmlns="http://www.w3.org/2000/svg">
<path id="Vector" d="M3.1431 0C3.75425 1.92216e-06 4.25162 0.00487029 5.33256 0.0195312C6.31315 0.0328637 6.76692 0.0377283 7.30619 0.0390625C7.87614 0.0427248 8.4463 0.0500789 9.01615 0.0615234L9.23978 0.0664062L9.83548 0.078125C10.5849 0.0647909 11.6005 0.0573544 12.6939 0.0546875C13.2424 0.0533522 13.7062 0.0478199 14.6607 0.0351562C15.7603 0.0204955 16.2556 0.0156266 16.8648 0.015625H17.1109C17.1962 0.015625 17.2845 0.0177944 17.4751 0.0224609C17.7482 0.0291213 17.8802 0.0322208 18.0181 0.0322266C18.1379 0.0322266 18.2242 0.0303554 18.2769 0.0263672C19.3316 -0.0616377 19.9719 0.467352 19.9966 1.4834C20.0208 2.58049 19.9135 3.67662 19.6763 4.74805L19.5611 5.2207C19.2776 6.29423 18.8967 7.16679 18.398 7.875C17.8213 8.69238 17.0474 9.2641 15.814 9.9248C15.2674 10.2181 14.6848 10.4483 13.9175 10.6963C13.7202 10.7596 13.563 10.8084 13.2144 10.915L12.8501 11.0283C12.6668 11.085 12.5127 11.1336 12.3687 11.1816C12.0754 11.279 11.8684 11.3639 11.3951 11.5732L11.3335 11.6006L11.2076 11.6611C10.6942 11.9065 10.4293 12.001 10.0386 12.001C9.88194 12.001 9.72825 11.9792 9.58158 11.9346C9.27836 11.8433 9.00843 11.7364 8.57865 11.5498L8.47318 11.5039C8.05001 11.3193 7.85994 11.2413 7.63138 11.166C7.35135 11.0741 7.06983 10.9854 6.78763 10.9004C5.48099 10.4991 4.88978 10.2872 4.18509 9.90918C2.95199 9.2486 2.17872 8.67725 1.60209 7.85938C1.03205 7.04999 0.614808 6.02548 0.322789 4.7334C0.0859459 3.66193 -0.0208608 2.56581 0.00345351 1.46875C0.0267957 0.452064 0.66661 -0.0768598 1.71927 0.00976562C1.77389 0.0144281 1.86054 0.0165977 1.97904 0.0166016C2.13683 0.016963 2.29497 0.0150138 2.45267 0.00976562C2.71911 0.00310467 2.79929 5.00141e-06 2.8892 0H3.1431ZM2.09134 1.5791C1.80978 1.55586 1.84895 1.52361 1.8433 1.75781C1.82132 2.67876 1.9185 3.67005 2.11576 4.54199C2.35883 5.61603 2.69295 6.4376 3.12943 7.05762C3.53338 7.63182 4.12874 8.07127 5.13138 8.6084C5.69789 8.91171 6.20151 9.09268 7.35404 9.44629C7.75898 9.5706 7.94682 9.62912 8.17533 9.70508C8.43981 9.79303 8.64359 9.87634 9.07767 10.0654L9.17533 10.1084C9.53843 10.2655 9.75581 10.3505 9.98197 10.4189C9.99966 10.4241 10.0182 10.4269 10.0367 10.4268C10.1403 10.4267 10.2746 10.3787 10.5796 10.2324L10.7134 10.1689L10.7925 10.1328C11.2728 9.92062 11.4972 9.82837 11.8238 9.71973C11.9682 9.67199 12.1207 9.62328 12.3003 9.56738L12.649 9.45996C12.9712 9.3607 13.1157 9.31693 13.2935 9.25977C13.9492 9.04809 14.4328 8.8567 14.8687 8.62305C15.872 8.08529 16.4667 7.64681 16.8706 7.07324C17.3072 6.45322 17.6406 5.6314 17.8843 4.55664C18.0816 3.68466 18.1788 2.69282 18.1568 1.77246C18.1505 1.53784 18.19 1.56989 17.9068 1.59375C17.7901 1.6019 17.6731 1.60553 17.5562 1.60449C17.4117 1.60449 17.2796 1.60198 17.024 1.5957C16.9153 1.59245 16.8065 1.5898 16.6978 1.58887H16.4683C15.903 1.58887 15.4399 1.59263 14.4312 1.60645C13.5052 1.61901 13.0649 1.62409 12.5415 1.62598C11.5172 1.62786 10.5663 1.6349 9.84525 1.64746L9.25736 1.63574L9.0474 1.63184C8.51767 1.62111 7.98738 1.61387 7.45756 1.61035C6.94376 1.6091 6.51339 1.60471 5.61283 1.59277C4.57272 1.57896 4.10671 1.57324 3.53959 1.57324L3.30326 1.57422C3.2342 1.57422 3.16109 1.57569 2.97416 1.58008L2.92142 1.58203C2.7624 1.58584 2.60295 1.58821 2.44388 1.58984C2.2994 1.58984 2.18495 1.58664 2.09134 1.5791ZM14.149 3.18555C14.7385 3.18562 15.3054 3.32887 15.8394 3.57324C16.1526 3.71502 16.4496 3.89148 16.7232 4.09961L17.1001 4.39062L16.8716 4.80273C16.718 5.07968 16.5331 5.33823 16.3208 5.57324C15.9556 5.97564 15.5397 6.26353 15.0601 6.37695C14.5702 6.49197 14.1268 6.54782 13.6724 6.54785C12.9981 6.54783 12.2955 6.42126 11.5308 6.16602L11.0503 6.00586L11.1548 5.52246C11.2304 5.17265 11.3837 4.78206 11.647 4.4082C12.0437 3.8444 12.619 3.43733 13.3814 3.26953C13.632 3.21405 13.8909 3.18555 14.149 3.18555ZM5.9517 3.18555C6.20963 3.18558 6.46779 3.21465 6.7183 3.26953C7.48065 3.43723 8.05538 3.84453 8.45267 4.4082C8.68922 4.74269 8.85692 5.12136 8.94486 5.52148L9.04935 6.00488L8.56888 6.16504C7.80416 6.4203 7.10158 6.54688 6.42728 6.54688C5.95984 6.54511 5.49362 6.48814 5.03959 6.37695C4.56011 6.2635 4.14393 5.97552 3.77884 5.57324C3.5667 5.33831 3.38161 5.07954 3.22806 4.80273L2.99955 4.39062L3.37748 4.09961C3.65103 3.89152 3.94718 3.71402 4.26029 3.57227C4.79374 3.32843 5.36273 3.1856 5.9517 3.18555ZM5.9517 4.30469C5.54713 4.30474 5.14119 4.40646 4.7515 4.58496C4.6715 4.62154 4.59638 4.65995 4.52494 4.69824C4.75774 4.99215 5.03541 5.22423 5.31107 5.28906C5.71444 5.38404 6.06683 5.42768 6.42728 5.42773L6.71732 5.41797C7.01153 5.39847 7.31846 5.34978 7.64213 5.26953C7.60095 5.19022 7.5539 5.11313 7.50248 5.04004C7.26209 4.69911 6.92837 4.46224 6.46439 4.36035C6.29616 4.32348 6.12392 4.30468 5.9517 4.30469ZM14.149 4.30469C13.9762 4.30469 13.8033 4.32319 13.6363 4.36035C13.1716 4.46285 12.8376 4.69902 12.5972 5.04004C12.5458 5.11315 12.4997 5.19019 12.4585 5.26953C12.855 5.37161 13.263 5.42459 13.6724 5.42773C14.0329 5.4277 14.3853 5.38401 14.7886 5.28906C15.0638 5.22426 15.3428 4.99176 15.5757 4.69824C15.5016 4.65818 15.4258 4.61995 15.3492 4.58496C14.9588 4.40639 14.553 4.30475 14.149 4.30469Z" fill="var(--fill-0, #BB3F3F)"/>
</svg>
