<svg preserveAspectRatio="none" width="100%" height="100%" overflow="visible" style="display: block;" viewBox="0 0 35 26" fill="none" xmlns="http://www.w3.org/2000/svg">
<g id="Group 7">
<path id="Vector" d="M15.8554 5.47726H14.7564V1.33564C14.7564 1.20592 14.6448 1.10121 14.5066 1.10121C14.3684 1.10121 14.2568 1.20592 14.2568 1.33564V5.47726H13.1578C12.9097 5.47726 12.7082 5.66637 12.7082 5.89924V17.0894C12.7082 17.3223 12.9097 17.5114 13.1578 17.5114H14.2568V20.559C14.2568 20.6887 14.3684 20.7935 14.5066 20.7935C14.6448 20.7935 14.7564 20.6887 14.7564 20.559V17.5114H15.8554C16.1035 17.5114 16.3049 17.3223 16.3049 17.0894V5.89924C16.3049 5.66637 16.1035 5.47726 15.8554 5.47726Z" fill="url(#paint0_linear_174_79238)"/>
<path id="Vector_2" d="M9.52354 10.791H8.3646V9.46253C8.3646 9.33281 8.25304 9.2281 8.11483 9.2281C7.97662 9.2281 7.86506 9.33281 7.86506 9.46253V10.791H6.78272C6.54627 10.791 6.35478 10.9707 6.35478 11.1926V19.1399C6.35478 19.3618 6.54627 19.5415 6.78272 19.5415H7.86506V24.3083C7.86506 24.438 7.97662 24.5427 8.11483 24.5427C8.25304 24.5427 8.3646 24.438 8.3646 24.3083V19.5431H9.52354C9.75999 19.5431 9.95148 19.3634 9.95148 19.1414V11.1926C9.95148 10.9707 9.75999 10.791 9.52354 10.791Z" fill="url(#paint1_linear_174_79238)"/>
<path id="Vector_3" d="M34.3676 2.34432H33.2053V0.234432C33.2053 0.104713 33.0937 0 32.9555 0C32.8173 0 32.7057 0.104713 32.7057 0.234432V2.34432H31.6184C31.3836 2.34432 31.1938 2.52248 31.1938 2.74285V6.47812C31.1938 6.69849 31.3836 6.87666 31.6184 6.87666H32.7057V10.862C32.7057 10.9917 32.8173 11.0964 32.9555 11.0964C33.0937 11.0964 33.2053 10.9917 33.2053 10.862V6.87666H34.3676C34.6024 6.87666 34.7922 6.69849 34.7922 6.47812V2.74285C34.7922 2.52248 34.6024 2.34432 34.3676 2.34432Z" fill="url(#paint2_linear_174_79238)"/>
<path id="Vector_4" d="M0.424611 23.5199L1.58689 23.5199L1.58689 25.6298C1.58689 25.7595 1.69845 25.8642 1.83666 25.8642C1.97486 25.8642 2.08643 25.7595 2.08643 25.6298L2.08643 23.5199L3.17377 23.5199C3.40856 23.5199 3.59838 23.3417 3.59838 23.1214L3.59838 19.3861C3.59838 19.1657 3.40856 18.9876 3.17377 18.9876L2.08643 18.9876L2.08643 15.0022C2.08643 14.8725 1.97487 14.7678 1.83666 14.7678C1.69845 14.7678 1.58689 14.8725 1.58689 15.0022L1.58689 18.9876L0.424611 18.9876C0.189825 18.9876 6.30745e-07 19.1657 6.1148e-07 19.3861L2.84931e-07 23.1214C2.65666e-07 23.3417 0.189825 23.5199 0.424611 23.5199Z" fill="url(#paint3_linear_174_79238)"/>
<path id="Vector_5" d="M22.2105 11.6338H21.1115V8.82061C21.1115 8.69089 20.9999 8.58617 20.8617 8.58617C20.7235 8.58617 20.6119 8.69089 20.6119 8.82061V11.6338H19.5129C19.2648 11.6338 19.0633 11.8229 19.0633 12.0558V18.2448C19.0633 18.4776 19.2648 18.6667 19.5129 18.6667H20.6119V24.4494C20.6119 24.5791 20.7235 24.6838 20.8617 24.6838C20.9999 24.6838 21.1115 24.5791 21.1115 24.4494V18.6667H22.2105C22.4586 18.6667 22.6601 18.4776 22.6601 18.2448V12.0558C22.6601 11.8229 22.4586 11.6338 22.2105 11.6338Z" fill="url(#paint4_linear_174_79238)"/>
<path id="Vector_6" d="M28.5913 8.13408H27.4273V2.11701C27.4273 1.98729 27.3158 1.88258 27.1776 1.88258C27.0394 1.88258 26.9278 1.98729 26.9278 2.11701V8.13408H25.8388C25.6057 8.13408 25.4175 8.31069 25.4175 8.52949V17.1144C25.4175 17.3332 25.6057 17.5098 25.8388 17.5098H26.9278V18.5257C26.9278 18.6554 27.0394 18.7601 27.1776 18.7601C27.3158 18.7601 27.4273 18.6554 27.4273 18.5257V17.5113H28.5913C28.8244 17.5113 29.0125 17.3347 29.0125 17.1159V8.52949C29.0142 8.31069 28.8244 8.13408 28.5913 8.13408Z" fill="url(#paint5_linear_174_79238)"/>
</g>
<defs>
<linearGradient id="paint0_linear_174_79238" x1="14.4895" y1="4.89455" x2="14.4895" y2="24.1673" gradientUnits="userSpaceOnUse">
<stop stop-color="white"/>
<stop offset="1" stop-color="white" stop-opacity="0"/>
</linearGradient>
<linearGradient id="paint1_linear_174_79238" x1="8.15313" y1="9.2281" x2="8.15313" y2="24.5427" gradientUnits="userSpaceOnUse">
<stop stop-color="white"/>
<stop offset="1" stop-color="white" stop-opacity="0"/>
</linearGradient>
<linearGradient id="paint2_linear_174_79238" x1="32.993" y1="-3.8299e-10" x2="32.9137" y2="28.1672" gradientUnits="userSpaceOnUse">
<stop stop-color="white"/>
<stop offset="1" stop-color="white" stop-opacity="0"/>
</linearGradient>
<linearGradient id="paint3_linear_174_79238" x1="1.79919" y1="25.8642" x2="1.79919" y2="14.7678" gradientUnits="userSpaceOnUse">
<stop stop-color="white"/>
<stop offset="1" stop-color="white" stop-opacity="0"/>
</linearGradient>
<linearGradient id="paint4_linear_174_79238" x1="20.8617" y1="8.58617" x2="20.7925" y2="33.0157" gradientUnits="userSpaceOnUse">
<stop stop-color="white"/>
<stop offset="1" stop-color="white" stop-opacity="0"/>
</linearGradient>
<linearGradient id="paint5_linear_174_79238" x1="27.0955" y1="5.74299" x2="27.0955" y2="29.5006" gradientUnits="userSpaceOnUse">
<stop stop-color="white"/>
<stop offset="1" stop-color="white" stop-opacity="0"/>
</linearGradient>
</defs>
</svg>
