<svg preserveAspectRatio="none" width="100%" height="100%" overflow="visible" style="display: block;" viewBox="0 0 14 14" fill="none" xmlns="http://www.w3.org/2000/svg">
<path id="IconShape" d="M11.3042 13.2097H1.97024V11.8767H11.3042V13.2097ZM5.95071 0.475329C6.18868 -0.159009 7.08581 -0.159042 7.32376 0.475329L8.96633 4.85521L12.1333 2.74388C12.6768 2.38166 13.387 2.8574 13.2593 3.49779L11.3042 10.5427H1.97024L0.0151615 3.49779C-0.112597 2.85735 0.597644 2.38155 1.14114 2.74388L4.30813 4.85521L5.95071 0.475329ZM5.29055 6.03197C5.12461 6.4739 4.59067 6.6462 4.19778 6.38451L1.60696 4.65697L2.97024 9.2097H10.3042L11.6675 4.65697L9.07668 6.38451C8.6838 6.64628 8.14988 6.4739 7.98391 6.03197L6.63723 2.44213L5.29055 6.03197Z" fill="var(--fill-0, #EFEFFF)"/>
</svg>
