<svg preserveAspectRatio="none" width="100%" height="100%" overflow="visible" style="display: block;" viewBox="0 0 14 13" fill="none" xmlns="http://www.w3.org/2000/svg">
<path id="IconShape" d="M6.08594 0.340292C6.26621 0.0194495 6.67221 -0.0946461 6.99316 0.085409C7.09986 0.145321 7.1881 0.233616 7.24805 0.340292L13.249 11.0258C13.4292 11.3468 13.315 11.7537 12.9941 11.934C12.8945 11.99 12.7813 12.019 12.667 12.019H0.666992C0.298904 12.019 0.000164948 11.721 0 11.353C0 11.2387 0.028987 11.1255 0.0849609 11.0258L6.08594 0.340292ZM1.80566 10.686H11.5283L6.66699 2.02877L1.80566 10.686ZM7.33398 9.35299H6V8.019H7.33398V9.35299ZM7.33398 7.35299H6V4.68599H7.33398V7.35299Z" fill="var(--fill-0, #6B7C8C)"/>
</svg>
