<svg preserveAspectRatio="none" width="100%" height="100%" overflow="visible" style="display: block;" viewBox="0 0 14 13" fill="none" xmlns="http://www.w3.org/2000/svg">
<path id="IconShape" d="M6.08594 0.339449C6.26626 0.0188918 6.67234 -0.0952983 6.99316 0.0845665C7.09976 0.144422 7.18811 0.232909 7.24805 0.339449L13.249 11.026C13.429 11.3468 13.3148 11.7529 12.9941 11.9332C12.8945 11.9892 12.7813 12.0191 12.667 12.0191H0.666992C0.298802 12.0191 0 11.7203 0 11.3521C1.52695e-05 11.238 0.0291065 11.1256 0.0849609 11.026L6.08594 0.339449ZM1.80566 10.6852H11.5283L6.66699 2.02793L1.80566 10.6852ZM7.33398 9.35214H6V8.01914H7.33398V9.35214ZM7.33398 7.35214H6V4.68515H7.33398V7.35214Z" fill="var(--fill-0, #6B7C8C)"/>
</svg>
