<svg preserveAspectRatio="none" width="100%" height="100%" overflow="visible" style="display: block;" viewBox="0 0 20 20" fill="none" xmlns="http://www.w3.org/2000/svg">
<path id="IconShape" d="M16.9567 19.8155H2.95674V17.8155H16.9567V19.8155ZM8.92646 0.71397C9.28334 -0.237712 10.6292 -0.237718 10.986 0.71397L13.4499 7.28428L18.2009 4.11729C19.0163 3.57368 20.0815 4.28719 19.8894 5.24815L16.9567 15.8155H2.95674L0.0231434 5.24815C-0.169049 4.28719 0.896211 3.57368 1.71162 4.11729L6.4626 7.28428L8.92646 0.71397ZM7.93721 9.04795C7.68844 9.71134 6.88608 9.97025 6.29658 9.57725L2.40986 6.98643L4.45674 13.8155H15.4567L17.5026 6.98643L13.6159 9.57725C13.0264 9.97025 12.2241 9.71133 11.9753 9.04795L9.95576 3.66319L7.93721 9.04795Z" fill="var(--fill-0, #B6BEC6)"/>
</svg>
