<svg preserveAspectRatio="none" width="100%" height="100%" overflow="visible" style="display: block;" viewBox="0 0 11 10" fill="none" xmlns="http://www.w3.org/2000/svg">
<path id="Vector" d="M9.5 0C10.3284 0 11 0.671573 11 1.5V8.5C11 9.32843 10.3284 10 9.5 10H1.5C0.671573 10 0 9.32843 0 8.5V1.5C0 0.671573 0.671573 0 1.5 0H9.5ZM1 8.5C1 8.77614 1.22386 9 1.5 9H9.5C9.77614 9 10 8.77614 10 8.5V3H1V8.5ZM3 8H2V5.5H3V8ZM5 8H4V4H5V8ZM7.5 5C8.32843 5 9 5.67157 9 6.5C9 7.32843 8.32843 8 7.5 8C6.67157 8 6 7.32843 6 6.5C6 5.67157 6.67157 5 7.5 5ZM7.5 6C7.22386 6 7 6.22386 7 6.5C7 6.77614 7.22386 7 7.5 7C7.77614 7 8 6.77614 8 6.5C8 6.22386 7.77614 6 7.5 6ZM1.5 1C1.22386 1 1 1.22386 1 1.5V2H10V1.5C10 1.22386 9.77614 1 9.5 1H1.5Z" fill="var(--fill-0, #FF7A1A)"/>
</svg>
