<svg preserveAspectRatio="none" width="100%" height="100%" overflow="visible" style="display: block;" viewBox="0 0 10 10" fill="none" xmlns="http://www.w3.org/2000/svg">
<path id="Vector" d="M9.705 4.79L5.205 0.29C5.01751 0.10404 4.76407 -0.000210412 4.5 3.18856e-07H1C0.734784 3.18856e-07 0.48043 0.105357 0.292893 0.292893C0.105357 0.48043 3.13965e-07 0.734784 3.13965e-07 1V4.5C-0.000104246 4.63196 0.0259084 4.76263 0.0765388 4.88448C0.127169 5.00634 0.201416 5.11697 0.295 5.21L4.795 9.71C4.98249 9.89596 5.23593 10.0002 5.5 10C5.76479 9.99888 6.01833 9.89279 6.205 9.705L9.705 6.205C9.89279 6.01833 9.99888 5.76479 10 5.5C10.0001 5.36804 9.97409 5.23737 9.92346 5.11552C9.87283 4.99366 9.79858 4.88303 9.705 4.79ZM5.5 9L1 4.5V1H4.5L9 5.5L5.5 9ZM2.25 1.5C2.39834 1.5 2.54334 1.54399 2.66668 1.6264C2.79001 1.70881 2.88614 1.82594 2.94291 1.96299C2.99968 2.10003 3.01453 2.25083 2.98559 2.39632C2.95665 2.5418 2.88522 2.67544 2.78033 2.78033C2.67544 2.88522 2.5418 2.95665 2.39632 2.98559C2.25083 3.01453 2.10003 2.99968 1.96299 2.94291C1.82594 2.88614 1.70881 2.79001 1.6264 2.66668C1.54399 2.54334 1.5 2.39834 1.5 2.25C1.5 2.05109 1.57902 1.86032 1.71967 1.71967C1.86032 1.57902 2.05109 1.5 2.25 1.5V1.5Z" fill="var(--fill-0, #195AFE)"/>
</svg>
